<?xml version="1.0" encoding="UTF-8" standalone="no"?>
<svg
   xmlns:dc="http://purl.org/dc/elements/1.1/"
   xmlns:cc="http://creativecommons.org/ns#"
   xmlns:rdf="http://www.w3.org/1999/02/22-rdf-syntax-ns#"
   xmlns:svg="http://www.w3.org/2000/svg"
   xmlns="http://www.w3.org/2000/svg"
   width="78.593651mm"
   height="19.546093mm"
   viewBox="0 0 78.593649 19.546094"
   version="1.1"
   id="svg8">
  <defs
     id="defs2" />
  <metadata
     id="metadata5">
    <rdf:RDF>
      <cc:Work
         rdf:about="">
        <dc:format>image/svg+xml</dc:format>
        <dc:type
           rdf:resource="http://purl.org/dc/dcmitype/StillImage" />
        <dc:title></dc:title>
      </cc:Work>
    </rdf:RDF>
  </metadata>
  <g
     transform="translate(-28.256156,-204.95756)"
     id="layer1">
    <g
       id="flowRoot815"
       style="font-style:normal;font-variant:normal;font-weight:300;font-stretch:normal;font-size:40px;line-height:1.25;font-family:'open sans';-inkscape-font-specification:'open sans Light';letter-spacing:0px;word-spacing:0px;fill:#000000;fill-opacity:1;stroke:none" />
    <path
       id="path823"
       d="M 153.45834,101.20833 A 66.145836,49.892857 0 0 1 87.3125,151.10118 66.145836,49.892857 0 0 1 21.166664,101.20833 66.145836,49.892857 0 0 1 87.3125,51.315472 66.145836,49.892857 0 0 1 153.45834,101.20833 Z"
       style="opacity:0.01000001;fill:#514960;fill-opacity:1;stroke:#000000;stroke-width:0.26458332;stroke-opacity:1" />
    <g
       id="flowRoot825"
       style="font-style:normal;font-variant:normal;font-weight:300;font-stretch:normal;font-size:40px;line-height:1.25;font-family:'open sans';-inkscape-font-specification:'open sans Light';letter-spacing:0px;word-spacing:0px;fill:#000000;fill-opacity:1;stroke:none"
       transform="scale(0.26458333)"
       aria-label="stensul">
      <path
         id="path827"
         style="font-size:96px;fill:#514960;fill-opacity:1"
         d="m 142.98242,834.31462 q 0,6.84375 -5.20312,10.54687 -5.20313,3.65625 -14.76563,3.65625 -10.21875,0 -16.21875,-3.14062 v -5.01563 q 7.6875,3.84375 16.21875,3.84375 7.54688,0 11.4375,-2.48437 3.9375,-2.53125 3.9375,-6.70313 0,-3.84375 -3.14062,-6.46875 -3.09375,-2.625 -10.21875,-5.15625 -7.64063,-2.76562 -10.73438,-4.73437 -3.09375,-2.01563 -4.6875,-4.5 -1.54687,-2.53125 -1.54687,-6.14063 0,-5.71875 4.78125,-9.04687 4.82812,-3.32813 13.45312,-3.32813 8.25,0 15.65625,3.09375 l -1.73437,4.21875 q -7.5,-3.09375 -13.92188,-3.09375 -6.23437,0 -9.89062,2.0625 -3.65625,2.0625 -3.65625,5.71875 0,3.98438 2.8125,6.375 2.85937,2.39063 11.10937,5.34375 6.89063,2.48438 10.03125,4.5 3.14063,1.96875 4.6875,4.5 1.59375,2.53125 1.59375,5.95313 z" />
      <path
         id="path829"
         style="font-size:96px;fill:#514960;fill-opacity:1"
         d="m 169.6543,844.39274 q 4.40625,0 7.6875,-0.75 v 3.75 q -3.375,1.125 -7.78125,1.125 -6.75,0 -9.98438,-3.60937 -3.1875,-3.60938 -3.1875,-11.34375 v -32.90625 h -7.54687 v -2.71875 l 7.54687,-2.10938 2.34375,-11.53125 h 2.39063 v 12.32813 h 14.95312 v 4.03125 h -14.95312 v 32.25 q 0,5.85937 2.0625,8.67187 2.0625,2.8125 6.46875,2.8125 z" />
      <path
         id="path831"
         style="font-size:96px;fill:#514960;fill-opacity:1"
         d="m 209.0293,848.51774 q -11.10938,0 -17.34375,-6.84375 -6.1875,-6.84375 -6.1875,-19.17187 0,-12.1875 6,-19.5 6,-7.35938 16.17187,-7.35938 9,0 14.20313,6.28125 5.20312,6.28125 5.20312,17.0625 v 3.75 h -36.70312 q 0.0937,10.5 4.875,16.03125 4.82812,5.53125 13.78125,5.53125 4.35937,0 7.64062,-0.60937 3.32813,-0.60938 8.39063,-2.625 v 4.21875 q -4.3125,1.875 -7.96875,2.53125 -3.65625,0.70312 -8.0625,0.70312 z m -1.35938,-48.75 q -7.35937,0 -11.8125,4.875 -4.45312,4.82813 -5.20312,13.96875 h 31.5 q 0,-8.85937 -3.84375,-13.82812 -3.84375,-5.01563 -10.64063,-5.01563 z" />
      <path
         id="path833"
         style="font-size:96px;fill:#514960;fill-opacity:1"
         d="m 276.66992,847.58024 v -33.04687 q 0,-7.6875 -3.23437,-11.15625 -3.23438,-3.51563 -10.03125,-3.51563 -9.14063,0 -13.40625,4.64063 -4.21875,4.59375 -4.21875,14.95312 v 28.125 h -4.64063 v -50.95312 h 3.9375 l 0.89063,6.98437 h 0.28125 q 4.96875,-7.96875 17.67187,-7.96875 17.34375,0 17.34375,18.60938 v 33.32812 z" />
      <path
         id="path835"
         style="font-size:96px;fill:#514960;fill-opacity:1"
         d="m 329.35742,834.31462 q 0,6.84375 -5.20312,10.54687 -5.20313,3.65625 -14.76563,3.65625 -10.21875,0 -16.21875,-3.14062 v -5.01563 q 7.6875,3.84375 16.21875,3.84375 7.54688,0 11.4375,-2.48437 3.9375,-2.53125 3.9375,-6.70313 0,-3.84375 -3.14062,-6.46875 -3.09375,-2.625 -10.21875,-5.15625 -7.64063,-2.76562 -10.73438,-4.73437 -3.09375,-2.01563 -4.6875,-4.5 -1.54687,-2.53125 -1.54687,-6.14063 0,-5.71875 4.78125,-9.04687 4.82812,-3.32813 13.45312,-3.32813 8.25,0 15.65625,3.09375 l -1.73437,4.21875 q -7.5,-3.09375 -13.92188,-3.09375 -6.23437,0 -9.89062,2.0625 -3.65625,2.0625 -3.65625,5.71875 0,3.98438 2.8125,6.375 2.85937,2.39063 11.10937,5.34375 6.89063,2.48438 10.03125,4.5 3.14063,1.96875 4.6875,4.5 1.59375,2.53125 1.59375,5.95313 z" />
      <path
         id="path837"
         style="font-size:96px;fill:#514960;fill-opacity:1"
         d="m 346.60742,796.62712 v 33 q 0,7.6875 3.23438,11.20312 3.23437,3.46875 10.03125,3.46875 9.09375,0 13.35937,-4.59375 4.3125,-4.59375 4.3125,-14.95312 v -28.125 h 4.59375 v 50.95312 h -3.9375 l -0.84375,-7.03125 h -0.28125 q -4.96875,7.96875 -17.67187,7.96875 -17.39063,0 -17.39063,-18.60937 v -33.28125 z" />
      <path
         id="path839"
         style="font-size:96px;fill:#514960;fill-opacity:1"
         d="m 403.8418,847.58024 h -4.64063 v -72.9375 h 4.64063 z" />
    </g>
  </g>
</svg>
