<?xml version="1.0" encoding="utf-8"?>
<!-- Generator: Adobe Illustrator 23.0.3, SVG Export Plug-In . SVG Version: 6.00 Build 0)  -->
<svg version="1.1" id="Capa_1" xmlns="http://www.w3.org/2000/svg" xmlns:xlink="http://www.w3.org/1999/xlink" x="0px" y="0px"
	 viewBox="0 0 915 359" style="enable-background:new 0 0 915 359;" xml:space="preserve">
<style type="text/css">
	.st0{fill:#DBE11F;}
	.st1{fill:#75C140;}
	.st2{fill:#82C53C;}
	.st3{fill:#8EC938;}
	.st4{fill:#A8D12F;}
	.st5{fill:#9BCD34;}
	.st6{fill:#B5D52B;}
	.st7{fill:#CEDD23;}
	.st8{fill:#C1D927;}
	.st9{fill:#68BD44;}
	.st10{fill:#352B26;}
	.st11{fill:#6D5C53;}
</style>
<g>
	<g>
		<path id="path14_1_" class="st0" d="M121.18,114.46c0.8,0,56.66,0,57.46,0c-0.36-0.71-28.28-56.57-28.73-57.46
			C149.47,57.88,121.54,113.75,121.18,114.46"/>
		<path id="path16_1_" class="st1" d="M184.36,240.82c0.8,0,56.66,0,57.46,0c-0.36-0.71-28.29-56.6-28.73-57.48
			C212.65,184.22,184.72,240.11,184.36,240.82"/>
		<path id="path18_1_" class="st2" d="M152.77,181.14c0.36,0.72,28.29,56.61,28.74,57.49c0.44-0.88,28.37-56.77,28.72-57.49
			C209.43,181.14,153.57,181.14,152.77,181.14"/>
		<path id="path20_1_" class="st3" d="M121.18,240.82c0.8,0,56.66,0,57.46,0c-0.36-0.71-28.3-56.64-28.73-57.48
			C149.48,184.18,121.54,240.11,121.18,240.82"/>
		<path id="path22_1_" class="st4" d="M58,240.82c0.8,0,56.65,0,57.46,0c-0.36-0.71-28.31-56.64-28.73-57.48
			C86.3,184.18,58.36,240.11,58,240.82"/>
		<path id="path24_1_" class="st5" d="M89.6,181.14c0.35,0.72,28.29,56.64,28.72,57.49c0.43-0.85,28.37-56.77,28.73-57.49
			C146.25,181.14,90.39,181.14,89.6,181.14"/>
		<path id="path26_1_" class="st6" d="M152.77,177.6c0.8,0,56.66,0,57.46,0c-0.36-0.71-28.28-56.61-28.72-57.49
			C181.06,120.99,153.13,176.89,152.77,177.6"/>
		<path id="path28_1_" class="st7" d="M89.6,177.6c0.8,0,56.65,0,57.45,0c-0.36-0.72-28.3-56.65-28.73-57.49
			C117.89,120.96,89.95,176.88,89.6,177.6"/>
		<path id="path30_1_" class="st8" d="M121.18,117.92c0.37,0.72,28.3,56.64,28.73,57.5c0.43-0.85,28.37-56.78,28.73-57.5
			C177.84,117.92,121.98,117.92,121.18,117.92"/>
		<path id="path32_1_" class="st9" d="M121.18,244.37c0.37,0.71,28.3,56.64,28.73,57.49c0.43-0.85,28.37-56.78,28.73-57.49
			C177.84,244.37,121.98,244.37,121.18,244.37"/>
	</g>
	<g>
		<polygon class="st10" points="306.55,240.61 287.27,240.61 287.27,146.59 286.3,147.25 284.07,148.76 270.32,158.09 
			270.32,138.36 306.55,116.96 		"/>
		<path class="st10" d="M361.54,243.38c-20.17,0-40.51-12.96-40.51-41.92v-43.98c0-28.96,20.34-41.93,40.51-41.93
			c20.17,0,40.51,12.97,40.51,41.93v43.98C402.05,230.42,381.71,243.38,361.54,243.38 M361.54,133.64
			c-10.57,0-21.23,6.94-21.23,22.43v46.8c0,15.5,10.66,22.43,21.23,22.43c10.56,0,21.22-6.93,21.22-22.43v-46.8
			C382.76,140.58,372.1,133.64,361.54,133.64"/>
		<path class="st10" d="M449.47,240.61h-19.29V118.04h52.92c26.04,0,43.54,16.61,43.54,41.33s-17.51,41.31-43.54,41.31h-33.64
			V240.61z M449.47,136.12v46.48h31.83c19.24,0,26.06-12.52,26.06-23.23c0-10.73-6.83-23.26-26.06-23.26H449.47z"/>
		<rect x="536.34" y="144.56" class="st10" width="19.37" height="96.05"/>
		<path class="st10" d="M546.02,114.14c-6,0-10.89,4.89-10.89,10.9c0,6.01,4.88,10.91,10.89,10.91c6.02,0,10.92-4.89,10.92-10.91
			C556.94,119.03,552.04,114.14,546.02,114.14z"/>
		<path class="st10" d="M620.73,142.07c-12.56,0-21.91,5.45-27.37,14.42c-2,3.29-3.76,7.08-3.76,7.08v-18.88h-19.25v95.92h19.25
			V186.8c0-15.48,9.77-25.48,24.89-25.48c15.96,0,24.06,8.71,24.06,25.88v53.42h19.26v-58.05
			C657.8,159.85,641.52,142.07,620.73,142.07z"/>
		<path class="st10" d="M721.01,142.54c-34.16,0-52.6,25.86-52.6,50.2c0,24.33,18.43,50.19,52.59,50.19h0h0
			c16.03-0.19,31.25-7.8,42.85-21.44l0.62-0.73L749,212.13l-0.42,0.52c-7.52,9.32-17.26,14.24-28.17,14.24
			c-16.23,0-29.9-11.76-31.13-26.78l-0.12-1.38h81.23v-2.56C770.4,159.18,741.52,142.54,721.01,142.54z M688.95,183.92l0.36-1.56
			c3.46-14.67,14.53-23.78,28.88-23.78c14.41,0,25.64,8.86,30.05,23.7l0.49,1.64H688.95z"/>
		<path class="st10" d="M832.8,186.07l-21.16-4.04c-11.97-2.09-13.36-7.32-13.36-11.08c0-8.59,9.43-13.08,18.74-13.08
			c8.49,0,16.94,3.29,25.13,9.77l0.98,0.77l10.88-13.44l-1.13-0.77c-12.27-8.38-23.51-12.11-36.46-12.11
			c-24.64,0-37.54,15.64-37.54,31.08c0,12.44,5.86,21.81,34.45,27.06l11.9,2.23c8.88,1.64,13.38,5.71,13.38,12.08
			c0,6.33-8.11,13.1-20.18,13.1c-9.94,0-21.64-5.14-29.8-13.09l-0.9-0.88l-13.13,13.34l1.08,0.87
			c13.06,10.59,26.32,15.52,41.74,15.52c27.88,0,40.59-16.64,40.59-32.1C858,197.27,849.99,189.25,832.8,186.07z"/>
	</g>
	<g>
		<path class="st11" d="M307.85,282.77c-0.36,3.06-1.51,5.43-3.44,7.09c-1.93,1.66-4.49,2.5-7.69,2.5c-3.47,0-6.25-1.23-8.34-3.68
			c-2.09-2.45-3.13-5.73-3.13-9.84v-2.78c0-2.69,0.49-5.06,1.46-7.1c0.97-2.04,2.35-3.61,4.14-4.7c1.79-1.09,3.86-1.64,6.21-1.64
			c3.12,0,5.62,0.86,7.5,2.57c1.88,1.72,2.98,4.09,3.29,7.13h-3.89c-0.34-2.31-1.07-3.99-2.19-5.03c-1.12-1.04-2.69-1.56-4.71-1.56
			c-2.47,0-4.41,0.9-5.82,2.71c-1.4,1.81-2.11,4.37-2.11,7.7v2.81c0,3.14,0.67,5.65,2,7.5c1.33,1.86,3.19,2.78,5.58,2.78
			c2.15,0,3.8-0.48,4.95-1.44c1.15-0.96,1.91-2.63,2.29-5.02H307.85z"/>
		<path class="st11" d="M323.09,273.75c-0.56-0.09-1.18-0.14-1.83-0.14c-2.45,0-4.1,1.03-4.98,3.08v15.27h-3.73v-21.51h3.63
			l0.06,2.48c1.22-1.92,2.96-2.88,5.2-2.88c0.73,0,1.28,0.09,1.65,0.28V273.75z"/>
		<path class="st11" d="M335.19,292.36c-2.96,0-5.36-0.96-7.22-2.87c-1.85-1.92-2.78-4.48-2.78-7.68v-0.68
			c0-2.13,0.41-4.04,1.24-5.72c0.83-1.68,1.98-2.99,3.47-3.94c1.49-0.95,3.09-1.42,4.83-1.42c2.84,0,5.04,0.92,6.61,2.76
			c1.57,1.84,2.36,4.48,2.36,7.91v1.53h-14.78c0.05,2.12,0.68,3.83,1.88,5.14c1.2,1.3,2.73,1.96,4.59,1.96
			c1.32,0,2.43-0.27,3.35-0.8c0.91-0.53,1.71-1.23,2.4-2.11l2.28,1.75C341.59,290.97,338.85,292.36,335.19,292.36z M334.73,273.07
			c-1.51,0-2.77,0.54-3.79,1.62c-1.02,1.08-1.65,2.59-1.89,4.54h10.93v-0.28c-0.11-1.87-0.62-3.32-1.53-4.34
			C337.52,273.58,336.28,273.07,334.73,273.07z"/>
		<path class="st11" d="M361.48,291.96c-0.21-0.42-0.39-1.18-0.52-2.27c-1.73,1.78-3.8,2.66-6.21,2.66c-2.15,0-3.91-0.6-5.29-1.8
			c-1.38-1.2-2.07-2.72-2.07-4.56c0-2.24,0.86-3.98,2.59-5.22c1.73-1.24,4.16-1.86,7.29-1.86h3.63v-1.69c0-1.29-0.39-2.31-1.17-3.07
			c-0.78-0.76-1.93-1.14-3.45-1.14c-1.33,0-2.45,0.33-3.35,0.99c-0.9,0.66-1.35,1.47-1.35,2.41h-3.75c0-1.07,0.39-2.11,1.16-3.11
			c0.77-1,1.82-1.79,3.14-2.38c1.32-0.58,2.78-0.88,4.36-0.88c2.51,0,4.48,0.62,5.91,1.86c1.42,1.24,2.16,2.95,2.22,5.12v9.9
			c0,1.98,0.25,3.55,0.77,4.71v0.32H361.48z M355.29,289.15c1.17,0,2.28-0.3,3.33-0.89c1.05-0.6,1.81-1.37,2.28-2.33v-4.41h-2.92
			c-4.57,0-6.85,1.32-6.85,3.96c0,1.15,0.39,2.05,1.17,2.7C353.06,288.83,354.06,289.15,355.29,289.15z"/>
		<path class="st11" d="M375.53,265.24v5.21h4.07v2.84h-4.07v13.36c0,0.86,0.18,1.51,0.54,1.94c0.36,0.43,0.98,0.65,1.85,0.65
			c0.43,0,1.02-0.08,1.77-0.24v2.97c-0.98,0.26-1.93,0.4-2.86,0.4c-1.67,0-2.92-0.5-3.77-1.49c-0.85-0.99-1.27-2.41-1.27-4.23
			v-13.34h-3.97v-2.84h3.97v-5.21H375.53z"/>
		<path class="st11" d="M383.97,264.74c0-0.6,0.18-1.1,0.55-1.51c0.37-0.41,0.92-0.62,1.64-0.62c0.73,0,1.28,0.21,1.65,0.62
			c0.38,0.41,0.56,0.91,0.56,1.51c0,0.6-0.19,1.09-0.56,1.49c-0.38,0.4-0.93,0.6-1.65,0.6c-0.72,0-1.27-0.2-1.64-0.6
			C384.16,265.83,383.97,265.34,383.97,264.74z M388,291.96h-3.73v-21.51H388V291.96z"/>
		<path class="st11" d="M401.17,286.97l5.4-16.52h3.81l-7.82,21.51h-2.84l-7.9-21.51h3.81L401.17,286.97z"/>
		<path class="st11" d="M422.76,292.36c-2.96,0-5.36-0.96-7.22-2.87c-1.85-1.92-2.78-4.48-2.78-7.68v-0.68
			c0-2.13,0.41-4.04,1.24-5.72c0.83-1.68,1.98-2.99,3.47-3.94c1.48-0.95,3.09-1.42,4.83-1.42c2.84,0,5.04,0.92,6.61,2.76
			c1.57,1.84,2.36,4.48,2.36,7.91v1.53h-14.78c0.05,2.12,0.68,3.83,1.88,5.14c1.2,1.3,2.73,1.96,4.59,1.96
			c1.32,0,2.43-0.27,3.35-0.8c0.91-0.53,1.71-1.23,2.4-2.11l2.28,1.75C429.15,290.97,426.41,292.36,422.76,292.36z M422.29,273.07
			c-1.51,0-2.77,0.54-3.79,1.62c-1.02,1.08-1.65,2.59-1.89,4.54h10.93v-0.28c-0.11-1.87-0.62-3.32-1.53-4.34
			C425.09,273.58,423.85,273.07,422.29,273.07z"/>
		<path class="st11" d="M455.03,279.05c-3.32-0.94-5.74-2.1-7.25-3.47c-1.51-1.37-2.27-3.07-2.27-5.08c0-2.28,0.92-4.17,2.77-5.66
			c1.85-1.49,4.25-2.24,7.21-2.24c2.02,0,3.81,0.38,5.39,1.15c1.58,0.77,2.8,1.83,3.67,3.18c0.87,1.35,1.3,2.83,1.3,4.43h-3.89
			c0-1.76-0.56-3.14-1.69-4.14c-1.13-1-2.72-1.51-4.78-1.51c-1.91,0-3.4,0.41-4.47,1.25c-1.07,0.83-1.6,1.98-1.6,3.45
			c0,1.18,0.51,2.18,1.52,3c1.01,0.82,2.74,1.56,5.18,2.24c2.44,0.68,4.35,1.42,5.72,2.24c1.38,0.81,2.4,1.77,3.06,2.85
			c0.67,1.09,1,2.37,1,3.84c0,2.35-0.93,4.22-2.78,5.64c-1.85,1.41-4.33,2.12-7.44,2.12c-2.02,0-3.9-0.38-5.64-1.14
			c-1.75-0.76-3.09-1.81-4.04-3.13c-0.95-1.32-1.42-2.83-1.42-4.51h3.89c0,1.75,0.66,3.13,1.96,4.14c1.31,1.01,3.06,1.52,5.25,1.52
			c2.04,0,3.61-0.41,4.7-1.23c1.09-0.82,1.63-1.94,1.63-3.36c0-1.42-0.5-2.51-1.51-3.29C459.51,280.58,457.68,279.81,455.03,279.05z
			"/>
		<path class="st11" d="M469.3,281c0-2.11,0.42-4,1.26-5.69c0.84-1.68,2.01-2.98,3.51-3.9c1.5-0.91,3.21-1.37,5.13-1.37
			c2.97,0,5.37,1.01,7.21,3.04c1.83,2.03,2.75,4.73,2.75,8.09v0.26c0,2.09-0.41,3.97-1.22,5.64c-0.81,1.66-1.98,2.96-3.49,3.89
			c-1.51,0.93-3.25,1.39-5.21,1.39c-2.96,0-5.35-1.01-7.19-3.04c-1.83-2.03-2.75-4.71-2.75-8.05V281z M473.05,281.44
			c0,2.39,0.56,4.3,1.68,5.75c1.12,1.45,2.62,2.17,4.51,2.17c1.89,0,3.4-0.73,4.52-2.2c1.11-1.46,1.67-3.52,1.67-6.15
			c0-2.36-0.57-4.27-1.7-5.74s-2.64-2.2-4.53-2.2c-1.84,0-3.33,0.72-4.46,2.17C473.62,276.68,473.05,278.75,473.05,281.44z"/>
		<path class="st11" d="M495.67,291.96v-18.67h-3.45v-2.84h3.45v-2.21c0-2.31,0.62-4.09,1.87-5.35s3.02-1.89,5.3-1.89
			c0.86,0,1.71,0.11,2.56,0.34l-0.2,2.96c-0.63-0.12-1.3-0.18-2.02-0.18c-1.21,0-2.14,0.35-2.8,1.05c-0.66,0.7-0.99,1.7-0.99,3v2.27
			h4.66v2.84h-4.66v18.67H495.67z"/>
		<path class="st11" d="M513.23,265.24v5.21h4.07v2.84h-4.07v13.36c0,0.86,0.18,1.51,0.54,1.94c0.36,0.43,0.98,0.65,1.85,0.65
			c0.43,0,1.02-0.08,1.77-0.24v2.97c-0.98,0.26-1.94,0.4-2.86,0.4c-1.67,0-2.92-0.5-3.77-1.49c-0.85-0.99-1.27-2.41-1.27-4.23
			v-13.34h-3.97v-2.84h3.97v-5.21H513.23z"/>
		<path class="st11" d="M540.97,286.89l4.19-16.44h3.73l-6.35,21.51h-3.02l-5.3-16.3l-5.16,16.3h-3.02l-6.33-21.51h3.71l4.29,16.1
			l5.08-16.1h3L540.97,286.89z"/>
		<path class="st11" d="M566.14,291.96c-0.21-0.42-0.39-1.18-0.52-2.27c-1.73,1.78-3.8,2.66-6.21,2.66c-2.15,0-3.91-0.6-5.29-1.8
			c-1.38-1.2-2.07-2.72-2.07-4.56c0-2.24,0.86-3.98,2.59-5.22c1.73-1.24,4.16-1.86,7.29-1.86h3.63v-1.69c0-1.29-0.39-2.31-1.17-3.07
			c-0.78-0.76-1.93-1.14-3.45-1.14c-1.33,0-2.45,0.33-3.35,0.99c-0.9,0.66-1.35,1.47-1.35,2.41h-3.75c0-1.07,0.39-2.11,1.16-3.11
			c0.77-1,1.82-1.79,3.15-2.38c1.32-0.58,2.78-0.88,4.36-0.88c2.51,0,4.48,0.62,5.91,1.86c1.42,1.24,2.16,2.95,2.22,5.12v9.9
			c0,1.98,0.26,3.55,0.77,4.71v0.32H566.14z M559.96,289.15c1.17,0,2.28-0.3,3.33-0.89c1.05-0.6,1.81-1.37,2.28-2.33v-4.41h-2.92
			c-4.57,0-6.85,1.32-6.85,3.96c0,1.15,0.39,2.05,1.17,2.7C557.73,288.83,558.73,289.15,559.96,289.15z"/>
		<path class="st11" d="M585.68,273.75c-0.56-0.09-1.18-0.14-1.83-0.14c-2.45,0-4.11,1.03-4.98,3.08v15.27h-3.73v-21.51h3.63
			l0.06,2.48c1.22-1.92,2.96-2.88,5.2-2.88c0.73,0,1.28,0.09,1.65,0.28V273.75z"/>
		<path class="st11" d="M597.77,292.36c-2.96,0-5.36-0.96-7.22-2.87c-1.85-1.92-2.78-4.48-2.78-7.68v-0.68
			c0-2.13,0.41-4.04,1.24-5.72c0.83-1.68,1.98-2.99,3.47-3.94c1.49-0.95,3.09-1.42,4.83-1.42c2.84,0,5.04,0.92,6.61,2.76
			c1.57,1.84,2.36,4.48,2.36,7.91v1.53H591.5c0.05,2.12,0.68,3.83,1.88,5.14c1.2,1.3,2.73,1.96,4.59,1.96c1.32,0,2.43-0.27,3.35-0.8
			c0.91-0.53,1.71-1.23,2.4-2.11l2.28,1.75C604.17,290.97,601.43,292.36,597.77,292.36z M597.31,273.07c-1.51,0-2.77,0.54-3.79,1.62
			c-1.02,1.08-1.65,2.59-1.89,4.54h10.93v-0.28c-0.11-1.87-0.62-3.32-1.53-4.34C600.1,273.58,598.87,273.07,597.31,273.07z"/>
		<path class="st11" d="M621.4,291.96v-28.95h8.29c2.55,0,4.81,0.56,6.77,1.67c1.96,1.11,3.48,2.7,4.55,4.75s1.61,4.41,1.62,7.08
			v1.85c0,2.73-0.53,5.12-1.6,7.18c-1.07,2.06-2.59,3.63-4.58,4.73c-1.98,1.1-4.29,1.66-6.92,1.69H621.4z M625.27,266.13v22.71h4.07
			c2.98,0,5.3-0.92,6.96-2.75c1.66-1.83,2.49-4.44,2.49-7.82v-1.69c0-3.29-0.78-5.85-2.35-7.67c-1.57-1.82-3.79-2.75-6.66-2.78
			H625.27z"/>
		<path class="st11" d="M656.94,292.36c-2.96,0-5.36-0.96-7.22-2.87c-1.85-1.92-2.78-4.48-2.78-7.68v-0.68
			c0-2.13,0.41-4.04,1.24-5.72c0.83-1.68,1.98-2.99,3.47-3.94c1.48-0.95,3.09-1.42,4.83-1.42c2.84,0,5.04,0.92,6.61,2.76
			c1.57,1.84,2.36,4.48,2.36,7.91v1.53h-14.78c0.05,2.12,0.68,3.83,1.89,5.14c1.2,1.3,2.73,1.96,4.59,1.96
			c1.32,0,2.43-0.27,3.35-0.8c0.91-0.53,1.71-1.23,2.4-2.11l2.28,1.75C663.33,290.97,660.59,292.36,656.94,292.36z M656.47,273.07
			c-1.5,0-2.77,0.54-3.79,1.62c-1.02,1.08-1.65,2.59-1.89,4.54h10.93v-0.28c-0.11-1.87-0.62-3.32-1.53-4.34
			C659.27,273.58,658.03,273.07,656.47,273.07z"/>
		<path class="st11" d="M676.69,286.97l5.4-16.52h3.81l-7.82,21.51h-2.84l-7.9-21.51h3.81L676.69,286.97z"/>
		<path class="st11" d="M698.28,292.36c-2.96,0-5.36-0.96-7.22-2.87c-1.85-1.92-2.78-4.48-2.78-7.68v-0.68
			c0-2.13,0.41-4.04,1.24-5.72c0.83-1.68,1.98-2.99,3.47-3.94c1.48-0.95,3.09-1.42,4.83-1.42c2.84,0,5.04,0.92,6.61,2.76
			c1.57,1.84,2.36,4.48,2.36,7.91v1.53h-14.78c0.05,2.12,0.68,3.83,1.88,5.14c1.2,1.3,2.73,1.96,4.59,1.96
			c1.32,0,2.43-0.27,3.35-0.8c0.91-0.53,1.71-1.23,2.4-2.11l2.28,1.75C704.68,290.97,701.94,292.36,698.28,292.36z M697.82,273.07
			c-1.51,0-2.77,0.54-3.79,1.62s-1.65,2.59-1.89,4.54h10.93v-0.28c-0.11-1.87-0.62-3.32-1.53-4.34
			C700.61,273.58,699.38,273.07,697.82,273.07z"/>
		<path class="st11" d="M715.16,291.96h-3.73v-30.54h3.73V291.96z"/>
		<path class="st11" d="M720.13,281c0-2.11,0.42-4,1.26-5.69c0.84-1.68,2.01-2.98,3.51-3.9c1.5-0.91,3.21-1.37,5.13-1.37
			c2.97,0,5.37,1.01,7.21,3.04c1.83,2.03,2.75,4.73,2.75,8.09v0.26c0,2.09-0.41,3.97-1.22,5.64c-0.81,1.66-1.98,2.96-3.49,3.89
			c-1.51,0.93-3.25,1.39-5.21,1.39c-2.96,0-5.35-1.01-7.19-3.04c-1.83-2.03-2.75-4.71-2.75-8.05V281z M723.88,281.44
			c0,2.39,0.56,4.3,1.68,5.75c1.12,1.45,2.62,2.17,4.51,2.17c1.89,0,3.4-0.73,4.52-2.2c1.12-1.46,1.67-3.52,1.67-6.15
			c0-2.36-0.57-4.27-1.7-5.74s-2.64-2.2-4.53-2.2c-1.84,0-3.33,0.72-4.45,2.17C724.45,276.68,723.88,278.75,723.88,281.44z"/>
		<path class="st11" d="M763.09,281.44c0,3.27-0.76,5.91-2.28,7.91c-1.52,2-3.58,3-6.17,3c-2.65,0-4.73-0.83-6.25-2.49v10.36h-3.73
			v-29.78h3.41l0.18,2.39c1.52-1.85,3.63-2.78,6.33-2.78c2.62,0,4.69,0.97,6.22,2.92c1.53,1.95,2.29,4.66,2.29,8.13V281.44z
			 M759.36,281.02c0-2.43-0.52-4.34-1.57-5.75c-1.05-1.41-2.49-2.11-4.31-2.11c-2.26,0-3.95,0.99-5.08,2.96v10.28
			c1.11,1.96,2.82,2.94,5.12,2.94c1.79,0,3.21-0.7,4.26-2.1C758.83,285.86,759.36,283.78,759.36,281.02z"/>
		<path class="st11" d="M771.34,270.45l0.1,2.39c1.6-1.85,3.76-2.78,6.47-2.78c3.05,0,5.13,1.15,6.23,3.46
			c0.73-1.03,1.67-1.87,2.83-2.51c1.16-0.64,2.54-0.95,4.12-0.95c4.78,0,7.22,2.5,7.3,7.5v14.41h-3.73v-14.2
			c0-1.54-0.36-2.69-1.07-3.45s-1.91-1.14-3.59-1.14c-1.38,0-2.53,0.41-3.45,1.22c-0.91,0.81-1.44,1.91-1.59,3.29v14.28h-3.75v-14.1
			c0-3.13-1.55-4.69-4.66-4.69c-2.45,0-4.12,1.03-5.02,3.08v15.71h-3.73v-21.51H771.34z"/>
		<path class="st11" d="M813.06,292.36c-2.96,0-5.36-0.96-7.22-2.87c-1.85-1.92-2.78-4.48-2.78-7.68v-0.68
			c0-2.13,0.41-4.04,1.24-5.72c0.83-1.68,1.98-2.99,3.47-3.94c1.49-0.95,3.09-1.42,4.83-1.42c2.84,0,5.04,0.92,6.61,2.76
			c1.57,1.84,2.36,4.48,2.36,7.91v1.53H806.8c0.05,2.12,0.68,3.83,1.88,5.14c1.2,1.3,2.73,1.96,4.59,1.96c1.32,0,2.43-0.27,3.35-0.8
			c0.91-0.53,1.71-1.23,2.4-2.11l2.28,1.75C819.46,290.97,816.72,292.36,813.06,292.36z M812.6,273.07c-1.51,0-2.77,0.54-3.79,1.62
			c-1.02,1.08-1.65,2.59-1.89,4.54h10.93v-0.28c-0.11-1.87-0.62-3.32-1.53-4.34C815.4,273.58,814.16,273.07,812.6,273.07z"/>
		<path class="st11" d="M829.41,270.45l0.12,2.7c1.67-2.07,3.84-3.1,6.53-3.1c4.61,0,6.94,2.56,6.98,7.69v14.22h-3.73v-14.24
			c-0.01-1.55-0.37-2.7-1.08-3.44c-0.71-0.74-1.8-1.11-3.3-1.11c-1.21,0-2.27,0.32-3.18,0.95c-0.91,0.64-1.63,1.47-2.14,2.51v15.33
			h-3.73v-21.51H829.41z"/>
		<path class="st11" d="M853.72,265.24v5.21h4.07v2.84h-4.07v13.36c0,0.86,0.18,1.51,0.54,1.94s0.98,0.65,1.85,0.65
			c0.43,0,1.02-0.08,1.77-0.24v2.97c-0.98,0.26-1.94,0.4-2.86,0.4c-1.67,0-2.92-0.5-3.77-1.49c-0.85-0.99-1.27-2.41-1.27-4.23
			v-13.34h-3.97v-2.84h3.97v-5.21H853.72z"/>
	</g>
</g>
</svg>
