<svg width="148" height="99" viewBox="0 0 148 99" fill="none" xmlns="http://www.w3.org/2000/svg">
<path d="M82.234 85.193V98.976L113.411 80.2V66.414L82.234 85.193ZM91.229 91.101C90.9403 91.5071 90.5692 91.8478 90.14 92.101C89.7154 92.3602 89.2424 92.5303 88.75 92.601C88.2752 92.6689 87.7917 92.6448 87.326 92.53C86.8598 92.4168 86.4204 92.2129 86.033 91.93C85.63 91.6393 85.2896 91.2706 85.0319 90.8458C84.7742 90.421 84.6046 89.9487 84.533 89.457C84.4645 88.981 84.4879 88.4962 84.602 88.029C84.7194 87.5637 84.9229 87.1244 85.202 86.734C85.4961 86.3323 85.8665 85.9925 86.292 85.734C86.7165 85.4731 87.1905 85.3029 87.684 85.234C88.1605 85.1651 88.6458 85.1896 89.113 85.306L88.818 86.497C88.4999 86.4177 88.1694 86.401 87.845 86.448C87.5182 86.4961 87.2047 86.6108 86.924 86.785C86.6433 86.95 86.4006 87.1726 86.212 87.438C85.8263 87.9744 85.6613 88.6384 85.751 89.293C85.799 89.616 85.9119 89.9259 86.083 90.204C86.2503 90.4855 86.4724 90.7307 86.736 90.925C87.0015 91.1192 87.3025 91.2596 87.622 91.338C87.9407 91.418 88.2722 91.4333 88.597 91.383C88.9191 91.3336 89.228 91.2197 89.505 91.048C89.7883 90.8825 90.0351 90.6612 90.2303 90.3975C90.4256 90.1338 90.5653 89.8333 90.641 89.514L91.83 89.8C91.7131 90.2672 91.5092 90.7083 91.229 91.1V91.101ZM99.006 85.47C98.8912 85.9363 98.6875 86.376 98.406 86.765C97.9714 87.3634 97.3681 87.8186 96.6733 88.0723C95.9786 88.326 95.224 88.3666 94.506 88.189C94.0404 88.0742 93.6013 87.8705 93.213 87.589C92.8115 87.2964 92.472 86.927 92.2145 86.5021C91.957 86.0772 91.7866 85.6054 91.713 85.114C91.6469 84.6382 91.6703 84.1542 91.782 83.687C92.0186 82.7289 92.6257 81.9039 93.47 81.393C93.8952 81.1349 94.3678 80.9649 94.86 80.893C95.3358 80.8257 95.8201 80.8495 96.287 80.963C96.753 81.0777 97.1924 81.2814 97.581 81.563C97.9845 81.8535 98.3247 82.223 98.581 82.649C98.8384 83.0741 99.0084 83.5463 99.081 84.038C99.1471 84.5158 99.1217 85.0018 99.006 85.47V85.47ZM106.295 82.17L101.305 79.47L103.836 83.661L102.789 84.292L99.089 78.173L100.224 77.486L105.212 80.186L102.682 76L103.735 75.367L107.435 81.488L106.295 82.17ZM110.933 79.378L109.886 80.014L106.186 73.893L110.306 71.402L110.935 72.453L107.871 74.307L108.764 75.794L111.049 74.416L111.949 75.305L109.404 76.844L110.933 79.378Z" fill="#902B8C"/>
<path d="M97.529 83.29C97.3615 83.0112 97.1415 82.7677 96.881 82.573C96.6174 82.3782 96.3175 82.2381 95.999 82.161C95.6788 82.0817 95.3463 82.0657 95.02 82.114C94.3678 82.2147 93.7819 82.5691 93.39 83.1C93.0027 83.6363 92.8391 84.3023 92.934 84.957C92.9822 85.2808 93.0941 85.5917 93.2632 85.872C93.4322 86.1523 93.6551 86.3963 93.919 86.59C94.1841 86.7838 94.4848 86.9235 94.804 87.001C95.1215 87.0823 95.4522 87.098 95.776 87.047C96.0971 86.9954 96.4051 86.882 96.683 86.713C96.963 86.5444 97.2081 86.3238 97.405 86.063C97.6037 85.8 97.7457 85.4987 97.822 85.178C97.9013 84.8602 97.917 84.5299 97.868 84.206C97.8143 83.8819 97.6992 83.571 97.529 83.29V83.29Z" fill="#902B8C"/>
<path d="M119.76 75.308C119.652 75.428 119.546 75.5417 119.442 75.649C119.342 75.757 119.235 75.864 119.134 75.971H121.324V77.108H117.144V76.308L117.362 76.108L117.855 75.633C118 75.488 118.165 75.322 118.348 75.133C118.531 74.944 118.72 74.746 118.916 74.533C119.21 74.2253 119.489 73.9025 119.75 73.566C119.906 73.3663 120.05 73.1576 120.181 72.941C120.248 72.8349 120.304 72.7219 120.347 72.604C120.366 72.538 120.376 72.504 120.376 72.496C120.377 72.3586 120.349 72.2224 120.295 72.096C120.244 71.9732 120.168 71.862 120.073 71.769C119.976 71.6772 119.864 71.6036 119.741 71.552C119.615 71.498 119.478 71.4705 119.341 71.471C119.203 71.4699 119.067 71.4975 118.941 71.552C118.82 71.6045 118.709 71.678 118.614 71.769C118.519 71.8618 118.443 71.973 118.392 72.096C118.338 72.2223 118.31 72.3585 118.311 72.496H117.174C117.173 72.2113 117.229 71.9293 117.34 71.667C117.448 71.4049 117.608 71.1669 117.809 70.967C118.006 70.7609 118.245 70.5993 118.509 70.493C119.044 70.2783 119.642 70.2783 120.177 70.493C120.441 70.5997 120.68 70.7613 120.877 70.967C121.078 71.1674 121.237 71.4053 121.346 71.667C121.456 71.9294 121.513 72.2113 121.512 72.496C121.506 72.7122 121.456 72.9248 121.365 73.121C121.239 73.398 121.085 73.6617 120.906 73.908C120.557 74.4006 120.174 74.8684 119.76 75.308V75.308Z" fill="#902B8C"/>
<path d="M124.82 70.342C125.185 70.3265 125.548 70.4125 125.868 70.5907C126.187 70.7688 126.451 71.032 126.63 71.351C126.823 71.693 126.958 72.0647 127.03 72.451C127.117 72.8926 127.16 73.3419 127.158 73.792C127.161 74.2418 127.121 74.6907 127.039 75.133C126.974 75.5201 126.841 75.8926 126.646 76.233C126.471 76.5345 126.224 76.7872 125.926 76.968C125.583 77.1454 125.203 77.2379 124.817 77.2379C124.432 77.2379 124.052 77.1454 123.709 76.968C123.41 76.7862 123.162 76.5316 122.988 76.228C122.795 75.8886 122.662 75.5185 122.595 75.134C122.514 74.693 122.474 74.2454 122.476 73.797C122.474 73.3475 122.512 72.8987 122.59 72.456C122.654 72.07 122.784 71.6979 122.974 71.356C123.146 71.0517 123.394 70.7971 123.694 70.617C124.037 70.4241 124.427 70.329 124.82 70.342V70.342ZM125.929 74.91C125.962 74.736 125.986 74.5605 126 74.384C126.016 74.198 126.024 74.0003 126.024 73.791C126.027 73.416 125.994 73.0415 125.924 72.673C125.895 72.5351 125.856 72.3992 125.81 72.266C125.771 72.149 125.716 72.0374 125.649 71.934C125.574 71.7968 125.467 71.6798 125.337 71.593C125.168 71.5178 124.986 71.4789 124.801 71.4789C124.616 71.4789 124.434 71.5178 124.265 71.593C124.138 71.6718 124.035 71.7829 123.965 71.915C123.858 72.1201 123.778 72.3383 123.728 72.564C123.642 72.9671 123.604 73.379 123.615 73.791C123.615 73.9997 123.623 74.1973 123.638 74.384C123.653 74.5605 123.677 74.7361 123.71 74.91C123.76 75.1685 123.849 75.4177 123.975 75.649C124.047 75.7824 124.149 75.8964 124.275 75.981C124.443 76.0626 124.628 76.1014 124.815 76.094C125.002 76.1028 125.188 76.0639 125.355 75.981C125.489 75.9031 125.598 75.7877 125.668 75.649C125.798 75.4199 125.886 75.1697 125.929 74.91V74.91Z" fill="#902B8C"/>
<path d="M130.827 75.308C130.72 75.428 130.614 75.5417 130.509 75.649C130.404 75.7564 130.301 75.8637 130.202 75.971H132.391V77.108H128.211V76.308L128.429 76.108L128.922 75.633C129.067 75.488 129.232 75.322 129.415 75.133C129.598 74.944 129.788 74.746 129.984 74.533C130.278 74.2253 130.556 73.9025 130.817 73.566C130.973 73.366 131.117 73.1573 131.249 72.941C131.315 72.8344 131.371 72.7215 131.415 72.604C131.433 72.538 131.443 72.504 131.443 72.496C131.443 72.3586 131.416 72.2224 131.362 72.096C131.311 71.9732 131.235 71.862 131.14 71.769C131.043 71.6772 130.931 71.6036 130.808 71.552C130.681 71.4987 130.545 71.4713 130.408 71.4713C130.271 71.4713 130.135 71.4987 130.008 71.552C129.887 71.6045 129.776 71.678 129.681 71.769C129.585 71.8618 129.51 71.973 129.459 72.096C129.405 72.2224 129.377 72.3586 129.378 72.496H128.24C128.239 72.2113 128.295 71.9293 128.406 71.667C128.515 71.4051 128.674 71.1672 128.875 70.967C129.072 70.7613 129.311 70.5997 129.575 70.493C130.11 70.2783 130.708 70.2783 131.243 70.493C131.507 70.5997 131.746 70.7613 131.943 70.967C132.144 71.1669 132.304 71.4049 132.412 71.667C132.523 71.9293 132.579 72.2113 132.578 72.496C132.572 72.7122 132.522 72.9248 132.431 73.121C132.305 73.398 132.151 73.6617 131.972 73.908C131.623 74.4006 131.241 74.8684 130.827 75.308V75.308Z" fill="#902B8C"/>
<path d="M135.888 70.342C136.253 70.3265 136.616 70.4125 136.936 70.5907C137.255 70.7688 137.519 71.032 137.698 71.351C137.891 71.6932 138.026 72.0648 138.098 72.451C138.186 72.8926 138.229 73.3418 138.226 73.792C138.228 74.2417 138.189 74.6906 138.108 75.133C138.043 75.5201 137.909 75.8925 137.714 76.233C137.54 76.5347 137.292 76.7875 136.994 76.968C136.651 77.1454 136.271 77.2379 135.885 77.2379C135.5 77.2379 135.12 77.1454 134.777 76.968C134.478 76.7861 134.231 76.5315 134.057 76.228C133.863 75.8889 133.73 75.5187 133.663 75.134C133.582 74.693 133.542 74.2454 133.545 73.797C133.543 73.3475 133.581 72.8988 133.658 72.456C133.722 72.07 133.852 71.6979 134.042 71.356C134.214 71.0514 134.463 70.7968 134.763 70.617C135.106 70.424 135.495 70.3289 135.888 70.342V70.342ZM137 74.91C137.033 74.7361 137.057 74.5605 137.072 74.384C137.087 74.198 137.095 74.0003 137.095 73.791C137.098 73.416 137.065 73.0415 136.995 72.673C136.966 72.535 136.928 72.399 136.881 72.266C136.842 72.149 136.787 72.0374 136.72 71.934C136.645 71.7966 136.538 71.6795 136.408 71.593C136.239 71.5178 136.057 71.4789 135.872 71.4789C135.688 71.4789 135.506 71.5178 135.337 71.593C135.21 71.6715 135.106 71.7827 135.037 71.915C134.93 72.1201 134.851 72.3383 134.801 72.564C134.714 72.9669 134.676 73.3789 134.687 73.791C134.687 73.9997 134.695 74.1973 134.711 74.384C134.725 74.5605 134.749 74.7361 134.782 74.91C134.832 75.1685 134.921 75.4177 135.047 75.649C135.119 75.7824 135.221 75.8964 135.347 75.981C135.515 76.0626 135.701 76.1014 135.888 76.094C136.075 76.1028 136.261 76.0639 136.428 75.981C136.562 75.9031 136.671 75.7877 136.741 75.649C136.87 75.4197 136.958 75.1696 137 74.91V74.91Z" fill="#902B8C"/>
<path d="M122.996 16.967H115.647V27.33H122.996V16.967Z" fill="#902B8C"/>
<path d="M147.179 0.699982H140.264L116.392 16.334H123.307L147.179 0.699982Z" fill="#902B8C"/>
<path d="M131.481 22.723L124.167 27.423V61.223H131.477L131.481 22.723Z" fill="#902B8C"/>
<path d="M132.224 61L139.453 56.6L139.375 16.789L147.953 11.204V0.92099L123.6 16.888V27.062L132.173 21.479L132.224 61Z" fill="#902B8C"/>
<path d="M105.767 67.4L113.012 62.973L112.992 17.318L105.727 21.745L105.767 67.4Z" fill="#902B8C"/>
<path d="M97.9 21.2H105.351L112.224 17.06H104.773L97.9 21.2Z" fill="#902B8C"/>
<path d="M97.727 21.829H96.919L82.236 44.594L67.49 21.827H66.682H59.3V67.558H66.687V33.994L82.21 58.194L97.733 33.994V67.559H105.12V21.829H97.727Z" fill="#902B8C"/>
<path d="M56.73 60.39H33.778V67.751H56.73V60.39Z" fill="#902B8C"/>
<path d="M42.647 48.5H33.5V41.108H50.27L42.647 48.5Z" fill="#902B8C"/>
<path d="M56.73 21.881H33.778V29.242H56.73V21.881Z" fill="#902B8C"/>
<path d="M8.10001 48.452L17.351 48.433L24.97 41.111L8.10001 41.1V22.224L0.729004 29.672L0.734985 67.641H8.10001V48.452Z" fill="#902B8C"/>
<path d="M31.562 21.878H8.78299V29.244H31.562V21.878Z" fill="#902B8C"/>
<path d="M52.665 3.37C52.5801 3.35997 52.4941 3.37602 52.4186 3.41604C52.343 3.45605 52.2814 3.51813 52.242 3.594C52.1634 3.78844 52.1272 3.99745 52.136 4.207V7.643C52.1289 7.85158 52.1628 8.05953 52.236 8.255C52.2756 8.33284 52.3385 8.39638 52.416 8.43672C52.4934 8.47706 52.5815 8.4922 52.668 8.48C52.7556 8.49136 52.8446 8.47594 52.9233 8.43578C53.002 8.39563 53.0668 8.33261 53.109 8.255C53.1872 8.0608 53.223 7.85215 53.214 7.643V4.207C53.2239 3.99617 53.1881 3.78569 53.109 3.59C53.0657 3.51297 53.0001 3.4508 52.9209 3.41156C52.8417 3.37232 52.7526 3.35784 52.665 3.37Z" fill="#902B8C"/>
<path d="M54.842 0.208008H27.407C26.7539 0.210117 26.1281 0.470499 25.6663 0.93232C25.2045 1.39414 24.9441 2.01989 24.942 2.673V9.58201C24.9438 10.2352 25.2041 10.8611 25.666 11.323C26.1279 11.7849 26.7538 12.0452 27.407 12.047H54.842C55.4952 12.0452 56.1211 11.7849 56.583 11.323C57.0449 10.8611 57.3052 10.2352 57.307 9.58201V2.673C57.3049 2.01989 57.0445 1.39414 56.5827 0.93232C56.1209 0.470499 55.4951 0.210117 54.842 0.208008V0.208008ZM30.878 9.493H27.653V2.35701H30.86V3.43101H29.23V5.2H30.472V6.29301H29.23V8.42501H30.878V9.493ZM35.468 9.493H34.4L32.937 5.79301V9.493H31.589V2.35701H32.7L34.162 5.79301V2.35701H35.462L35.468 9.493ZM41.406 9.493H39.741L38.454 2.35701H39.8L40.567 7.20201L41.281 2.35701H42.708L41.406 9.493ZM45.006 9.493H43.429V2.35701H45.006V9.493ZM48.689 9.493H47.024L45.737 2.35701H47.085L47.852 7.20201L48.565 2.35701H50L48.689 9.493ZM54.821 7.24601C54.8648 7.87242 54.6879 8.4944 54.321 9.00401C54.106 9.22096 53.8454 9.38736 53.5581 9.49113C53.2708 9.59491 52.964 9.63346 52.66 9.604C52.3581 9.6334 52.0534 9.59477 51.7684 9.49094C51.4834 9.3871 51.2253 9.22072 51.013 9.00401C50.6487 8.49339 50.474 7.87165 50.519 7.24601V4.59401C50.4727 3.97135 50.6476 3.35232 51.013 2.84601C51.2271 2.63262 51.4859 2.46938 51.7707 2.36805C52.0555 2.26672 52.3592 2.22982 52.66 2.26001C52.9632 2.22983 53.2694 2.26708 53.5565 2.36908C53.8437 2.47108 54.1048 2.63531 54.321 2.85001C54.6877 3.3544 54.8647 3.97195 54.821 4.59401V7.24601Z" fill="#902B8C"/>
<path d="M10.655 7.44501C11.3166 7.44501 11.853 6.90865 11.853 6.24701C11.853 5.58537 11.3166 5.04901 10.655 5.04901C9.99336 5.04901 9.457 5.58537 9.457 6.24701C9.457 6.90865 9.99336 7.44501 10.655 7.44501Z" fill="#902B8C"/>
<path d="M7.386 9.82998C7.25442 9.83049 7.12795 9.77911 7.03401 9.68698C6.57825 9.2401 6.21499 8.70782 5.96501 8.12052C5.71502 7.53322 5.5832 6.90242 5.57707 6.26416C5.57094 5.6259 5.69064 4.99268 5.9293 4.40069C6.16796 3.80869 6.5209 3.26953 6.968 2.81399C7.01396 2.76691 7.06877 2.72934 7.12925 2.70344C7.18973 2.67753 7.25472 2.66379 7.32051 2.663C7.3863 2.66221 7.45159 2.67439 7.51268 2.69884C7.57376 2.72328 7.62945 2.75952 7.67652 2.80548C7.7236 2.85144 7.76115 2.90623 7.78706 2.96671C7.81296 3.02719 7.82671 3.09218 7.82749 3.15797C7.82828 3.22376 7.81611 3.28906 7.79167 3.35015C7.76722 3.41123 7.73097 3.4669 7.68501 3.51398C7.33014 3.87514 7.04997 4.30274 6.86055 4.7723C6.67112 5.24186 6.57614 5.74416 6.58107 6.25047C6.58599 6.75678 6.69071 7.25715 6.88923 7.72294C7.08775 8.18873 7.37619 8.61079 7.73802 8.96498C7.81046 9.03438 7.86033 9.12397 7.88118 9.22211C7.90202 9.32024 7.89289 9.42237 7.85493 9.51523C7.81697 9.60809 7.75194 9.68738 7.66831 9.7428C7.58469 9.79822 7.48631 9.8272 7.386 9.82598V9.82998Z" fill="#902B8C"/>
<path d="M13.921 9.83C13.8208 9.83102 13.7225 9.80189 13.6391 9.74639C13.5556 9.6909 13.4908 9.6116 13.4529 9.51878C13.4151 9.42596 13.406 9.32391 13.4269 9.22588C13.4478 9.12784 13.4976 9.03835 13.57 8.969C13.9317 8.61468 14.22 8.19251 14.4183 7.72665C14.6167 7.26079 14.7212 6.76038 14.7259 6.25408C14.7307 5.74777 14.6355 5.2455 14.4459 4.77601C14.2563 4.30652 13.976 3.87903 13.621 3.518C13.5751 3.47086 13.5388 3.41512 13.5144 3.35398C13.49 3.29283 13.4778 3.22748 13.4787 3.16164C13.4795 3.0958 13.4933 3.03078 13.5193 2.97027C13.5452 2.90977 13.5829 2.85496 13.63 2.809C13.6772 2.76304 13.7329 2.72681 13.794 2.70239C13.8552 2.67796 13.9205 2.66583 13.9864 2.66667C14.0522 2.6675 14.1172 2.6813 14.1777 2.70726C14.2383 2.73323 14.293 2.77086 14.339 2.818C14.7861 3.27355 15.1391 3.81272 15.3777 4.40471C15.6164 4.9967 15.7361 5.62992 15.7299 6.26818C15.7238 6.90644 15.592 7.53724 15.342 8.12454C15.092 8.71184 14.7288 9.24413 14.273 9.691C14.1784 9.78167 14.052 9.83158 13.921 9.83V9.83Z" fill="#902B8C"/>
<path d="M4.91699 12.4C4.78541 12.4005 4.65894 12.3491 4.565 12.257C3.76932 11.4767 3.13514 10.5474 2.69872 9.52194C2.26231 8.49653 2.03219 7.39519 2.02151 6.28083C2.01083 5.16646 2.21981 4.06091 2.6365 3.02732C3.05318 1.99374 3.66942 1.05238 4.45001 0.257006C4.54283 0.161793 4.66967 0.10735 4.80264 0.105662C4.9356 0.103974 5.06378 0.155178 5.15899 0.248003C5.2542 0.340829 5.30864 0.467678 5.31033 0.600642C5.31201 0.733605 5.26082 0.86179 5.16799 0.957003C4.47887 1.65802 3.93476 2.48805 3.56677 3.39958C3.19878 4.31112 3.01414 5.28627 3.02343 6.26924C3.03272 7.2522 3.23575 8.2237 3.6209 9.12811C4.00605 10.0325 4.56575 10.8521 5.268 11.54C5.34044 11.6094 5.39031 11.699 5.41116 11.7971C5.43201 11.8953 5.42287 11.9974 5.38491 12.0903C5.34695 12.1831 5.28192 12.2624 5.1983 12.3178C5.11467 12.3732 5.01629 12.4022 4.91598 12.401L4.91699 12.4Z" fill="#902B8C"/>
<path d="M16.39 12.4C16.2897 12.4012 16.1913 12.3722 16.1077 12.3168C16.0241 12.2614 15.959 12.1821 15.9211 12.0892C15.8831 11.9964 15.874 11.8943 15.8948 11.7961C15.9157 11.698 15.9656 11.6084 16.038 11.539C16.7401 10.8511 17.2997 10.0314 17.6848 9.12702C18.0699 8.22261 18.2729 7.25116 18.2822 6.26823C18.2915 5.2853 18.1068 4.31018 17.7389 3.39865C17.371 2.48713 16.827 1.65708 16.138 0.955996C16.092 0.908851 16.0558 0.853117 16.0314 0.791972C16.007 0.730827 15.9948 0.665464 15.9957 0.599627C15.9965 0.53379 16.0103 0.468764 16.0363 0.408259C16.0622 0.347753 16.0999 0.292959 16.147 0.246996C16.1941 0.201034 16.2499 0.164806 16.311 0.140383C16.3722 0.115961 16.4375 0.103819 16.5034 0.104655C16.5692 0.10549 16.6342 0.119284 16.6947 0.145251C16.7552 0.171217 16.81 0.208847 16.856 0.255991C17.6364 1.05149 18.2524 1.99293 18.669 3.02654C19.0855 4.06016 19.2943 5.1657 19.2836 6.28002C19.2728 7.39435 19.0426 8.49564 18.6062 9.52101C18.1698 10.5464 17.5356 11.4757 16.74 12.256C16.6467 12.348 16.521 12.3997 16.39 12.4Z" fill="#902B8C"/>
</svg>
