<svg width="148" height="99" viewBox="0 0 148 99" fill="none" xmlns="http://www.w3.org/2000/svg">
<path d="M118.76 75.308C118.652 75.428 118.546 75.5417 118.442 75.649C118.338 75.7564 118.235 75.8637 118.134 75.971H120.324V77.108H116.144V76.308L116.362 76.108L116.855 75.633C117 75.488 117.165 75.322 117.348 75.133C117.531 74.944 117.72 74.746 117.916 74.533C118.21 74.2253 118.489 73.9025 118.75 73.566C118.906 73.3663 119.05 73.1576 119.181 72.941C119.248 72.8349 119.304 72.7219 119.347 72.604C119.366 72.538 119.376 72.504 119.376 72.496C119.377 72.3586 119.349 72.2224 119.295 72.096C119.244 71.9732 119.168 71.862 119.073 71.769C118.976 71.6772 118.864 71.6036 118.741 71.552C118.615 71.498 118.478 71.4705 118.341 71.471C118.203 71.4699 118.067 71.4975 117.941 71.552C117.82 71.6045 117.709 71.678 117.614 71.769C117.518 71.8618 117.443 71.973 117.392 72.096C117.338 72.2223 117.31 72.3585 117.311 72.496H116.174C116.173 72.2113 116.229 71.9293 116.34 71.667C116.448 71.4049 116.608 71.1669 116.809 70.967C117.006 70.7609 117.245 70.5993 117.509 70.493C118.044 70.2783 118.642 70.2783 119.177 70.493C119.441 70.5997 119.68 70.7613 119.877 70.967C120.078 71.1674 120.237 71.4053 120.346 71.667C120.456 71.9294 120.513 72.2113 120.512 72.496C120.506 72.7122 120.456 72.9248 120.365 73.121C120.239 73.398 120.085 73.6617 119.906 73.908C119.557 74.4006 119.174 74.8684 118.76 75.308Z" fill="#902B8C"/>
<path d="M123.82 70.342C124.185 70.3265 124.548 70.4125 124.868 70.5907C125.187 70.7688 125.451 71.032 125.63 71.351C125.823 71.693 125.958 72.0647 126.03 72.451C126.117 72.8926 126.16 73.3419 126.158 73.792C126.161 74.2418 126.121 74.6907 126.039 75.133C125.974 75.5201 125.841 75.8926 125.646 76.233C125.471 76.5345 125.224 76.7872 124.926 76.968C124.583 77.1454 124.203 77.2379 123.817 77.2379C123.432 77.2379 123.052 77.1454 122.709 76.968C122.41 76.7862 122.162 76.5316 121.988 76.228C121.795 75.8886 121.662 75.5185 121.595 75.134C121.514 74.693 121.474 74.2454 121.476 73.797C121.474 73.3475 121.512 72.8987 121.59 72.456C121.654 72.07 121.784 71.6979 121.974 71.356C122.146 71.0517 122.394 70.7971 122.694 70.617C123.037 70.4241 123.427 70.329 123.82 70.342V70.342ZM124.929 74.91C124.962 74.736 124.986 74.5605 125 74.384C125.016 74.198 125.024 74.0003 125.024 73.791C125.027 73.416 124.993 73.0415 124.924 72.673C124.895 72.5351 124.856 72.3992 124.81 72.266C124.771 72.149 124.716 72.0374 124.649 71.934C124.574 71.7968 124.467 71.6798 124.337 71.593C124.168 71.5178 123.986 71.4789 123.801 71.4789C123.616 71.4789 123.434 71.5178 123.265 71.593C123.138 71.6718 123.035 71.7829 122.965 71.915C122.858 72.1201 122.778 72.3383 122.728 72.564C122.642 72.9671 122.604 73.379 122.615 73.791C122.615 73.9997 122.623 74.1973 122.638 74.384C122.653 74.5605 122.677 74.7361 122.71 74.91C122.76 75.1685 122.849 75.4177 122.975 75.649C123.047 75.7824 123.149 75.8964 123.275 75.981C123.443 76.0626 123.628 76.1014 123.815 76.094C124.002 76.1028 124.187 76.0639 124.355 75.981C124.489 75.9031 124.598 75.7877 124.668 75.649C124.798 75.4199 124.886 75.1697 124.929 74.91V74.91Z" fill="#902B8C"/>
<path d="M129.827 75.308C129.72 75.428 129.614 75.5417 129.509 75.649C129.404 75.7564 129.301 75.8637 129.202 75.971H131.391V77.108H127.211V76.308L127.429 76.108L127.922 75.633C128.067 75.488 128.232 75.322 128.415 75.133C128.598 74.944 128.788 74.746 128.984 74.533C129.278 74.2253 129.556 73.9025 129.817 73.566C129.973 73.366 130.117 73.1573 130.249 72.941C130.315 72.8344 130.371 72.7216 130.415 72.604C130.433 72.538 130.443 72.504 130.443 72.496C130.444 72.3586 130.416 72.2224 130.362 72.096C130.311 71.9732 130.235 71.862 130.14 71.769C130.043 71.6772 129.931 71.6036 129.808 71.552C129.681 71.4987 129.545 71.4713 129.408 71.4713C129.271 71.4713 129.135 71.4987 129.008 71.552C128.887 71.6045 128.776 71.678 128.681 71.769C128.585 71.8618 128.51 71.973 128.459 72.096C128.405 72.2224 128.378 72.3586 128.378 72.496H127.24C127.239 72.2113 127.295 71.9293 127.406 71.667C127.515 71.4051 127.674 71.1672 127.875 70.967C128.072 70.7613 128.311 70.5997 128.575 70.493C129.11 70.2783 129.708 70.2783 130.243 70.493C130.507 70.5997 130.746 70.7613 130.943 70.967C131.144 71.1669 131.304 71.4049 131.412 71.667C131.523 71.9293 131.579 72.2113 131.578 72.496C131.572 72.7122 131.522 72.9248 131.431 73.121C131.305 73.398 131.151 73.6617 130.972 73.908C130.623 74.4006 130.241 74.8684 129.827 75.308V75.308Z" fill="#902B8C"/>
<path d="M134.888 70.342C135.253 70.3265 135.616 70.4125 135.936 70.5907C136.255 70.7688 136.519 71.032 136.698 71.351C136.891 71.6932 137.026 72.0648 137.098 72.451C137.186 72.8926 137.229 73.3418 137.226 73.792C137.228 74.2417 137.189 74.6906 137.108 75.133C137.043 75.5201 136.909 75.8925 136.714 76.233C136.54 76.5347 136.292 76.7875 135.994 76.968C135.651 77.1454 135.271 77.2379 134.885 77.2379C134.5 77.2379 134.12 77.1454 133.777 76.968C133.478 76.7861 133.231 76.5315 133.057 76.228C132.863 75.8889 132.73 75.5187 132.663 75.134C132.582 74.693 132.542 74.2454 132.545 73.797C132.543 73.3475 132.581 72.8988 132.658 72.456C132.722 72.07 132.852 71.6979 133.042 71.356C133.214 71.0514 133.463 70.7968 133.763 70.617C134.106 70.424 134.495 70.3289 134.888 70.342V70.342ZM136 74.91C136.033 74.7361 136.057 74.5605 136.072 74.384C136.087 74.198 136.094 74.0003 136.095 73.791C136.098 73.416 136.065 73.0415 135.995 72.673C135.966 72.535 135.928 72.399 135.881 72.266C135.842 72.149 135.787 72.0374 135.72 71.934C135.645 71.7966 135.538 71.6795 135.408 71.593C135.239 71.5178 135.057 71.4789 134.872 71.4789C134.688 71.4789 134.505 71.5178 134.337 71.593C134.21 71.6715 134.106 71.7827 134.037 71.915C133.93 72.1201 133.851 72.3383 133.801 72.564C133.714 72.9669 133.676 73.3789 133.687 73.791C133.687 73.9997 133.695 74.1973 133.711 74.384C133.725 74.5605 133.749 74.7361 133.782 74.91C133.832 75.1685 133.921 75.4177 134.047 75.649C134.118 75.7824 134.221 75.8964 134.347 75.981C134.515 76.0626 134.701 76.1014 134.888 76.094C135.075 76.1028 135.26 76.0639 135.428 75.981C135.562 75.9031 135.671 75.7877 135.741 75.649C135.87 75.4197 135.958 75.1696 136 74.91V74.91Z" fill="#902B8C"/>
<path d="M81.64 84.814V98.576L112.768 79.829V66.065L81.64 84.814ZM90.621 90.714C90.3318 91.1197 89.9609 91.4604 89.532 91.714C89.1083 91.9729 88.6364 92.143 88.145 92.214C87.6712 92.2815 87.1888 92.2574 86.724 92.143C86.2582 92.0296 85.8192 91.8258 85.432 91.543C85.0306 91.2522 84.6915 90.8839 84.4349 90.4599C84.1783 90.0358 84.0093 89.5645 83.938 89.074C83.869 88.5987 83.8924 88.1145 84.007 87.648C84.1227 87.1742 84.3312 86.728 84.6205 86.3353C84.9097 85.9426 85.2739 85.6111 85.692 85.36C86.1158 85.099 86.5891 84.9288 87.082 84.86C87.5581 84.7913 88.0431 84.8154 88.51 84.931L88.21 86.121C87.8927 86.0413 87.5628 86.0243 87.239 86.071C86.9129 86.1193 86.6001 86.234 86.32 86.408C86.0395 86.572 85.7971 86.794 85.609 87.059C85.2246 87.5956 85.0597 88.2588 85.148 88.913C85.251 89.5635 85.6045 90.1479 86.133 90.541C86.6673 90.9328 87.3348 91.0974 87.99 90.999C88.3115 90.9496 88.6197 90.8356 88.896 90.664C89.1783 90.4983 89.4245 90.2776 89.62 90.015C89.814 89.751 89.954 89.4512 90.032 89.133L91.218 89.418C91.1027 89.8835 90.9001 90.323 90.621 90.713V90.714ZM98.385 85.092C98.2704 85.5577 98.0667 85.9968 97.785 86.385C97.3509 86.9839 96.7475 87.4393 96.0526 87.6927C95.3576 87.9461 94.6028 87.9859 93.885 87.807C93.4198 87.6926 92.9814 87.4888 92.594 87.207C92.1919 86.9176 91.8536 86.5486 91.6 86.123C91.3411 85.6993 91.171 85.2274 91.1 84.736C91.0343 84.2611 91.058 83.7781 91.17 83.312C91.2858 82.847 91.4895 82.4085 91.77 82.02C92.0607 81.6174 92.4294 81.2774 92.854 81.02C93.272 80.7679 93.7356 80.6006 94.2182 80.5276C94.7009 80.4547 95.1932 80.4776 95.667 80.595C96.6223 80.8324 97.4449 81.4382 97.955 82.28C98.2086 82.6968 98.3769 83.1598 98.4502 83.6422C98.5235 84.1246 98.5003 84.6167 98.382 85.09L98.385 85.092ZM105.663 81.798L100.681 79.098L103.208 83.282L102.163 83.912L98.468 77.802L99.602 77.116L104.583 79.816L102.056 75.634L103.1 75L106.793 81.112L105.663 81.798ZM110.292 79.011L109.247 79.645L105.553 73.534L109.668 71.048L110.296 72.097L107.237 73.947L108.128 75.433L110.409 74.056L111.309 74.945L108.768 76.481L110.292 79.011Z" fill="#902B8C"/>
<path d="M96.911 82.914C96.7435 82.6358 96.5234 82.393 96.263 82.199C96.0002 82.0042 95.7009 81.8641 95.383 81.787C95.0631 81.7082 94.731 81.6922 94.405 81.74C94.0829 81.7894 93.7736 81.9019 93.495 82.071C93.215 82.2389 92.9715 82.4613 92.779 82.725C92.3916 83.2601 92.228 83.9252 92.323 84.579C92.3709 84.9021 92.4823 85.2125 92.6508 85.4923C92.8194 85.7721 93.0417 86.0157 93.305 86.209C93.5699 86.4031 93.8707 86.5424 94.19 86.619C94.5068 86.7008 94.837 86.7165 95.16 86.665C95.4788 86.6134 95.7845 86.5003 96.06 86.332C96.3404 86.1644 96.5856 85.944 96.782 85.683C96.9797 85.4203 97.1213 85.1197 97.198 84.8C97.2778 84.4823 97.2935 84.1518 97.244 83.828C97.1915 83.5051 97.0785 83.195 96.911 82.914V82.914Z" fill="#902B8C"/>
<path d="M131.217 20.945H123.241V61.188H131.217V20.945Z" fill="#93344B"/>
<path d="M122.667 16.392H114.69V27.336H122.667V16.392Z" fill="#93344B"/>
<path d="M147.627 0.143005L122.67 16.4V27.334L131.211 21.767L131.224 61.177L139.089 56.394L139.078 16.64L147.607 11.077L147.627 0.143005Z" fill="#EE4D6C"/>
<path d="M139.624 0.143005H147.624L122.688 16.4L114.688 16.394L139.624 0.143005Z" fill="#F2A2B5"/>
<path d="M112.682 16.471L104.816 21.253V67.596L112.683 62.811L112.682 16.471Z" fill="#EE4D6C"/>
<path d="M104.034 16.478L112.682 16.471L104.802 21.254H96.142L104.034 16.478Z" fill="#F2A2B5"/>
<path d="M96.142 21.249L81.642 43.758L67.142 21.247H58.467V67.6H66.414V34.76L81.638 58.393V58.399L96.865 34.764V67.6H104.809V21.249H96.142Z" fill="#902B8C"/>
<path d="M56.493 21.309H32.972V29.254H56.493V21.309Z" fill="#902B8C"/>
<path d="M32.99 40.5L50.534 40.513L42.275 48.458L32.99 48.445" fill="#902B8C"/>
<path d="M56.542 59.73H33.024V67.674H56.542V59.73Z" fill="#902B8C"/>
<path d="M7.951 40.5V29.249V21.295L6.581 22.595L0 29.171V67.652H7.946V48.452H16.967L25.23 40.5H7.951Z" fill="#902B8C"/>
<path d="M31.362 21.304H7.991V29.249H31.362V21.304Z" fill="#EE4D6C"/>
<path d="M51.665 3.37C51.5801 3.35997 51.4942 3.37602 51.4186 3.41604C51.343 3.45605 51.2814 3.51813 51.242 3.594C51.1634 3.78844 51.1273 3.99745 51.136 4.207V7.643C51.1289 7.85158 51.1629 8.05953 51.236 8.255C51.2756 8.33284 51.3385 8.39638 51.416 8.43672C51.4934 8.47706 51.5815 8.4922 51.668 8.48C51.7556 8.49136 51.8447 8.47594 51.9234 8.43578C52.0021 8.39563 52.0668 8.33261 52.109 8.255C52.1855 8.06042 52.2196 7.85179 52.209 7.643V4.207C52.2205 3.99653 52.1864 3.78607 52.109 3.59C52.0657 3.51297 52.0001 3.4508 51.9209 3.41156C51.8417 3.37232 51.7526 3.35784 51.665 3.37V3.37Z" fill="#ED1C24"/>
<path d="M53.842 0.208008H26.407C25.7539 0.210117 25.1281 0.470499 24.6663 0.93232C24.2045 1.39414 23.9441 2.01989 23.942 2.673V9.58201C23.9439 10.2352 24.2042 10.8611 24.666 11.323C25.1279 11.7849 25.7538 12.0452 26.407 12.047H53.842C54.4952 12.0452 55.1211 11.7849 55.583 11.323C56.0449 10.8611 56.3052 10.2352 56.307 9.58201V2.673C56.3049 2.01989 56.0445 1.39414 55.5827 0.93232C55.1209 0.470499 54.4951 0.210117 53.842 0.208008ZM29.878 9.493H26.653V2.35701H29.86V3.43101H28.23V5.2H29.472V6.29301H28.23V8.42501H29.878V9.493ZM34.468 9.493H33.4L31.937 5.79301V9.493H30.591V2.35701H31.7L33.162 5.79301V2.35701H34.462L34.468 9.493ZM40.406 9.493H38.741L37.454 2.35701H38.8L39.567 7.20201L40.281 2.35701H41.71L40.406 9.493ZM44.006 9.493H42.432V2.35701H44.009L44.006 9.493ZM47.689 9.493H46.027L44.74 2.35701H46.088L46.855 7.20201L47.568 2.35701H49L47.689 9.493ZM53.821 7.24601C53.8648 7.87242 53.6879 8.4944 53.321 9.00401C53.106 9.22096 52.8454 9.38736 52.5581 9.49113C52.2708 9.59491 51.9641 9.63346 51.66 9.604C51.3581 9.6334 51.0534 9.59477 50.7684 9.49094C50.4834 9.3871 50.2253 9.22072 50.013 9.00401C49.6487 8.49339 49.474 7.87165 49.519 7.24601V4.59401C49.4727 3.97135 49.6476 3.35232 50.013 2.84601C50.2271 2.63262 50.4859 2.46938 50.7707 2.36805C51.0555 2.26672 51.3592 2.22982 51.66 2.26001C51.9633 2.22983 52.2694 2.26708 52.5566 2.36908C52.8437 2.47108 53.1048 2.63531 53.321 2.85001C53.6877 3.3544 53.8647 3.97195 53.821 4.59401V7.24601Z" fill="#ED1C24"/>
<path d="M9.655 7.44501C10.3166 7.44501 10.853 6.90865 10.853 6.24701C10.853 5.58537 10.3166 5.04901 9.655 5.04901C8.99336 5.04901 8.457 5.58537 8.457 6.24701C8.457 6.90865 8.99336 7.44501 9.655 7.44501Z" fill="#ED1C24"/>
<path d="M6.386 9.82998C6.25442 9.83049 6.12794 9.77911 6.034 9.68698C5.57824 9.2401 5.21499 8.70782 4.965 8.12052C4.71502 7.53322 4.5832 6.90242 4.57707 6.26416C4.57094 5.6259 4.69062 4.99268 4.92928 4.40069C5.16794 3.80869 5.5209 3.26953 5.96799 2.81399C6.01396 2.76691 6.06874 2.72934 6.12922 2.70344C6.1897 2.67753 6.25469 2.66379 6.32048 2.663C6.38627 2.66221 6.45158 2.67439 6.51266 2.69884C6.57374 2.72328 6.62941 2.75952 6.67649 2.80548C6.72357 2.85144 6.76114 2.90623 6.78704 2.96671C6.81295 3.02719 6.82669 3.09218 6.82748 3.15797C6.82827 3.22376 6.81609 3.28906 6.79164 3.35015C6.7672 3.41123 6.73096 3.4669 6.685 3.51398C6.33013 3.87514 6.04996 4.30274 5.86053 4.7723C5.6711 5.24186 5.57613 5.74416 5.58105 6.25047C5.58598 6.75678 5.69069 7.25715 5.88922 7.72294C6.08774 8.18873 6.37617 8.61079 6.73799 8.96498C6.81043 9.03438 6.86032 9.12397 6.88117 9.22211C6.90202 9.32024 6.89287 9.42237 6.8549 9.51523C6.81694 9.60809 6.75192 9.68738 6.6683 9.7428C6.58467 9.79822 6.48631 9.8272 6.386 9.82598V9.82998Z" fill="#EC2127"/>
<path d="M12.921 9.83C12.8208 9.83102 12.7226 9.80189 12.6391 9.74639C12.5556 9.6909 12.4908 9.6116 12.4529 9.51878C12.4151 9.42596 12.406 9.32391 12.4269 9.22588C12.4478 9.12784 12.4976 9.03835 12.57 8.969C12.9317 8.61468 13.22 8.19251 13.4183 7.72665C13.6167 7.26079 13.7212 6.76038 13.7259 6.25408C13.7307 5.74777 13.6355 5.2455 13.4459 4.77601C13.2563 4.30652 12.976 3.87903 12.621 3.518C12.575 3.47086 12.5388 3.41512 12.5144 3.35398C12.49 3.29283 12.4778 3.22748 12.4787 3.16164C12.4795 3.0958 12.4933 3.03078 12.5193 2.97027C12.5452 2.90977 12.5829 2.85496 12.63 2.809C12.6771 2.76304 12.7329 2.72681 12.794 2.70239C12.8552 2.67796 12.9205 2.66583 12.9864 2.66667C13.0522 2.6675 13.1172 2.6813 13.1777 2.70726C13.2382 2.73323 13.293 2.77086 13.339 2.818C13.7861 3.27355 14.1391 3.81272 14.3777 4.40471C14.6164 4.9967 14.7361 5.62992 14.7299 6.26818C14.7238 6.90644 14.592 7.53724 14.342 8.12454C14.092 8.71184 13.7288 9.24413 13.273 9.691C13.1784 9.78167 13.052 9.83158 12.921 9.83V9.83Z" fill="#EC2127"/>
<path d="M3.91701 12.4C3.78543 12.4005 3.65896 12.3491 3.56501 12.257C2.76933 11.4767 2.13517 10.5474 1.69875 9.52194C1.26234 8.49653 1.03222 7.39519 1.02154 6.28083C1.01086 5.16646 1.21983 4.06091 1.63651 3.02732C2.0532 1.99374 2.66943 1.05238 3.45001 0.257006C3.54284 0.161793 3.66968 0.10735 3.80265 0.105662C3.93561 0.103974 4.0638 0.155178 4.15901 0.248003C4.25423 0.340829 4.30866 0.467678 4.31035 0.600642C4.31204 0.733605 4.26084 0.86179 4.16801 0.957003C3.47889 1.65802 2.93477 2.48805 2.56678 3.39958C2.19879 4.31112 2.01416 5.28627 2.02345 6.26924C2.03273 7.2522 2.23576 8.2237 2.62091 9.12811C3.00606 10.0325 3.56577 10.8521 4.26801 11.54C4.34045 11.6094 4.39034 11.699 4.41119 11.7971C4.43204 11.8953 4.42288 11.9974 4.38492 12.0903C4.34695 12.1831 4.28194 12.2624 4.19831 12.3178C4.11469 12.3732 4.01633 12.4022 3.91601 12.401L3.91701 12.4Z" fill="#EC2127"/>
<path d="M15.39 12.4C15.2897 12.4012 15.1913 12.3722 15.1077 12.3168C15.0241 12.2614 14.9591 12.1821 14.9211 12.0892C14.8831 11.9964 14.874 11.8943 14.8948 11.7961C14.9157 11.698 14.9656 11.6084 15.038 11.539C15.7401 10.8511 16.2997 10.0314 16.6848 9.12702C17.0699 8.22261 17.2729 7.25116 17.2822 6.26823C17.2914 5.2853 17.1069 4.31018 16.7389 3.39865C16.371 2.48713 15.827 1.65708 15.138 0.955996C15.092 0.908851 15.0558 0.853117 15.0314 0.791972C15.007 0.730827 14.9948 0.665464 14.9957 0.599627C14.9965 0.53379 15.0103 0.468764 15.0363 0.408259C15.0622 0.347753 15.0999 0.292959 15.147 0.246996C15.1941 0.201034 15.2499 0.164806 15.311 0.140383C15.3722 0.115961 15.4375 0.103819 15.5034 0.104655C15.5692 0.10549 15.6342 0.119284 15.6947 0.145251C15.7552 0.171217 15.81 0.208847 15.856 0.255991C16.6364 1.05149 17.2525 1.99293 17.669 3.02654C18.0855 4.06016 18.2943 5.1657 18.2836 6.28002C18.2728 7.39435 18.0426 8.49564 17.6062 9.52101C17.1698 10.5464 16.5356 11.4757 15.74 12.256C15.6467 12.348 15.521 12.3997 15.39 12.4Z" fill="#EC2127"/>
</svg>
