<?xml version="1.0" encoding="utf-8"?>
<svg viewBox="76.425 76.962 327.049 117.919" xmlns="http://www.w3.org/2000/svg">
  <defs>
    <linearGradient x1="0" y1="0" x2="1" y2="0" gradientUnits="userSpaceOnUse" gradientTransform="matrix(32.452282,-32.452282,-32.452282,-32.452282,464.99252,1638.3582)" spreadMethod="pad" id="linearGradient36">
      <stop style="stop-opacity:1;stop-color:#e694a8" offset="0" id="stop30"/>
      <stop style="stop-opacity:1;stop-color:#e694a8" offset="0.3789" id="stop32"/>
      <stop style="stop-opacity:1;stop-color:#e6b42c" offset="1" id="stop34"/>
    </linearGradient>
    <linearGradient x1="0" y1="0" x2="1" y2="0" gradientUnits="userSpaceOnUse" gradientTransform="matrix(27.824884,-27.824884,-27.824884,-27.824884,433.39655,1621.0078)" spreadMethod="pad" id="linearGradient58">
      <stop style="stop-opacity:1;stop-color:#e694a8" offset="0" id="stop52"/>
      <stop style="stop-opacity:1;stop-color:#e694a8" offset="0.3789" id="stop54"/>
      <stop style="stop-opacity:1;stop-color:#e6b42c" offset="1" id="stop56"/>
    </linearGradient>
    <linearGradient x1="0" y1="0" x2="1" y2="0" gradientUnits="userSpaceOnUse" gradientTransform="matrix(16.41135,16.41135,16.41135,-16.41135,333.63599,1618.8434)" spreadMethod="pad" id="linearGradient100">
      <stop style="stop-opacity:1;stop-color:#e694a8" offset="0" id="stop92"/>
      <stop style="stop-opacity:1;stop-color:#e694a8" offset="0.1632" id="stop94"/>
      <stop style="stop-opacity:1;stop-color:#e694a8" offset="0.2486" id="stop96"/>
      <stop style="stop-opacity:1;stop-color:#e6b42c" offset="1" id="stop98"/>
    </linearGradient>
    <clipPath clipPathUnits="userSpaceOnUse" id="clipPath110">
      <path d="M 0,1757.48 H 1332.283 V 0 H 0 Z" id="path108"/>
    </clipPath>
    <linearGradient x1="0" y1="0" x2="1" y2="0" gradientUnits="userSpaceOnUse" gradientTransform="matrix(8.7399426,-5.0460081,-5.0460081,-8.7399426,515.64191,1653.5962)" spreadMethod="pad" id="linearGradient162">
      <stop style="stop-opacity:1;stop-color:#c34d83" offset="0" id="stop156"/>
      <stop style="stop-opacity:1;stop-color:#f2edb2" offset="0.483" id="stop158"/>
      <stop style="stop-opacity:1;stop-color:#e6b42c" offset="1" id="stop160"/>
    </linearGradient>
    <linearGradient x1="0" y1="0" x2="1" y2="0" gradientUnits="userSpaceOnUse" gradientTransform="matrix(8.7399426,-5.0460081,-5.0460081,-8.7399426,515.56854,1584.4569)" spreadMethod="pad" id="linearGradient184">
      <stop style="stop-opacity:1;stop-color:#c34d83" offset="0" id="stop178"/>
      <stop style="stop-opacity:1;stop-color:#f2edb2" offset="0.483" id="stop180"/>
      <stop style="stop-opacity:1;stop-color:#e6b42c" offset="1" id="stop182"/>
    </linearGradient>
    <linearGradient x1="0" y1="0" x2="1" y2="0" gradientUnits="userSpaceOnUse" gradientTransform="matrix(16.170662,-9.3361359,-9.3361359,-16.170662,536.2569,1596.8256)" spreadMethod="pad" id="linearGradient206">
      <stop style="stop-opacity:1;stop-color:#c34d83" offset="0" id="stop200"/>
      <stop style="stop-opacity:1;stop-color:#f2edb2" offset="0.483" id="stop202"/>
      <stop style="stop-opacity:1;stop-color:#e6b42c" offset="1" id="stop204"/>
    </linearGradient>
    <linearGradient x1="0" y1="0" x2="1" y2="0" gradientUnits="userSpaceOnUse" gradientTransform="matrix(4.8931699,-2.825073,-2.825073,-4.8931699,542.14423,1642.0135)" spreadMethod="pad" id="linearGradient228">
      <stop style="stop-opacity:1;stop-color:#c34d83" offset="0" id="stop222"/>
      <stop style="stop-opacity:1;stop-color:#f2edb2" offset="0.483" id="stop224"/>
      <stop style="stop-opacity:1;stop-color:#e6b42c" offset="1" id="stop226"/>
    </linearGradient>
    <linearGradient x1="0" y1="0" x2="1" y2="0" gradientUnits="userSpaceOnUse" gradientTransform="matrix(2.814651,-1.6250396,-1.6250396,-2.814651,526.58441,1645.9604)" spreadMethod="pad" id="linearGradient250">
      <stop style="stop-opacity:1;stop-color:#c34d83" offset="0" id="stop244"/>
      <stop style="stop-opacity:1;stop-color:#f2edb2" offset="0.483" id="stop246"/>
      <stop style="stop-opacity:1;stop-color:#e6b42c" offset="1" id="stop248"/>
    </linearGradient>
    <linearGradient x1="0" y1="0" x2="1" y2="0" gradientUnits="userSpaceOnUse" gradientTransform="matrix(1.5970383,-0.9220505,-0.9220505,-1.5970383,529.56836,1654.5889)" spreadMethod="pad" id="linearGradient272">
      <stop style="stop-opacity:1;stop-color:#c34d83" offset="0" id="stop266"/>
      <stop style="stop-opacity:1;stop-color:#f2edb2" offset="0.483" id="stop268"/>
      <stop style="stop-opacity:1;stop-color:#e6b42c" offset="1" id="stop270"/>
    </linearGradient>
    <linearGradient x1="0" y1="0" x2="1" y2="0" gradientUnits="userSpaceOnUse" gradientTransform="matrix(6.3642559,-3.6744049,-3.6744049,-6.3642559,509.27325,1647.3503)" spreadMethod="pad" id="linearGradient294">
      <stop style="stop-opacity:1;stop-color:#c34d83" offset="0" id="stop288"/>
      <stop style="stop-opacity:1;stop-color:#f2edb2" offset="0.483" id="stop290"/>
      <stop style="stop-opacity:1;stop-color:#e6b42c" offset="1" id="stop292"/>
    </linearGradient>
    <linearGradient x1="0" y1="0" x2="1" y2="0" gradientUnits="userSpaceOnUse" gradientTransform="matrix(2.9568093,-1.7071147,-1.7071147,-2.9568093,508.54141,1655.3324)" spreadMethod="pad" id="linearGradient316">
      <stop style="stop-opacity:1;stop-color:#c34d83" offset="0" id="stop310"/>
      <stop style="stop-opacity:1;stop-color:#f2edb2" offset="0.483" id="stop312"/>
      <stop style="stop-opacity:1;stop-color:#e6b42c" offset="1" id="stop314"/>
    </linearGradient>
    <linearGradient x1="0" y1="0" x2="1" y2="0" gradientUnits="userSpaceOnUse" gradientTransform="matrix(6.3627992,-3.673564,-3.673564,-6.3627992,524.81018,1589.3091)" spreadMethod="pad" id="linearGradient338">
      <stop style="stop-opacity:1;stop-color:#c34d83" offset="0" id="stop332"/>
      <stop style="stop-opacity:1;stop-color:#f2edb2" offset="0.483" id="stop334"/>
      <stop style="stop-opacity:1;stop-color:#e6b42c" offset="1" id="stop336"/>
    </linearGradient>
    <linearGradient x1="0" y1="0" x2="1" y2="0" gradientUnits="userSpaceOnUse" gradientTransform="matrix(2.905576,-1.6775351,-1.6775351,-2.905576,528.9115,1579.329)" spreadMethod="pad" id="linearGradient360">
      <stop style="stop-opacity:1;stop-color:#c34d83" offset="0" id="stop354"/>
      <stop style="stop-opacity:1;stop-color:#f2edb2" offset="0.483" id="stop356"/>
      <stop style="stop-opacity:1;stop-color:#e6b42c" offset="1" id="stop358"/>
    </linearGradient>
    <linearGradient x1="0" y1="0" x2="1" y2="0" gradientUnits="userSpaceOnUse" gradientTransform="matrix(2.813798,-1.624547,-1.624547,-2.813798,511.04834,1587.9193)" spreadMethod="pad" id="linearGradient382">
      <stop style="stop-opacity:1;stop-color:#c34d83" offset="0" id="stop376"/>
      <stop style="stop-opacity:1;stop-color:#f2edb2" offset="0.483" id="stop378"/>
      <stop style="stop-opacity:1;stop-color:#e6b42c" offset="1" id="stop380"/>
    </linearGradient>
    <linearGradient x1="0" y1="0" x2="1" y2="0" gradientUnits="userSpaceOnUse" gradientTransform="matrix(1.5185995,-0.8767639,-0.8767639,-1.5185995,509.26163,1578.5809)" spreadMethod="pad" id="linearGradient404">
      <stop style="stop-opacity:1;stop-color:#c34d83" offset="0" id="stop398"/>
      <stop style="stop-opacity:1;stop-color:#f2edb2" offset="0.483" id="stop400"/>
      <stop style="stop-opacity:1;stop-color:#e6b42c" offset="1" id="stop402"/>
    </linearGradient>
    <linearGradient x1="0" y1="0" x2="1" y2="0" gradientUnits="userSpaceOnUse" gradientTransform="matrix(4.4432306,-2.5653005,-2.5653005,-4.4432306,543.1543,1632.3477)" spreadMethod="pad" id="linearGradient426">
      <stop style="stop-opacity:1;stop-color:#c34d83" offset="0" id="stop420"/>
      <stop style="stop-opacity:1;stop-color:#f2edb2" offset="0.483" id="stop422"/>
      <stop style="stop-opacity:1;stop-color:#e6b42c" offset="1" id="stop424"/>
    </linearGradient>
    <linearGradient x1="0" y1="0" x2="1" y2="0" gradientUnits="userSpaceOnUse" gradientTransform="matrix(8.018754,-4.6296296,-4.6296296,-8.018754,541.66132,1604.4324)" spreadMethod="pad" id="linearGradient448">
      <stop style="stop-opacity:1;stop-color:#c34d83" offset="0" id="stop442"/>
      <stop style="stop-opacity:1;stop-color:#f2edb2" offset="0.483" id="stop444"/>
      <stop style="stop-opacity:1;stop-color:#e6b42c" offset="1" id="stop446"/>
    </linearGradient>
    <linearGradient x1="0" y1="0" x2="1" y2="0" gradientUnits="userSpaceOnUse" gradientTransform="matrix(11.682579,-6.7449403,-6.7449403,-11.682579,495.97055,1651.6731)" spreadMethod="pad" id="linearGradient470">
      <stop style="stop-opacity:1;stop-color:#c34d83" offset="0" id="stop464"/>
      <stop style="stop-opacity:1;stop-color:#f2edb2" offset="0.483" id="stop466"/>
      <stop style="stop-opacity:1;stop-color:#e6b42c" offset="1" id="stop468"/>
    </linearGradient>
    <linearGradient x1="0" y1="0" x2="1" y2="0" gradientUnits="userSpaceOnUse" gradientTransform="matrix(11.684401,-6.7459917,-6.7459917,-11.684401,532.19226,1588.3282)" spreadMethod="pad" id="linearGradient492">
      <stop style="stop-opacity:1;stop-color:#c34d83" offset="0" id="stop486"/>
      <stop style="stop-opacity:1;stop-color:#f2edb2" offset="0.483" id="stop488"/>
      <stop style="stop-opacity:1;stop-color:#e6b42c" offset="1" id="stop490"/>
    </linearGradient>
    <linearGradient x1="0" y1="0" x2="1" y2="0" gradientUnits="userSpaceOnUse" gradientTransform="matrix(12.970495,-7.4885192,-7.4885192,-12.970495,548.5611,1610.7987)" spreadMethod="pad" id="linearGradient514">
      <stop style="stop-opacity:1;stop-color:#c34d83" offset="0" id="stop508"/>
      <stop style="stop-opacity:1;stop-color:#f2edb2" offset="0.483" id="stop510"/>
      <stop style="stop-opacity:1;stop-color:#e6b42c" offset="1" id="stop512"/>
    </linearGradient>
    <linearGradient x1="0" y1="0" x2="1" y2="0" gradientUnits="userSpaceOnUse" gradientTransform="matrix(9.6991444,-5.5998039,-5.5998039,-9.6991444,550.06384,1628.6984)" spreadMethod="pad" id="linearGradient536">
      <stop style="stop-opacity:1;stop-color:#c34d83" offset="0" id="stop530"/>
      <stop style="stop-opacity:1;stop-color:#f2edb2" offset="0.483" id="stop532"/>
      <stop style="stop-opacity:1;stop-color:#e6b42c" offset="1" id="stop534"/>
    </linearGradient>
    <linearGradient x1="0" y1="0" x2="1" y2="0" gradientUnits="userSpaceOnUse" gradientTransform="matrix(0.7648867,-0.4416076,-0.4416076,-0.7648867,500.98242,1585.1237)" spreadMethod="pad" id="linearGradient558">
      <stop style="stop-opacity:1;stop-color:#c34d83" offset="0" id="stop552"/>
      <stop style="stop-opacity:1;stop-color:#f2edb2" offset="0.483" id="stop554"/>
      <stop style="stop-opacity:1;stop-color:#e6b42c" offset="1" id="stop556"/>
    </linearGradient>
    <linearGradient x1="0" y1="0" x2="1" y2="0" gradientUnits="userSpaceOnUse" gradientTransform="matrix(0.7708848,-0.4450705,-0.4450705,-0.7708848,537.52753,1648.2838)" spreadMethod="pad" id="linearGradient580">
      <stop style="stop-opacity:1;stop-color:#c34d83" offset="0" id="stop574"/>
      <stop style="stop-opacity:1;stop-color:#f2edb2" offset="0.483" id="stop576"/>
      <stop style="stop-opacity:1;stop-color:#e6b42c" offset="1" id="stop578"/>
    </linearGradient>
    <linearGradient x1="0" y1="0" x2="1" y2="0" gradientUnits="userSpaceOnUse" gradientTransform="matrix(14.577756,-8.4164715,-8.4164715,-14.577756,547.15173,1621.0454)" spreadMethod="pad" id="linearGradient602">
      <stop style="stop-opacity:1;stop-color:#c34d83" offset="0" id="stop596"/>
      <stop style="stop-opacity:1;stop-color:#f2edb2" offset="0.483" id="stop598"/>
      <stop style="stop-opacity:1;stop-color:#e6b42c" offset="1" id="stop600"/>
    </linearGradient>
    <linearGradient x1="0" y1="0" x2="1" y2="0" gradientUnits="userSpaceOnUse" gradientTransform="matrix(31.667784,31.667784,31.667784,-31.667784,501.70465,1601.5988)" spreadMethod="pad" id="linearGradient626">
      <stop style="stop-opacity:1;stop-color:#b74c7e" offset="0" id="stop618"/>
      <stop style="stop-opacity:1;stop-color:#e694a8" offset="0.3763" id="stop620"/>
      <stop style="stop-opacity:1;stop-color:#f7dd81" offset="0.9128" id="stop622"/>
      <stop style="stop-opacity:1;stop-color:#f7dd81" offset="1" id="stop624"/>
    </linearGradient>
    <clipPath clipPathUnits="userSpaceOnUse" id="clipPath636">
      <path d="M 0,1757.48 H 1332.283 V 0 H 0 Z" id="path634"/>
    </clipPath>
    <linearGradient x1="0" y1="0" x2="1" y2="0" gradientUnits="userSpaceOnUse" gradientTransform="matrix(18.06296,0,0,-18.06296,502.42661,1602.4302)" spreadMethod="pad" id="linearGradient660">
      <stop style="stop-opacity:1;stop-color:#e694a8" offset="0" id="stop654"/>
      <stop style="stop-opacity:1;stop-color:#e694a8" offset="0.6505" id="stop656"/>
      <stop style="stop-opacity:1;stop-color:#e6b42c" offset="1" id="stop658"/>
    </linearGradient>
    <linearGradient x1="0" y1="0" x2="1" y2="0" gradientUnits="userSpaceOnUse" gradientTransform="matrix(24.719706,-24.719706,-24.719706,-24.719706,501.3812,1630.485)" spreadMethod="pad" id="linearGradient684">
      <stop style="stop-opacity:1;stop-color:#b74c7e" offset="0" id="stop676"/>
      <stop style="stop-opacity:1;stop-color:#b74c7e" offset="0.0323" id="stop678"/>
      <stop style="stop-opacity:1;stop-color:#e694a8" offset="0.3789" id="stop680"/>
      <stop style="stop-opacity:1;stop-color:#e6b42c" offset="1" id="stop682"/>
    </linearGradient>
    <linearGradient x1="0" y1="0" x2="1" y2="0" gradientUnits="userSpaceOnUse" gradientTransform="matrix(-31.582302,0,0,31.582302,533.65521,1615.5309)" spreadMethod="pad" id="linearGradient706">
      <stop style="stop-opacity:1;stop-color:#e6b42c" offset="0" id="stop700"/>
      <stop style="stop-opacity:1;stop-color:#f2edb2" offset="0.5421" id="stop702"/>
      <stop style="stop-opacity:1;stop-color:#dd90a4" offset="1" id="stop704"/>
    </linearGradient>
  </defs>
  <path d="M 266.444 124.634 L 256.56 124.634 L 256.56 108.934 L 266.444 108.934 L 266.444 124.634 Z" style="fill:#272636;fill-opacity:1;fill-rule:nonzero;stroke:none" id="path12"/>
  <g id="g14" transform="matrix(1.333333, 0, 0, -1.333333, 279.957772, 120.276775)">
    <path d="m 0,0 -7.32,-4.657 0.005,-38.466 H 0 Z" style="fill:#272636;fill-opacity:1;fill-rule:nonzero;stroke:none" id="path16"/>
  </g>
  <g id="g18" transform="matrix(1.333333, 0, 0, -1.333333, -348.645518, 2291.258613)">
    <g id="g20">
      <g id="g26">
        <g id="g28">
          <path d="m 473.605,1585.388 8.5,5.178 -0.092,46.808 10.085,6.566 v 11.67 l -28.627,-18.774 v -11.552 l 10.079,6.565 z" style="fill:url(#linearGradient36);stroke:none" id="path38"/>
        </g>
      </g>
    </g>
  </g>
  <g id="g40" transform="matrix(1.333333, 0, 0, -1.333333, -348.645518, 2291.258613)">
    <g id="g42">
      <g id="g48">
        <g id="g50">
          <path d="m 444.08,1578.376 6.493,4.159 -0.023,53.268 -6.517,-4.158 z" style="fill:url(#linearGradient58);stroke:none" id="path60"/>
        </g>
      </g>
    </g>
  </g>
  <g id="g62" transform="matrix(1.333333, 0, 0, -1.333333, 240.602058, 187.971365)">
    <path d="M 0,0 H -10.322 V 34.897 L -27.138,9.624 -44.367,34.911 V 0 h -9.913 v 54.177 l 9.95,0.002 0.061,-0.094 17.168,-26.502 17.151,26.187 1.061,-0.003 H 0 Z" style="fill:#272636;fill-opacity:1;fill-rule:nonzero;stroke:none" id="path64"/>
  </g>
  <path d="M 154.04 188 L 127.786 188 L 127.786 176.46 L 154.04 176.46 L 154.04 188 Z" style="fill:#272636;fill-opacity:1;fill-rule:nonzero;stroke:none" id="path66"/>
  <g id="g68" transform="matrix(1.333333, 0, 0, -1.333333, 142.513676, 158.092458)">
    <path d="M 0,0 H -11.045 V 9.101 H 9.384 Z" style="fill:#272636;fill-opacity:1;fill-rule:nonzero;stroke:none" id="path70"/>
  </g>
  <g id="g72" transform="matrix(1.333333, 0, 0, -1.333333, 153.835698, 127.903973)">
    <path d="M 0,0 H -19.207 V 9.064 H 8.187 Z" style="fill:#272636;fill-opacity:1;fill-rule:nonzero;stroke:none" id="path74"/>
  </g>
  <g id="g76" transform="matrix(1.333333, 0, 0, -1.333333, 88.525141, 188.098806)">
    <path d="M 0,0 H -9.068 L -9.075,44.931 0,54.101 V 31.619 L 20.138,31.6 10.755,22.583 H 10.673 L 0,22.562 Z" style="fill:#272636;fill-opacity:1;fill-rule:nonzero;stroke:none" id="path78"/>
  </g>
  <g id="g80" transform="matrix(1.333333, 0, 0, -1.333333, -348.645518, 2291.258613)">
    <g id="g82">
      <g id="g88">
        <g id="g90">
          <path d="m 353.718,1622.514 h -23.753 v 9.069 h 23.753 z" style="fill:url(#linearGradient100);stroke:none" id="path102"/>
        </g>
      </g>
    </g>
  </g>
  <g id="g104" transform="matrix(1.333333, 0, 0, -1.333333, -348.645518, 2291.258613)">
    <g id="g106" clip-path="url(#clipPath110)">
      <g id="g112" transform="translate(489.7813,1634.8793)">
        <path d="m 0,0 c 0,1.169 -0.903,2.081 -2.055,2.081 -1.16,0 -2.063,-0.912 -2.063,-2.081 0,-0.593 0.275,-1.222 0.726,-1.682 l -0.778,-0.7 c -0.647,0.638 -1.063,1.55 -1.063,2.444 0,1.824 1.372,3.232 3.161,3.232 1.771,0 3.126,-1.426 3.126,-3.276 0,-0.886 -0.381,-1.789 -0.992,-2.391 l -0.868,0.691 C -0.31,-1.24 0,-0.611 0,0" style="fill:#272636;fill-opacity:1;fill-rule:nonzero;stroke:none" id="path114"/>
      </g>
      <g id="g116" transform="translate(487.7001,1630.4521)">
        <path d="m 0,0 c -1.169,0 -2.089,-0.965 -2.089,-2.108 0,-1.133 0.92,-2.071 2.089,-2.071 1.169,0 2.073,0.938 2.073,2.071 C 2.073,-0.957 1.169,0 0,0 m 0,-5.393 c -1.779,0 -3.152,1.435 -3.152,3.303 0,1.868 1.373,3.303 3.152,3.303 1.789,0 3.135,-1.435 3.135,-3.303 C 3.135,-3.958 1.78,-5.393 0,-5.393" style="fill:#272636;fill-opacity:1;fill-rule:nonzero;stroke:none" id="path118"/>
      </g>
      <g id="g120" transform="translate(490.7997,1622.4214)">
        <path d="M 0,0 -4.242,-3.197 H 0 v -1.151 h -6.198 v 1.125 l 4.232,3.187 H -6.198 V 1.125 H 0 Z" style="fill:#272636;fill-opacity:1;fill-rule:nonzero;stroke:none" id="path122"/>
      </g>
      <g id="g124" transform="translate(490.7997,1611.8051)">
        <path d="M 0,0 -1.036,0.009 V 3.091 H -2.71 V 0.283 h -1.035 v 2.808 h -2.453 v 1.186 l 6.198,0 z" style="fill:#272636;fill-opacity:1;fill-rule:nonzero;stroke:none" id="path126"/>
      </g>
      <g id="g128" transform="translate(486.7184,1607.7787)">
        <path d="M 0,0 C -0.108,0.096 -0.21,0.191 -0.306,0.285 -0.402,0.378 -0.499,0.47 -0.595,0.561 v -1.963 h -1.02 v 3.747 h 0.714 L -0.722,2.15 C -0.586,2.008 -0.445,1.861 -0.297,1.708 -0.167,1.578 -0.018,1.43 0.149,1.266 0.316,1.102 0.496,0.932 0.688,0.756 1.034,0.433 1.323,0.184 1.555,0.008 1.787,-0.167 1.974,-0.296 2.116,-0.378 2.258,-0.46 2.358,-0.51 2.418,-0.527 2.477,-0.544 2.51,-0.552 2.516,-0.552 c 0.124,0 0.243,0.024 0.356,0.072 0.114,0.048 0.211,0.115 0.293,0.199 0.083,0.085 0.148,0.185 0.196,0.298 0.048,0.113 0.072,0.232 0.072,0.357 0,0.13 -0.024,0.251 -0.072,0.361 C 3.313,0.845 3.248,0.943 3.165,1.028 3.083,1.113 2.986,1.18 2.872,1.228 2.759,1.276 2.64,1.3 2.516,1.3 V 2.32 C 2.776,2.32 3.024,2.27 3.259,2.171 3.494,2.072 3.702,1.932 3.883,1.75 4.071,1.569 4.212,1.36 4.308,1.121 4.405,0.884 4.453,0.634 4.453,0.374 4.453,0.113 4.405,-0.136 4.308,-0.374 4.212,-0.612 4.071,-0.822 3.883,-1.003 3.702,-1.184 3.494,-1.324 3.259,-1.423 3.024,-1.523 2.776,-1.572 2.516,-1.572 2.345,-1.572 2.158,-1.528 1.955,-1.44 1.751,-1.353 1.515,-1.215 1.249,-1.028 0.881,-0.774 0.464,-0.43 0,0" style="fill:#272636;fill-opacity:1;fill-rule:nonzero;stroke:none" id="path130"/>
      </g>
      <g id="g132" transform="translate(487.0752,1602.0642)">
        <path d="m 0,0 c 0.147,-0.028 0.305,-0.05 0.472,-0.064 0.167,-0.014 0.344,-0.021 0.531,-0.021 0.385,0 0.719,0.028 1.003,0.085 0.13,0.028 0.252,0.062 0.365,0.102 0.113,0.04 0.212,0.088 0.298,0.144 0.141,0.086 0.243,0.179 0.306,0.281 0.067,0.13 0.101,0.286 0.101,0.467 0,0.21 -0.034,0.374 -0.101,0.493 C 2.918,1.589 2.822,1.68 2.686,1.759 2.561,1.833 2.367,1.904 2.103,1.971 1.84,2.039 1.473,2.074 1.003,2.074 0.816,2.074 0.639,2.066 0.472,2.052 0.305,2.038 0.147,2.017 0,1.988 -0.277,1.926 -0.499,1.847 -0.663,1.751 -0.799,1.671 -0.898,1.581 -0.96,1.479 -1.028,1.354 -1.062,1.192 -1.062,0.994 -1.062,0.79 -1.028,0.629 -0.96,0.51 -0.904,0.402 -0.804,0.309 -0.663,0.229 -0.493,0.127 -0.272,0.051 0,0 M 4.096,0.994 C 4.096,0.615 4.016,0.29 3.854,0.021 3.693,-0.248 3.471,-0.464 3.191,-0.629 2.911,-0.793 2.582,-0.914 2.205,-0.99 1.829,-1.067 1.428,-1.105 1.003,-1.105 c -0.425,0 -0.826,0.036 -1.202,0.107 -0.378,0.07 -0.705,0.188 -0.982,0.352 -0.278,0.165 -0.497,0.38 -0.659,0.646 -0.161,0.266 -0.242,0.598 -0.242,0.994 0,0.397 0.081,0.728 0.242,0.994 0.162,0.267 0.383,0.482 0.663,0.646 0.281,0.165 0.608,0.282 0.982,0.353 0.374,0.071 0.773,0.106 1.198,0.106 0.425,0 0.826,-0.034 1.202,-0.102 C 2.582,2.923 2.911,2.808 3.191,2.647 3.471,2.485 3.693,2.27 3.854,2.001 4.016,1.732 4.096,1.397 4.096,0.994" style="fill:#272636;fill-opacity:1;fill-rule:nonzero;stroke:none" id="path134"/>
      </g>
      <g id="g136" transform="translate(486.7184,1597.5647)">
        <path d="M 0,0 C -0.108,0.096 -0.21,0.191 -0.306,0.285 -0.402,0.378 -0.499,0.47 -0.595,0.561 v -1.963 h -1.02 v 3.747 h 0.714 L -0.722,2.15 C -0.586,2.008 -0.445,1.861 -0.297,1.708 -0.167,1.578 -0.018,1.43 0.149,1.266 0.316,1.102 0.496,0.932 0.688,0.756 1.034,0.433 1.323,0.184 1.555,0.008 1.787,-0.167 1.974,-0.296 2.116,-0.378 2.258,-0.46 2.358,-0.51 2.418,-0.527 2.477,-0.544 2.51,-0.552 2.516,-0.552 c 0.124,0 0.243,0.024 0.356,0.072 0.114,0.048 0.211,0.115 0.293,0.199 0.083,0.086 0.148,0.185 0.196,0.298 0.048,0.113 0.072,0.233 0.072,0.357 0,0.13 -0.024,0.251 -0.072,0.361 C 3.313,0.845 3.248,0.943 3.165,1.028 3.083,1.113 2.986,1.18 2.872,1.228 2.759,1.276 2.64,1.3 2.516,1.3 V 2.32 C 2.776,2.32 3.024,2.27 3.259,2.171 3.494,2.072 3.702,1.932 3.883,1.75 4.071,1.569 4.212,1.36 4.308,1.121 4.405,0.884 4.453,0.634 4.453,0.374 4.453,0.113 4.405,-0.136 4.308,-0.374 4.212,-0.612 4.071,-0.822 3.883,-1.003 3.702,-1.184 3.494,-1.324 3.259,-1.423 3.024,-1.523 2.776,-1.572 2.516,-1.572 2.345,-1.572 2.158,-1.528 1.955,-1.44 1.751,-1.353 1.515,-1.215 1.249,-1.028 0.881,-0.774 0.464,-0.43 0,0" style="fill:#272636;fill-opacity:1;fill-rule:nonzero;stroke:none" id="path138"/>
      </g>
      <g id="g140" transform="translate(486.7184,1592.5051)">
        <path d="M 0,0 C -0.108,0.096 -0.21,0.191 -0.306,0.285 -0.402,0.378 -0.499,0.47 -0.595,0.561 v -1.963 h -1.02 v 3.747 h 0.714 L -0.722,2.15 C -0.586,2.008 -0.445,1.861 -0.297,1.708 -0.167,1.578 -0.018,1.43 0.149,1.266 0.316,1.102 0.496,0.932 0.688,0.756 1.034,0.433 1.323,0.184 1.555,0.008 1.787,-0.167 1.974,-0.296 2.116,-0.378 2.258,-0.46 2.358,-0.51 2.418,-0.527 2.477,-0.544 2.51,-0.552 2.516,-0.552 c 0.124,0 0.243,0.024 0.356,0.072 0.114,0.048 0.211,0.115 0.293,0.199 0.083,0.085 0.148,0.185 0.196,0.298 0.048,0.113 0.072,0.232 0.072,0.357 0,0.13 -0.024,0.251 -0.072,0.361 C 3.313,0.845 3.248,0.943 3.165,1.028 3.083,1.113 2.986,1.18 2.872,1.228 2.759,1.276 2.64,1.3 2.516,1.3 V 2.32 C 2.776,2.32 3.024,2.27 3.259,2.171 3.494,2.072 3.702,1.932 3.883,1.75 4.071,1.569 4.212,1.36 4.308,1.121 4.405,0.884 4.453,0.634 4.453,0.374 4.453,0.113 4.405,-0.136 4.308,-0.374 4.212,-0.612 4.071,-0.822 3.883,-1.003 3.702,-1.184 3.494,-1.324 3.259,-1.423 3.024,-1.523 2.776,-1.572 2.516,-1.572 2.345,-1.572 2.158,-1.528 1.955,-1.44 1.751,-1.353 1.515,-1.215 1.249,-1.028 0.881,-0.774 0.464,-0.43 0,0" style="fill:#272636;fill-opacity:1;fill-rule:nonzero;stroke:none" id="path142"/>
      </g>
    </g>
  </g>
  <g id="g144" transform="matrix(1.333333, 0, 0, -1.333333, -348.645518, 2291.258613)">
    <g id="g146">
      <g id="g152">
        <g id="g154">
          <path d="m 519.57,1660.281 v -18.416 c 0,-0.244 0.198,-0.441 0.442,-0.441 v 0 c 0.244,0 0.442,0.197 0.442,0.441 v 0 18.416 c 0,0.244 -0.198,0.442 -0.442,0.442 v 0 c -0.244,0 -0.442,-0.198 -0.442,-0.442" style="fill:url(#linearGradient162);stroke:none" id="path164"/>
        </g>
      </g>
    </g>
  </g>
  <g id="g166" transform="matrix(1.333333, 0, 0, -1.333333, -348.645518, 2291.258613)">
    <g id="g168">
      <g id="g174">
        <g id="g176">
          <path d="m 519.496,1591.141 v -18.414 c 0,-0.245 0.198,-0.443 0.442,-0.443 v 0 c 0.245,0 0.443,0.198 0.443,0.443 v 0 18.414 c 0,0.245 -0.198,0.442 -0.443,0.442 v 0 c -0.244,0 -0.442,-0.197 -0.442,-0.442" style="fill:url(#linearGradient184);stroke:none" id="path186"/>
        </g>
      </g>
    </g>
  </g>
  <g id="g188" transform="matrix(1.333333, 0, 0, -1.333333, -348.645518, 2291.258613)">
    <g id="g190">
      <g id="g196">
        <g id="g198">
          <path d="m 537.519,1598.981 c -0.173,-0.172 -0.173,-0.452 0,-0.625 v 0 l 13.022,-13.022 c 0.086,-0.087 0.199,-0.13 0.312,-0.13 v 0 c 0.113,0 0.226,0.043 0.312,0.13 v 0 c 0.173,0.173 0.173,0.452 0,0.624 v 0 l -13.021,13.023 c -0.086,0.086 -0.199,0.129 -0.313,0.129 v 0 c -0.113,0 -0.226,-0.043 -0.312,-0.129" style="fill:url(#linearGradient206);stroke:none" id="path208"/>
        </g>
      </g>
    </g>
  </g>
  <g id="g210" transform="matrix(1.333333, 0, 0, -1.333333, -348.645518, 2291.258613)">
    <g id="g212">
      <g id="g218">
        <g id="g220">
          <path d="m 550.789,1647.425 -13.022,-13.022 c -0.172,-0.173 -0.172,-0.453 0,-0.626 v 0 c 0.086,-0.086 0.2,-0.129 0.313,-0.129 v 0 c 0.113,0 0.226,0.043 0.313,0.129 v 0 l 13.021,13.022 c 0.173,0.173 0.173,0.453 0,0.626 v 0 c -0.086,0.086 -0.199,0.129 -0.312,0.129 v 0 c -0.113,0 -0.226,-0.043 -0.313,-0.129" style="fill:url(#linearGradient228);stroke:none" id="path230"/>
        </g>
      </g>
    </g>
  </g>
  <g id="g232" transform="matrix(1.333333, 0, 0, -1.333333, -348.645518, 2291.258613)">
    <g id="g234">
      <g id="g240">
        <g id="g242">
          <path d="m 528.746,1649.677 -2.365,-8.829 c -0.063,-0.236 0.078,-0.478 0.314,-0.541 v 0 c 0.038,-0.011 0.076,-0.016 0.114,-0.016 v 0 c 0.195,0 0.374,0.131 0.427,0.328 v 0 l 2.365,8.829 c 0.063,0.236 -0.076,0.479 -0.313,0.542 v 0 c -0.037,0.01 -0.074,0.014 -0.111,0.014 v 0 c -0.195,0 -0.376,-0.129 -0.431,-0.327" style="fill:url(#linearGradient250);stroke:none" id="path252"/>
        </g>
      </g>
    </g>
  </g>
  <g id="g254" transform="matrix(1.333333, 0, 0, -1.333333, -348.645518, 2291.258613)">
    <g id="g256">
      <g id="g262">
        <g id="g264">
          <path d="m 530.372,1655.949 -0.221,-0.857 c -0.053,-0.231 0.089,-0.478 0.327,-0.531 v 0 c 0.036,-0.01 0.071,-0.017 0.106,-0.017 v 0 c 0.204,0 0.381,0.141 0.433,0.336 v 0 l 0.212,0.857 c 0.063,0.23 -0.088,0.477 -0.318,0.53 v 0 c -0.037,0.01 -0.073,0.015 -0.11,0.015 v 0 c -0.193,0 -0.377,-0.133 -0.429,-0.333 m -0.866,-3.421 c -0.036,-0.115 -0.018,-0.239 0.043,-0.336 v 0 c 0.062,-0.106 0.16,-0.176 0.275,-0.203 v 0 c 0.036,-0.01 0.071,-0.017 0.106,-0.017 v 0 c 0.203,0 0.38,0.141 0.433,0.335 v 0 c 0.053,0.239 -0.088,0.477 -0.318,0.539 v 0 c -0.037,0.01 -0.074,0.014 -0.11,0.014 v 0 c -0.2,0 -0.384,-0.137 -0.429,-0.332" style="fill:url(#linearGradient272);stroke:none" id="path274"/>
        </g>
      </g>
    </g>
  </g>
  <g id="g276" transform="matrix(1.333333, 0, 0, -1.333333, -348.645518, 2291.258613)">
    <g id="g278">
      <g id="g284">
        <g id="g286">
          <path d="m 511.157,1650.354 c -0.236,-0.063 -0.376,-0.305 -0.313,-0.541 v 0 l 2.367,-8.829 c 0.054,-0.198 0.233,-0.327 0.428,-0.327 v 0 c 0.038,0 0.076,0 0.114,0.014 v 0 c 0.236,0.063 0.376,0.306 0.313,0.542 v 0 l -2.367,8.829 c -0.053,0.198 -0.23,0.327 -0.427,0.327 v 0 c -0.038,0 -0.076,0 -0.115,-0.015" style="fill:url(#linearGradient294);stroke:none" id="path296"/>
        </g>
      </g>
    </g>
  </g>
  <g id="g298" transform="matrix(1.333333, 0, 0, -1.333333, -348.645518, 2291.258613)">
    <g id="g300">
      <g id="g306">
        <g id="g308">
          <path d="m 509.422,1656.603 c -0.114,-0.027 -0.203,-0.106 -0.264,-0.203 v 0 c -0.062,-0.107 -0.071,-0.221 -0.044,-0.336 v 0 l 0.246,-0.858 c 0.045,-0.185 0.222,-0.318 0.417,-0.318 v 0 c 0.043,0 0.087,0.01 0.123,0.018 v 0 c 0.115,0.035 0.213,0.106 0.265,0.212 v 0 c 0.062,0.097 0.071,0.221 0.044,0.336 v 0 l -0.247,0.848 c -0.051,0.19 -0.228,0.319 -0.417,0.319 v 0 c -0.041,0 -0.082,-0.01 -0.123,-0.018 m 0.955,-3.403 c -0.106,-0.027 -0.203,-0.106 -0.264,-0.203 v 0 c -0.054,-0.106 -0.071,-0.222 -0.036,-0.336 v 0 c 0.053,-0.195 0.229,-0.328 0.424,-0.328 v 0 c 0.044,0 0.079,0.01 0.124,0.018 v 0 c 0.229,0.071 0.362,0.31 0.301,0.549 v 0 c -0.052,0.189 -0.229,0.318 -0.424,0.318 v 0 c -0.041,0 -0.083,-0.01 -0.125,-0.018" style="fill:url(#linearGradient316);stroke:none" id="path318"/>
        </g>
      </g>
    </g>
  </g>
  <g id="g320" transform="matrix(1.333333, 0, 0, -1.333333, -348.645518, 2291.258613)">
    <g id="g322">
      <g id="g328">
        <g id="g330">
          <path d="m 526.695,1592.313 c -0.236,-0.063 -0.377,-0.305 -0.314,-0.541 v 0 l 2.365,-8.829 c 0.054,-0.198 0.233,-0.327 0.428,-0.327 v 0 c 0.038,0 0.076,0 0.114,0.015 v 0 c 0.237,0.063 0.376,0.305 0.313,0.541 v 0 l -2.365,8.829 c -0.053,0.197 -0.232,0.328 -0.425,0.328 v 0 c -0.038,0 -0.077,0 -0.116,-0.016" style="fill:url(#linearGradient338);stroke:none" id="path340"/>
        </g>
      </g>
    </g>
  </g>
  <g id="g342" transform="matrix(1.333333, 0, 0, -1.333333, -348.645518, 2291.258613)">
    <g id="g344">
      <g id="g350">
        <g id="g352">
          <path d="m 529.824,1580.629 c -0.115,-0.027 -0.213,-0.098 -0.275,-0.195 v 0 c -0.061,-0.106 -0.079,-0.221 -0.043,-0.336 v 0 c 0.043,-0.203 0.221,-0.336 0.424,-0.336 v 0 c 0.036,0 0.08,0.01 0.115,0.018 v 0 c 0.23,0.053 0.371,0.3 0.318,0.53 v 0 c -0.052,0.201 -0.235,0.333 -0.43,0.333 v 0 c -0.036,0 -0.073,-0.01 -0.109,-0.014 m 0.654,-2.564 c -0.238,-0.062 -0.38,-0.3 -0.327,-0.539 v 0 l 0.221,-0.857 c 0.053,-0.195 0.23,-0.336 0.424,-0.336 v 0 c 0.044,0 0.08,0.01 0.115,0.017 v 0 c 0.239,0.062 0.381,0.301 0.318,0.539 v 0 l -0.212,0.858 c -0.052,0.194 -0.232,0.332 -0.431,0.332 v 0 c -0.036,0 -0.072,0 -0.108,-0.014" style="fill:url(#linearGradient360);stroke:none" id="path362"/>
        </g>
      </g>
    </g>
  </g>
  <g id="g364" transform="matrix(1.333333, 0, 0, -1.333333, -348.645518, 2291.258613)">
    <g id="g366">
      <g id="g372">
        <g id="g374">
          <path d="m 513.211,1591.636 -2.367,-8.829 c -0.063,-0.236 0.077,-0.478 0.313,-0.541 v 0 c 0.038,-0.011 0.077,-0.016 0.115,-0.016 v 0 c 0.194,0 0.374,0.13 0.427,0.328 v 0 l 2.367,8.829 c 0.063,0.236 -0.077,0.478 -0.313,0.541 v 0 c -0.038,0.01 -0.077,0.015 -0.115,0.015 v 0 c -0.195,0 -0.373,-0.129 -0.427,-0.327" style="fill:url(#linearGradient382);stroke:none" id="path384"/>
        </g>
      </g>
    </g>
  </g>
  <g id="g386" transform="matrix(1.333333, 0, 0, -1.333333, -348.645518, 2291.258613)">
    <g id="g388">
      <g id="g394">
        <g id="g396">
          <path d="m 510.077,1579.965 c -0.035,-0.114 -0.018,-0.238 0.036,-0.335 v 0 c 0.061,-0.107 0.158,-0.178 0.264,-0.213 v 0 c 0.045,-0.01 0.089,-0.017 0.124,-0.017 v 0 c 0.194,0 0.371,0.132 0.425,0.327 v 0 c 0.071,0.23 -0.072,0.477 -0.301,0.539 v 0 c -0.041,0.012 -0.082,0.018 -0.123,0.018 v 0 c -0.192,0 -0.375,-0.129 -0.425,-0.319 m -0.717,-2.554 -0.246,-0.849 c -0.062,-0.238 0.07,-0.478 0.308,-0.548 v 0 c 0.036,-0.01 0.081,-0.017 0.116,-0.017 v 0 c 0.203,0 0.38,0.133 0.424,0.327 v 0 l 0.247,0.849 c 0.062,0.229 -0.071,0.477 -0.309,0.539 v 0 c -0.04,0.012 -0.081,0.018 -0.121,0.018 v 0 c -0.19,0 -0.367,-0.13 -0.419,-0.319" style="fill:url(#linearGradient404);stroke:none" id="path406"/>
        </g>
      </g>
    </g>
  </g>
  <g id="g408" transform="matrix(1.333333, 0, 0, -1.333333, -348.645518, 2291.258613)">
    <g id="g410">
      <g id="g416">
        <g id="g418">
          <path d="m 548.805,1633.52 -7.295,-4.141 c -0.212,-0.121 -0.286,-0.391 -0.165,-0.603 v 0 c 0.081,-0.143 0.23,-0.223 0.384,-0.223 v 0 c 0.074,0 0.149,0.018 0.219,0.057 v 0 l 7.293,4.141 c 0.213,0.121 0.287,0.391 0.166,0.603 v 0 c -0.082,0.143 -0.231,0.224 -0.384,0.224 v 0 c -0.075,0 -0.15,-0.019 -0.218,-0.058" style="fill:url(#linearGradient426);stroke:none" id="path428"/>
        </g>
      </g>
    </g>
  </g>
  <g id="g430" transform="matrix(1.333333, 0, 0, -1.333333, -348.645518, 2291.258613)">
    <g id="g432">
      <g id="g438">
        <g id="g440">
          <path d="m 541.654,1604.421 c -0.121,-0.212 -0.047,-0.482 0.164,-0.603 v 0 l 7.266,-4.167 c 0.069,-0.04 0.145,-0.058 0.219,-0.058 v 0 c 0.153,0 0.303,0.079 0.384,0.222 v 0 c 0.121,0.211 0.048,0.481 -0.163,0.603 v 0 l -7.266,4.166 c -0.07,0.04 -0.146,0.059 -0.221,0.059 v 0 c -0.153,0 -0.302,-0.079 -0.383,-0.222" style="fill:url(#linearGradient448);stroke:none" id="path450"/>
        </g>
      </g>
    </g>
  </g>
  <g id="g452" transform="matrix(1.333333, 0, 0, -1.333333, -348.645518, 2291.258613)">
    <g id="g454">
      <g id="g460">
        <g id="g462">
          <path d="m 497.967,1655.012 c -0.212,-0.124 -0.283,-0.389 -0.159,-0.601 v 0 c 0.079,-0.142 0.23,-0.221 0.38,-0.221 v 0 c 0.071,0 0.15,0.018 0.221,0.053 v 0 c 0.213,0.123 0.283,0.398 0.159,0.601 v 0 c -0.078,0.144 -0.228,0.227 -0.383,0.227 v 0 c -0.074,0 -0.149,-0.019 -0.218,-0.059 m 2.422,-4.217 c -0.212,-0.123 -0.291,-0.398 -0.168,-0.6 v 0 c 0.079,-0.15 0.229,-0.23 0.389,-0.23 v 0 c 0.071,0 0.141,0.027 0.211,0.062 v 0 c 0.213,0.123 0.293,0.389 0.169,0.601 v 0 c -0.084,0.144 -0.233,0.222 -0.386,0.222 v 0 c -0.073,0 -0.147,-0.017 -0.215,-0.055 m 2.413,-4.216 c -0.212,-0.124 -0.283,-0.397 -0.159,-0.61 v 0 c 0.079,-0.141 0.229,-0.221 0.38,-0.221 v 0 c 0.071,0 0.15,0.018 0.221,0.062 v 0 c 0.212,0.123 0.283,0.389 0.158,0.601 v 0 c -0.077,0.144 -0.227,0.223 -0.382,0.223 v 0 c -0.074,0 -0.149,-0.018 -0.218,-0.055 m 2.413,-4.225 c -0.203,-0.115 -0.283,-0.389 -0.159,-0.601 v 0 c 0.08,-0.141 0.23,-0.221 0.38,-0.221 v 0 c 0.08,0 0.151,0.018 0.222,0.062 v 0 c 0.211,0.115 0.281,0.388 0.167,0.601 v 0 c -0.083,0.141 -0.232,0.22 -0.385,0.22 v 0 c -0.077,0 -0.155,-0.02 -0.225,-0.061" style="fill:url(#linearGradient470);stroke:none" id="path472"/>
        </g>
      </g>
    </g>
  </g>
  <g id="g474" transform="matrix(1.333333, 0, 0, -1.333333, -348.645518, 2291.258613)">
    <g id="g476">
      <g id="g482">
        <g id="g484">
          <path d="m 534.19,1591.669 c -0.211,-0.123 -0.291,-0.398 -0.167,-0.609 v 0 c 0.079,-0.143 0.23,-0.222 0.388,-0.222 v 0 c 0.071,0 0.142,0.017 0.212,0.062 v 0 c 0.213,0.124 0.284,0.389 0.169,0.601 v 0 c -0.085,0.144 -0.237,0.223 -0.391,0.223 v 0 c -0.072,0 -0.145,-0.018 -0.211,-0.055 m 2.414,-4.226 c -0.212,-0.114 -0.283,-0.388 -0.169,-0.6 v 0 c 0.089,-0.142 0.239,-0.221 0.39,-0.221 v 0 c 0.079,0 0.15,0.018 0.221,0.062 v 0 c 0.213,0.114 0.283,0.389 0.159,0.601 v 0 c -0.077,0.141 -0.224,0.22 -0.377,0.22 v 0 c -0.076,0 -0.153,-0.02 -0.224,-0.062 m 2.412,-4.216 c -0.202,-0.114 -0.281,-0.389 -0.158,-0.6 v 0 c 0.079,-0.143 0.229,-0.222 0.38,-0.222 v 0 c 0.08,0 0.151,0.018 0.22,0.062 v 0 c 0.213,0.115 0.293,0.389 0.168,0.601 v 0 c -0.082,0.141 -0.231,0.22 -0.384,0.22 v 0 c -0.077,0 -0.155,-0.02 -0.226,-0.061 m 2.423,-4.217 c -0.212,-0.123 -0.283,-0.388 -0.167,-0.6 v 0 c 0.087,-0.141 0.237,-0.221 0.388,-0.221 v 0 c 0.071,0 0.15,0.018 0.221,0.053 v 0 c 0.212,0.124 0.283,0.398 0.159,0.61 v 0 c -0.077,0.137 -0.227,0.218 -0.381,0.218 v 0 c -0.075,0 -0.151,-0.019 -0.22,-0.06" style="fill:url(#linearGradient492);stroke:none" id="path494"/>
        </g>
      </g>
    </g>
  </g>
  <g id="g496" transform="matrix(1.333333, 0, 0, -1.333333, -348.645518, 2291.258613)">
    <g id="g498">
      <g id="g504">
        <g id="g506">
          <path d="m 547.573,1609.056 c -0.062,-0.238 0.08,-0.477 0.318,-0.539 v 0 c 0.035,-0.01 0.071,-0.017 0.116,-0.017 v 0 c 0.194,0 0.371,0.132 0.424,0.326 v 0 c 0.062,0.239 -0.08,0.477 -0.309,0.54 v 0 c -0.042,0.012 -0.084,0.018 -0.125,0.018 v 0 c -0.195,0 -0.373,-0.131 -0.424,-0.328 m 4.703,-1.255 c -0.07,-0.239 0.07,-0.487 0.31,-0.549 v 0 c 0.035,-0.01 0.079,-0.01 0.115,-0.01 v 0 c 0.193,0 0.371,0.125 0.423,0.328 v 0 c 0.062,0.23 -0.079,0.477 -0.309,0.539 v 0 c -0.038,0.01 -0.076,0.015 -0.114,0.015 v 0 c -0.196,0 -0.373,-0.131 -0.425,-0.324 m 4.693,-1.264 c -0.062,-0.23 0.081,-0.478 0.31,-0.539 v 0 c 0.035,-0.01 0.079,-0.018 0.114,-0.018 v 0 c 0.196,0 0.372,0.132 0.425,0.327 v 0 c 0.071,0.238 -0.07,0.486 -0.309,0.548 v 0 c -0.038,0.01 -0.076,0.014 -0.113,0.014 v 0 c -0.197,0 -0.374,-0.132 -0.427,-0.332 m 4.694,-1.256 c -0.061,-0.238 0.079,-0.477 0.311,-0.539 v 0 c 0.043,-0.017 0.079,-0.017 0.114,-0.017 v 0 c 0.194,0 0.38,0.132 0.434,0.327 v 0 c 0.061,0.238 -0.081,0.477 -0.319,0.539 v 0 c -0.038,0.01 -0.076,0.015 -0.114,0.015 v 0 c -0.193,0 -0.374,-0.126 -0.426,-0.325" style="fill:url(#linearGradient514);stroke:none" id="path516"/>
        </g>
      </g>
    </g>
  </g>
  <g id="g518" transform="matrix(1.333333, 0, 0, -1.333333, -348.645518, 2291.258613)">
    <g id="g520">
      <g id="g526">
        <g id="g528">
          <path d="m 561.84,1628.211 c -0.229,-0.061 -0.371,-0.3 -0.309,-0.539 v 0 c 0.053,-0.195 0.23,-0.327 0.424,-0.327 v 0 c 0.044,0 0.08,0.01 0.115,0.017 v 0 c 0.239,0.062 0.381,0.301 0.318,0.539 v 0 c -0.059,0.2 -0.234,0.325 -0.429,0.325 v 0 c -0.039,0 -0.079,-0.01 -0.119,-0.015 m -4.693,-1.255 c -0.24,-0.062 -0.371,-0.31 -0.31,-0.539 v 0 c 0.053,-0.204 0.231,-0.328 0.425,-0.328 v 0 c 0.035,0 0.079,0 0.114,0.01 v 0 c 0.239,0.071 0.372,0.31 0.31,0.548 v 0 c -0.052,0.194 -0.23,0.324 -0.427,0.324 v 0 c -0.037,0 -0.074,0 -0.112,-0.014 m -4.695,-1.255 c -0.238,-0.071 -0.379,-0.31 -0.317,-0.549 v 0 c 0.053,-0.194 0.238,-0.326 0.433,-0.326 v 0 c 0.035,0 0.07,0.01 0.114,0.017 v 0 c 0.23,0.062 0.373,0.3 0.31,0.539 v 0 c -0.052,0.201 -0.229,0.333 -0.426,0.333 v 0 c -0.038,0 -0.076,0 -0.114,-0.014 m -4.701,-1.265 c -0.231,-0.061 -0.373,-0.3 -0.311,-0.539 v 0 c 0.054,-0.194 0.231,-0.327 0.425,-0.327 v 0 c 0.044,0 0.08,0.01 0.115,0.018 v 0 c 0.239,0.062 0.38,0.3 0.318,0.539 v 0 c -0.051,0.199 -0.232,0.324 -0.429,0.324 v 0 c -0.039,0 -0.079,-0.01 -0.118,-0.015" style="fill:url(#linearGradient536);stroke:none" id="path538"/>
        </g>
      </g>
    </g>
  </g>
  <g id="g540" transform="matrix(1.333333, 0, 0, -1.333333, -348.645518, 2291.258613)">
    <g id="g542">
      <g id="g548">
        <g id="g550">
          <path d="m 504.632,1591.439 c -0.124,-0.212 -0.053,-0.478 0.159,-0.601 v 0 c 0.07,-0.044 0.141,-0.062 0.221,-0.062 v 0 c 0.15,0 0.3,0.079 0.379,0.221 v 0 c 0.125,0.212 0.054,0.487 -0.158,0.602 v 0 c -0.071,0.041 -0.148,0.06 -0.224,0.06 v 0 c -0.153,0 -0.3,-0.078 -0.377,-0.22 m -2.431,-4.207 c -0.124,-0.212 -0.053,-0.487 0.159,-0.601 v 0 c 0.07,-0.044 0.141,-0.062 0.221,-0.062 v 0 c 0.15,0 0.3,0.079 0.38,0.221 v 0 c 0.124,0.211 0.053,0.477 -0.159,0.6 v 0 c -0.071,0.042 -0.148,0.061 -0.225,0.061 v 0 c -0.152,0 -0.299,-0.078 -0.376,-0.219 m -2.431,-4.209 c -0.124,-0.22 -0.053,-0.486 0.159,-0.609 v 0 c 0.071,-0.036 0.142,-0.062 0.221,-0.062 v 0 c 0.15,0 0.3,0.079 0.38,0.221 v 0 c 0.124,0.212 0.054,0.486 -0.159,0.61 v 0 c -0.069,0.04 -0.144,0.059 -0.219,0.059 v 0 c -0.154,0 -0.304,-0.081 -0.382,-0.219 m -2.431,-4.215 c -0.124,-0.213 -0.053,-0.478 0.159,-0.601 v 0 c 0.071,-0.044 0.142,-0.062 0.221,-0.062 v 0 c 0.15,0 0.301,0.08 0.38,0.221 v 0 c 0.124,0.212 0.054,0.477 -0.159,0.601 v 0 c -0.071,0.041 -0.148,0.061 -0.224,0.061 v 0 c -0.153,0 -0.3,-0.079 -0.377,-0.22" style="fill:url(#linearGradient558);stroke:none" id="path560"/>
        </g>
      </g>
    </g>
  </g>
  <g id="g562" transform="matrix(1.333333, 0, 0, -1.333333, -348.645518, 2291.258613)">
    <g id="g564">
      <g id="g570">
        <g id="g572">
          <path d="m 541.174,1654.597 c -0.115,-0.212 -0.045,-0.487 0.168,-0.601 v 0 c 0.061,-0.044 0.141,-0.062 0.221,-0.062 v 0 c 0.151,0 0.301,0.079 0.38,0.221 v 0 c 0.123,0.211 0.052,0.486 -0.159,0.6 v 0 c -0.071,0.042 -0.149,0.061 -0.226,0.061 v 0 c -0.153,0 -0.302,-0.078 -0.384,-0.219 m -2.431,-4.209 c -0.124,-0.211 -0.044,-0.486 0.159,-0.6 v 0 c 0.07,-0.045 0.15,-0.062 0.23,-0.062 v 0 c 0.151,0 0.301,0.079 0.38,0.221 v 0 c 0.123,0.212 0.044,0.477 -0.159,0.601 v 0 c -0.071,0.041 -0.149,0.061 -0.225,0.061 v 0 c -0.154,0 -0.303,-0.079 -0.385,-0.221 m -2.431,-4.216 c -0.114,-0.212 -0.044,-0.477 0.159,-0.6 v 0 c 0.07,-0.035 0.15,-0.062 0.221,-0.062 v 0 c 0.16,0 0.31,0.08 0.389,0.22 v 0 c 0.124,0.213 0.044,0.487 -0.159,0.61 v 0 c -0.068,0.04 -0.143,0.059 -0.217,0.059 v 0 c -0.156,0 -0.31,-0.083 -0.393,-0.227 m -2.431,-4.207 c -0.123,-0.212 -0.043,-0.478 0.168,-0.601 v 0 c 0.062,-0.044 0.141,-0.062 0.222,-0.062 v 0 c 0.15,0 0.3,0.079 0.379,0.221 v 0 c 0.124,0.212 0.053,0.487 -0.158,0.601 v 0 c -0.071,0.041 -0.149,0.061 -0.225,0.061 v 0 c -0.154,0 -0.303,-0.079 -0.386,-0.22" style="fill:url(#linearGradient580);stroke:none" id="path582"/>
        </g>
      </g>
    </g>
  </g>
  <g id="g584" transform="matrix(1.333333, 0, 0, -1.333333, -348.645518, 2291.258613)">
    <g id="g586">
      <g id="g592">
        <g id="g594">
          <path d="m 545.233,1617.279 c -0.244,0 -0.442,-0.198 -0.442,-0.442 v 0 c 0,-0.244 0.198,-0.441 0.442,-0.441 v 0 h 18.415 c 0.245,0 0.442,0.197 0.442,0.441 v 0 c 0,0.244 -0.197,0.442 -0.442,0.442 v 0 z" style="fill:url(#linearGradient602);stroke:none" id="path604"/>
        </g>
      </g>
    </g>
  </g>
  <g id="g606" transform="matrix(1.333333, 0, 0, -1.333333, -348.645518, 2291.258613)">
    <g id="g608">
      <g id="g614">
        <g id="g616">
          <path d="m 505.775,1635.015 v -21.734 c 2.414,0.164 8.725,0 10.757,0 v 0 c 3.842,0 6.037,-1.647 6.037,-4.555 v 0 c 0,-3.13 -2.195,-4.886 -6.092,-4.886 v 0 c -3.513,0 -7.026,1.647 -10.043,4.83 v 0 l -4.007,-7.793 c 4.17,-2.909 10.099,-4.83 15.258,-4.83 v 0 c 9.494,0 15.695,5.269 15.695,13.391 v 0 c 0,6.861 -5.871,11.636 -14.927,11.636 v 0 c -0.768,0 -2.573,0 -3.397,-0.054 v 0 l 0.052,5.802 h 16.506 l 0.011,8.193 z" style="fill:url(#linearGradient626);stroke:none" id="path628"/>
        </g>
      </g>
    </g>
  </g>
  <g id="g630" transform="matrix(1.333333, 0, 0, -1.333333, -348.645518, 2291.258613)">
    <g id="g632" clip-path="url(#clipPath636)">
      <g id="g638" transform="translate(531.3381,1631.4374)">
        <path d="M 0,0 C 0,0 -0.984,-2.39 -3.218,-3.43 -5.451,-4.47 -9.797,-4.732 -9.797,-4.732 H 0 Z" style="fill:#f7e4a6;fill-opacity:1;fill-rule:nonzero;stroke:none" id="path640"/>
      </g>
    </g>
  </g>
  <g id="g642" transform="matrix(1.333333, 0, 0, -1.333333, -348.645518, 2291.258613)">
    <g id="g644">
      <g id="g650">
        <g id="g652">
          <path d="m 502.427,1600.948 c 4.17,-2.909 10.099,-4.829 15.258,-4.829 v 0 c 0.971,0 1.906,0.058 2.805,0.165 v 0 c -4.44,0.519 -10.166,9.351 -10.166,9.351 v 0 c -1.356,0.779 -2.665,1.814 -3.89,3.107 v 0 z" style="fill:url(#linearGradient660);stroke:none" id="path662"/>
        </g>
      </g>
    </g>
  </g>
  <g id="g664" transform="matrix(1.333333, 0, 0, -1.333333, -348.645518, 2291.258613)">
    <g id="g666">
      <g id="g672">
        <g id="g674">
          <path d="m 505.831,1613.242 c 2.195,0.165 8.698,0 10.729,0 v 0 c 3.842,0 6.009,-1.536 6.009,-4.445 v 0 c 0,-2.314 -1.204,-3.875 -3.406,-4.532 v 0 c 0.928,-0.232 1.865,-0.353 2.802,-0.353 v 0 c 3.897,0 6.946,4.663 6.843,7.79 v 0 c -0.348,10.657 -11.28,9.441 -11.28,9.441 v 0 c -0.311,0 -0.768,0.013 -1.199,0.029 v 0 c -0.533,0.019 -1.028,0.038 -1.158,0.025 v 0 l 0.033,5.08 c -1.588,6.398 -9.222,8.809 -9.222,8.809 v 0 z" style="fill:url(#linearGradient684);stroke:none" id="path686"/>
        </g>
      </g>
    </g>
  </g>
  <g id="g688" transform="matrix(1.333333, 0, 0, -1.333333, -348.645518, 2291.258613)">
    <g id="g690">
      <g id="g696">
        <g id="g698">
          <path d="m 505.5,1635.289 v -22.302 l 0.294,0.02 c 1.738,0.119 5.504,0.065 8.254,0.026 v 0 c 1.038,-0.014 1.924,-0.027 2.484,-0.027 v 0 c 3.716,0 5.762,-1.52 5.762,-4.28 v 0 c 0,-2.974 -2.066,-4.611 -5.817,-4.611 v 0 c -3.497,0 -6.901,1.641 -9.844,4.744 v 0 l -0.267,0.281 -4.293,-8.351 0.196,-0.137 c 4.251,-2.964 10.302,-4.879 15.416,-4.879 v 0 c 9.701,0 15.97,5.364 15.97,13.665 v 0 c 0,7.125 -6.109,11.91 -15.202,11.91 v 0 c -0.691,0 -2.21,0 -3.119,-0.039 v 0 l 0.046,5.238 h 16.508 l 0.011,8.742 z m 0.549,-0.549 h 25.3 l -0.009,-7.644 h -16.504 l -0.057,-6.37 0.295,0.019 c 0.815,0.054 2.611,0.054 3.379,0.054 v 0 c 8.764,0 14.653,-4.565 14.653,-11.361 v 0 c 0,-7.967 -6.053,-13.116 -15.421,-13.116 v 0 c -4.932,0 -10.751,1.818 -14.905,4.644 v 0 l 3.722,7.238 c 2.988,-3.036 6.43,-4.638 9.975,-4.638 v 0 c 4.045,0 6.366,1.881 6.366,5.16 v 0 c 0,3.069 -2.301,4.829 -6.311,4.829 v 0 c -0.558,0 -1.44,0.012 -2.476,0.027 v 0 c -2.616,0.037 -6.146,0.087 -8.007,-0.011 v 0 z" style="fill:url(#linearGradient706);stroke:none" id="path708"/>
        </g>
      </g>
    </g>
  </g>
</svg>