<svg width="148" height="99" viewBox="0 0 148 99" fill="none" xmlns="http://www.w3.org/2000/svg">
<path d="M82.234 85.1929V98.976L113.411 80.2V66.4139L82.234 85.1929ZM91.229 91.101C90.9402 91.507 90.5692 91.8478 90.14 92.101C89.7154 92.3601 89.2424 92.5302 88.75 92.601C88.2752 92.6683 87.7918 92.6442 87.326 92.5299C86.8598 92.4167 86.4205 92.2128 86.033 91.9299C85.6301 91.6392 85.2896 91.2706 85.0319 90.8457C84.7742 90.4209 84.6046 89.9486 84.533 89.4569C84.4645 88.9809 84.4879 88.4961 84.602 88.0289C84.7194 87.5636 84.9229 87.1244 85.202 86.7339C85.4962 86.3323 85.8665 85.9925 86.292 85.7339C86.7166 85.4731 87.1905 85.3029 87.684 85.2339C88.1605 85.165 88.6458 85.1895 89.113 85.3059L88.818 86.4969C88.4999 86.4176 88.1694 86.401 87.845 86.4479C87.5181 86.496 87.2047 86.6107 86.924 86.7849C86.6433 86.95 86.4006 87.1725 86.212 87.4379C85.8263 87.9743 85.6613 88.6384 85.751 89.2929C85.7989 89.6159 85.9119 89.9258 86.083 90.2039C86.2503 90.4855 86.4724 90.7306 86.736 90.9249C87.0015 91.1192 87.3025 91.2595 87.622 91.338C87.9407 91.418 88.2722 91.4333 88.597 91.3829C88.9191 91.3335 89.228 91.2196 89.505 91.0479C89.7883 90.8824 90.0351 90.6611 90.2303 90.3975C90.4256 90.1338 90.5653 89.8332 90.641 89.5139L91.83 89.7999C91.7132 90.2672 91.5093 90.7082 91.229 91.0999V91.101ZM99.006 85.4699C98.8918 85.9379 98.6881 86.3794 98.406 86.7699C97.9714 87.3684 97.3681 87.8235 96.6733 88.0772C95.9786 88.3309 95.224 88.3715 94.506 88.1939C94.0403 88.0791 93.6013 87.8754 93.213 87.5939C92.8115 87.3014 92.472 86.9319 92.2145 86.507C91.957 86.0821 91.7866 85.6103 91.713 85.1189C91.6469 84.6431 91.6703 84.1591 91.782 83.6919C92.0186 82.7338 92.6256 81.9088 93.47 81.3979C93.8951 81.1398 94.3678 80.9698 94.86 80.8979C95.3358 80.8307 95.8201 80.8544 96.287 80.9679C96.753 81.0826 97.1924 81.2863 97.581 81.5679C97.9847 81.8582 98.325 82.2277 98.581 82.6539C98.8384 83.0791 99.0084 83.5513 99.081 84.0429C99.1465 84.5191 99.121 85.0033 99.006 85.4699V85.4699ZM106.295 82.17L101.305 79.4699L103.836 83.6609L102.789 84.2919L99.089 78.1729L100.224 77.4859L105.212 80.1859L102.682 75.9999L103.735 75.3659L107.435 81.4879L106.295 82.17ZM110.933 79.3779L109.886 80.0139L106.186 73.8929L110.306 71.4019L110.935 72.4529L107.871 74.3069L108.764 75.7939L111.049 74.4159L111.949 75.3049L109.404 76.8439L110.933 79.3779Z" fill="white"/>
<path d="M97.529 83.2899C97.3616 83.0111 97.1415 82.7676 96.881 82.5729C96.6174 82.3781 96.3176 82.238 95.999 82.1609C95.6789 82.0816 95.3463 82.0656 95.02 82.1139C94.3679 82.2146 93.7819 82.569 93.39 83.0999C93.0027 83.6363 92.8392 84.3022 92.934 84.9569C92.9823 85.2807 93.0941 85.5917 93.2632 85.8719C93.4323 86.1522 93.6552 86.3962 93.919 86.5899C94.1842 86.7837 94.4849 86.9234 94.804 87.0009C95.1215 87.0823 95.4523 87.0979 95.776 87.0469C96.0971 86.9953 96.4051 86.8819 96.683 86.7129C96.963 86.5444 97.2081 86.3237 97.4051 86.0629C97.6038 85.7999 97.7457 85.4986 97.822 85.1779C97.9014 84.8601 97.917 84.5298 97.868 84.2059C97.8144 83.8818 97.6993 83.5709 97.529 83.2899V83.2899Z" fill="white"/>
<path d="M119.76 75.3079C119.652 75.4279 119.546 75.5416 119.442 75.6489C119.338 75.7562 119.235 75.8636 119.134 75.9709H121.324V77.1079H117.144V76.3079L117.362 76.1079L117.855 75.6329C118 75.4879 118.165 75.3219 118.348 75.1329C118.531 74.9439 118.72 74.7459 118.916 74.5329C119.21 74.2251 119.489 73.9024 119.75 73.5659C119.906 73.3662 120.05 73.1575 120.181 72.9409C120.248 72.8348 120.304 72.7218 120.347 72.6039C120.366 72.5379 120.376 72.5039 120.376 72.4959C120.377 72.3585 120.349 72.2224 120.295 72.0959C120.244 71.9731 120.168 71.8619 120.073 71.7689C119.976 71.6771 119.864 71.6036 119.741 71.5519C119.615 71.4979 119.478 71.4704 119.341 71.4709C119.203 71.4699 119.067 71.4975 118.941 71.5519C118.82 71.6044 118.709 71.6779 118.614 71.7689C118.519 71.8617 118.443 71.973 118.392 72.0959C118.338 72.2222 118.31 72.3584 118.311 72.4959H117.174C117.173 72.2112 117.229 71.9291 117.34 71.6669C117.448 71.4048 117.608 71.1668 117.809 70.9669C118.006 70.7609 118.245 70.5993 118.509 70.4929C119.044 70.2783 119.642 70.2783 120.177 70.4929C120.441 70.5997 120.68 70.7612 120.877 70.9669C121.078 71.1673 121.237 71.4051 121.346 71.6669C121.456 71.9293 121.513 72.2113 121.512 72.4959C121.506 72.7121 121.456 72.9247 121.365 73.1209C121.239 73.3979 121.085 73.6616 120.906 73.9079C120.557 74.4005 120.174 74.8683 119.76 75.3079Z" fill="white"/>
<path d="M124.82 70.342C125.186 70.3265 125.548 70.4125 125.868 70.5907C126.187 70.7688 126.451 71.032 126.63 71.351C126.823 71.693 126.959 72.0647 127.03 72.451C127.117 72.8926 127.16 73.3418 127.158 73.792C127.161 74.2417 127.121 74.6907 127.039 75.133C126.974 75.5201 126.841 75.8926 126.646 76.233C126.471 76.5344 126.224 76.7872 125.926 76.968C125.583 77.1453 125.203 77.2379 124.818 77.2379C124.432 77.2379 124.052 77.1453 123.709 76.968C123.41 76.7861 123.162 76.5316 122.988 76.228C122.795 75.8886 122.662 75.5185 122.595 75.134C122.514 74.693 122.474 74.2454 122.476 73.797C122.474 73.3475 122.512 72.8987 122.59 72.456C122.654 72.07 122.784 71.6979 122.974 71.356C123.146 71.0516 123.394 70.7971 123.694 70.617C124.037 70.4241 124.427 70.329 124.82 70.342V70.342ZM125.929 74.91C125.962 74.736 125.986 74.5604 126 74.384C126.016 74.198 126.024 74.0003 126.024 73.791C126.029 73.4161 125.997 73.0417 125.929 72.673C125.9 72.5351 125.861 72.3991 125.815 72.266C125.776 72.149 125.721 72.0374 125.654 71.934C125.579 71.7968 125.472 71.6798 125.342 71.593C125.173 71.5177 124.991 71.4789 124.806 71.4789C124.621 71.4789 124.439 71.5177 124.27 71.593C124.143 71.6717 124.04 71.7829 123.97 71.915C123.863 72.1201 123.783 72.3382 123.733 72.564C123.647 72.9671 123.609 73.3789 123.62 73.791C123.62 74.0003 123.628 74.198 123.643 74.384C123.658 74.5605 123.682 74.736 123.715 74.91C123.765 75.1684 123.854 75.4177 123.98 75.649C124.051 75.7824 124.155 75.8964 124.28 75.981C124.448 76.0626 124.633 76.1014 124.82 76.094C125.007 76.1028 125.193 76.0639 125.36 75.981C125.494 75.903 125.603 75.7877 125.673 75.649C125.801 75.4195 125.888 75.1694 125.929 74.91V74.91Z" fill="white"/>
<path d="M130.827 75.3079C130.72 75.4279 130.614 75.5416 130.509 75.6489C130.404 75.7562 130.302 75.8636 130.202 75.9709H132.391V77.1079H128.211V76.3079L128.429 76.1079L128.922 75.6329C129.067 75.4879 129.232 75.3219 129.415 75.1329C129.598 74.9439 129.788 74.7459 129.984 74.5329C130.278 74.2252 130.556 73.9024 130.817 73.5659C130.973 73.3659 131.117 73.1572 131.249 72.9409C131.315 72.8344 131.371 72.7215 131.415 72.6039C131.433 72.5379 131.443 72.5039 131.443 72.4959C131.444 72.3585 131.416 72.2224 131.362 72.0959C131.311 71.9731 131.235 71.8619 131.14 71.7689C131.043 71.6771 130.931 71.6036 130.808 71.5519C130.681 71.4986 130.545 71.4712 130.408 71.4712C130.271 71.4712 130.135 71.4986 130.008 71.5519C129.887 71.6044 129.776 71.6779 129.681 71.7689C129.586 71.8617 129.51 71.973 129.459 72.0959C129.405 72.2224 129.377 72.3585 129.378 72.4959H128.24C128.239 72.2112 128.295 71.9291 128.406 71.6669C128.515 71.405 128.674 71.1671 128.875 70.9669C129.072 70.7612 129.311 70.5997 129.575 70.4929C130.11 70.2783 130.708 70.2783 131.243 70.4929C131.507 70.5997 131.746 70.7612 131.943 70.9669C132.144 71.1668 132.304 71.4048 132.412 71.6669C132.523 71.9291 132.579 72.2112 132.578 72.4959C132.572 72.7121 132.522 72.9247 132.431 73.1209C132.305 73.3979 132.151 73.6616 131.972 73.9079C131.623 74.4005 131.241 74.8683 130.827 75.3079V75.3079Z" fill="white"/>
<path d="M135.888 70.342C136.253 70.3265 136.616 70.4125 136.936 70.5907C137.255 70.7688 137.519 71.032 137.698 71.351C137.891 71.6932 138.026 72.0648 138.098 72.451C138.186 72.8925 138.229 73.3418 138.226 73.792C138.228 74.2417 138.189 74.6906 138.108 75.133C138.043 75.5201 137.909 75.8925 137.714 76.233C137.54 76.5347 137.292 76.7875 136.994 76.968C136.651 77.1453 136.271 77.2379 135.885 77.2379C135.5 77.2379 135.12 77.1453 134.777 76.968C134.478 76.7861 134.231 76.5315 134.057 76.228C133.863 75.8889 133.73 75.5187 133.663 75.134C133.582 74.693 133.542 74.2454 133.545 73.797C133.543 73.3475 133.581 72.8988 133.658 72.456C133.722 72.07 133.852 71.6979 134.042 71.356C134.214 71.0513 134.463 70.7967 134.763 70.617C135.106 70.424 135.495 70.3289 135.888 70.342ZM137 74.91C137.033 74.7361 137.057 74.5605 137.072 74.384C137.087 74.198 137.095 74.0003 137.095 73.791C137.098 73.4159 137.065 73.0415 136.995 72.673C136.966 72.535 136.928 72.399 136.881 72.266C136.842 72.149 136.787 72.0374 136.72 71.934C136.645 71.7966 136.538 71.6795 136.408 71.593C136.24 71.5178 136.057 71.4789 135.872 71.4789C135.688 71.4789 135.505 71.5178 135.337 71.593C135.21 71.6715 135.106 71.7827 135.037 71.915C134.93 72.1201 134.851 72.3383 134.801 72.564C134.714 72.9669 134.676 73.3789 134.687 73.791C134.687 74.0003 134.695 74.198 134.711 74.384C134.725 74.5605 134.749 74.7361 134.782 74.91C134.832 75.1684 134.921 75.4177 135.047 75.649C135.119 75.7824 135.221 75.8963 135.347 75.981C135.515 76.0626 135.701 76.1014 135.888 76.094C136.075 76.1028 136.26 76.0639 136.428 75.981C136.562 75.903 136.671 75.7877 136.741 75.649C136.87 75.4197 136.958 75.1696 137 74.91V74.91Z" fill="white"/>
<path d="M122.996 16.9669H115.647V27.3299H122.996V16.9669Z" fill="white"/>
<path d="M147.179 0.699951H140.264L116.392 16.334H123.307L147.179 0.699951Z" fill="white"/>
<path d="M131.481 22.7229L124.167 27.4229V61.2229H131.477L131.481 22.7229Z" fill="white"/>
<path d="M132.224 60.9999L139.453 56.5999L139.375 16.7889L147.953 11.2039V0.920898L123.6 16.8879V27.0619L132.173 21.4789L132.224 60.9999Z" fill="white"/>
<path d="M105.767 67.3999L113.012 62.9729L112.992 17.3179L105.727 21.7449L105.767 67.3999Z" fill="white"/>
<path d="M97.9 21.2H105.351L112.224 17.0599H104.773L97.9 21.2Z" fill="white"/>
<path d="M97.727 21.829H96.919L82.236 44.595L67.49 21.827H66.682H59.3V67.558H66.687V33.994L82.21 58.194L97.733 33.994V67.559H105.12V21.829H97.727Z" fill="white"/>
<path d="M56.73 60.39H33.778V67.751H56.73V60.39Z" fill="white"/>
<path d="M42.647 48.5H33.5V41.108H50.27L42.647 48.5Z" fill="white"/>
<path d="M56.73 21.881H33.778V29.242H56.73V21.881Z" fill="white"/>
<path d="M8.09998 48.4519L17.351 48.433L24.97 41.1109L8.09998 41.0999V22.2239L0.729004 29.6719L0.734985 67.6409H8.09998V48.4519Z" fill="white"/>
<path d="M31.562 21.8779H8.78302V29.2439H31.562V21.8779Z" fill="white"/>
<path d="M52.665 3.37003C52.5801 3.36 52.4941 3.37607 52.4186 3.41608C52.343 3.4561 52.2814 3.51816 52.242 3.59403C52.1634 3.78847 52.1272 3.99748 52.136 4.20704V7.64304C52.1289 7.85162 52.1629 8.05957 52.236 8.25504C52.2756 8.33289 52.3385 8.3964 52.416 8.43674C52.4934 8.47708 52.5816 8.49224 52.668 8.48005C52.7557 8.4914 52.8446 8.47598 52.9233 8.43583C53.002 8.39567 53.0668 8.33265 53.109 8.25504C53.1855 8.06047 53.2196 7.85183 53.209 7.64304V4.20704C53.2205 3.99657 53.1864 3.7861 53.109 3.59003C53.0657 3.51301 53.0001 3.45084 52.9209 3.4116C52.8417 3.37236 52.7525 3.35787 52.665 3.37003V3.37003Z" fill="white"/>
<path d="M54.842 0.208008H27.407C26.7539 0.210117 26.1281 0.470491 25.6663 0.932312C25.2045 1.39413 24.9441 2.01989 24.942 2.673V9.582C24.9439 10.2352 25.2041 10.8611 25.666 11.323C26.1279 11.7848 26.7538 12.0452 27.407 12.047H54.842C55.4952 12.0452 56.1211 11.7848 56.583 11.323C57.0449 10.8611 57.3052 10.2352 57.307 9.582V2.673C57.3049 2.01989 57.0445 1.39413 56.5827 0.932312C56.1209 0.470491 55.4951 0.210117 54.842 0.208008V0.208008ZM30.878 9.49301H27.653V2.35699H30.86V3.431H29.23V5.20001H30.472V6.29999H29.23V8.43201H30.878V9.49301ZM35.468 9.49301H34.4L32.937 5.793V9.49301H31.589V2.35699H32.7L34.162 5.793V2.35699H35.462L35.468 9.49301ZM41.406 9.49301H39.741L38.454 2.35699H39.8L40.567 7.202L41.281 2.35699H42.708L41.406 9.49301ZM45.006 9.49301H43.429V2.35699H45.006V9.49301ZM48.689 9.49301H47.024L45.737 2.35699H47.085L47.852 7.202L48.565 2.35699H50L48.689 9.49301ZM54.821 7.246C54.8648 7.87242 54.6879 8.49439 54.321 9.004C54.106 9.22095 53.8454 9.38734 53.5581 9.49112C53.2708 9.5949 52.964 9.63346 52.66 9.604C52.3581 9.6334 52.0534 9.59477 51.7684 9.49094C51.4834 9.3871 51.2253 9.22071 51.013 9.004C50.6487 8.49338 50.474 7.87164 50.519 7.246V4.59399C50.4727 3.97133 50.6476 3.35232 51.013 2.84601C51.2271 2.63256 51.4858 2.46929 51.7706 2.36795C52.0554 2.26662 52.3592 2.22975 52.66 2.26001C52.9632 2.22983 53.2694 2.26708 53.5565 2.36908C53.8437 2.47108 54.1047 2.63531 54.321 2.85001C54.6877 3.3544 54.8647 3.97194 54.821 4.59399V7.246Z" fill="white"/>
<path d="M10.655 7.44495C11.3166 7.44495 11.853 6.90859 11.853 6.24695C11.853 5.58531 11.3166 5.04895 10.655 5.04895C9.99333 5.04895 9.45697 5.58531 9.45697 6.24695C9.45697 6.90859 9.99333 7.44495 10.655 7.44495Z" fill="white"/>
<path d="M7.38597 9.82996C7.25439 9.83047 7.12792 9.77911 7.03398 9.68699C6.57822 9.24011 6.21499 8.70782 5.96501 8.12052C5.71502 7.53322 5.5832 6.9024 5.57707 6.26414C5.57094 5.62587 5.69058 4.99266 5.92924 4.40067C6.1679 3.80868 6.5209 3.26951 6.968 2.81397C7.06082 2.71889 7.18761 2.66459 7.32048 2.663C7.45335 2.66141 7.58141 2.71266 7.67649 2.80549C7.77157 2.89831 7.8259 3.0251 7.82749 3.15796C7.82909 3.29083 7.7778 3.4189 7.68498 3.51398C7.33011 3.87514 7.04994 4.30272 6.86051 4.77228C6.67109 5.24184 6.57611 5.74416 6.58103 6.25046C6.58596 6.75677 6.69068 7.25715 6.8892 7.72294C7.08772 8.18873 7.37613 8.61078 7.73796 8.96497C7.8104 9.03438 7.8603 9.12398 7.88114 9.22211C7.90199 9.32024 7.89286 9.42237 7.8549 9.51523C7.81694 9.60809 7.75188 9.68738 7.66825 9.7428C7.58463 9.79822 7.48628 9.82719 7.38597 9.82596V9.82996Z" fill="white"/>
<path d="M13.921 9.83C13.8208 9.83102 13.7225 9.80191 13.6391 9.74641C13.5556 9.69091 13.4908 9.6116 13.4529 9.51878C13.4151 9.42596 13.406 9.32394 13.4269 9.2259C13.4477 9.12787 13.4976 9.03835 13.57 8.969C13.9317 8.61468 14.22 8.19252 14.4183 7.72666C14.6167 7.2608 14.7212 6.76041 14.7259 6.2541C14.7307 5.74779 14.6355 5.2455 14.4459 4.77601C14.2563 4.30652 13.9759 3.87904 13.6209 3.51802C13.5281 3.4228 13.4769 3.29459 13.4786 3.16163C13.4803 3.02867 13.5348 2.90183 13.63 2.809C13.7252 2.71617 13.8534 2.66498 13.9864 2.66667C14.1193 2.66835 14.2461 2.72279 14.339 2.818C14.7861 3.27355 15.139 3.81271 15.3777 4.4047C15.6163 4.9967 15.736 5.62994 15.7299 6.2682C15.7238 6.90646 15.5919 7.53725 15.342 8.12455C15.092 8.71185 14.7287 9.24414 14.273 9.69102C14.1784 9.78168 14.052 9.83157 13.921 9.83Z" fill="white"/>
<path d="M4.91702 12.4C4.78544 12.4005 4.65897 12.3491 4.56503 12.257C3.7686 11.4766 3.13378 10.5469 2.69692 9.52107C2.26006 8.4952 2.02975 7.39329 2.01907 6.27833C2.00839 5.16337 2.2176 4.05722 2.63473 3.02317C3.05185 1.98912 3.6687 1.04746 4.45004 0.251994C4.54286 0.156781 4.66967 0.102314 4.80264 0.100626C4.9356 0.0989385 5.06381 0.150165 5.15902 0.242991C5.25423 0.335817 5.3087 0.462658 5.31039 0.595621C5.31207 0.728585 5.26088 0.856763 5.16805 0.951975C4.47893 1.65299 3.93479 2.48304 3.5668 3.39457C3.19881 4.30611 3.01417 5.28126 3.02346 6.26423C3.03275 7.2472 3.23578 8.21867 3.62093 9.12309C4.00608 10.0275 4.56579 10.8471 5.26803 11.535C5.34047 11.6044 5.39037 11.694 5.41122 11.7921C5.43207 11.8902 5.42287 11.9924 5.38491 12.0852C5.34695 12.1781 5.28195 12.2574 5.19833 12.3128C5.1147 12.3682 5.01635 12.3972 4.91604 12.396L4.91702 12.4Z" fill="white"/>
<path d="M16.39 12.4C16.2897 12.4012 16.1913 12.3722 16.1077 12.3168C16.0241 12.2614 15.959 12.1821 15.9211 12.0892C15.8831 11.9964 15.874 11.8942 15.8948 11.7961C15.9157 11.698 15.9656 11.6084 16.038 11.539C16.7401 10.851 17.2997 10.0314 17.6848 9.12702C18.0699 8.22261 18.2729 7.25113 18.2822 6.2682C18.2915 5.28527 18.1069 4.31016 17.739 3.39863C17.371 2.4871 16.827 1.65706 16.138 0.955973C16.092 0.908829 16.0558 0.853086 16.0314 0.791941C16.0069 0.730796 15.9948 0.665456 15.9957 0.599619C15.9965 0.533783 16.0103 0.468749 16.0363 0.408244C16.0622 0.347738 16.0998 0.292951 16.147 0.246989C16.1941 0.201026 16.2499 0.164783 16.311 0.14036C16.3722 0.115938 16.4375 0.103819 16.5034 0.104655C16.5692 0.10549 16.6343 0.119276 16.6948 0.145243C16.7553 0.17121 16.8101 0.208847 16.856 0.255991C17.6372 1.05159 18.2538 1.99334 18.6708 3.02741C19.0877 4.06149 19.2968 5.16759 19.2861 6.28251C19.2753 7.39743 19.0449 8.4993 18.608 9.52513C18.1712 10.5509 17.5364 11.4806 16.74 12.261C16.6459 12.3511 16.5203 12.401 16.39 12.4Z" fill="white"/>
</svg>
