<svg width="148" height="99" viewBox="0 0 148 99" fill="none" xmlns="http://www.w3.org/2000/svg">
<path d="M118.76 75.3079C118.652 75.4279 118.546 75.5416 118.442 75.6489C118.338 75.7562 118.235 75.8636 118.134 75.9709H120.324V77.1079H116.144V76.3079L116.362 76.1079L116.855 75.6329C117 75.4879 117.165 75.3219 117.348 75.1329C117.531 74.9439 117.72 74.7459 117.916 74.5329C118.21 74.2251 118.489 73.9024 118.75 73.5659C118.906 73.3662 119.05 73.1575 119.181 72.9409C119.248 72.8348 119.304 72.7218 119.347 72.6039C119.366 72.5379 119.376 72.5039 119.376 72.4959C119.377 72.3585 119.349 72.2224 119.295 72.0959C119.244 71.9731 119.168 71.8619 119.073 71.7689C118.976 71.6771 118.864 71.6036 118.741 71.5519C118.615 71.4979 118.478 71.4704 118.341 71.4709C118.203 71.4699 118.067 71.4975 117.941 71.5519C117.82 71.6044 117.709 71.6779 117.614 71.7689C117.518 71.8617 117.443 71.973 117.392 72.0959C117.338 72.2222 117.31 72.3584 117.311 72.4959H116.174C116.173 72.2112 116.229 71.9291 116.34 71.6669C116.448 71.4048 116.608 71.1668 116.809 70.9669C117.006 70.7609 117.245 70.5993 117.509 70.4929C118.044 70.2783 118.642 70.2783 119.177 70.4929C119.441 70.5997 119.68 70.7612 119.877 70.9669C120.078 71.1674 120.237 71.4052 120.346 71.6669C120.456 71.9293 120.513 72.2113 120.512 72.4959C120.506 72.7121 120.456 72.9247 120.365 73.1209C120.239 73.3979 120.085 73.6616 119.906 73.9079C119.557 74.4005 119.174 74.8683 118.76 75.3079V75.3079Z" fill="#444444"/>
<path d="M123.82 70.342C124.185 70.3265 124.548 70.4125 124.868 70.5907C125.187 70.7688 125.451 71.032 125.63 71.351C125.823 71.693 125.958 72.0647 126.03 72.451C126.117 72.8926 126.16 73.3418 126.158 73.792C126.161 74.2417 126.121 74.6907 126.039 75.133C125.974 75.5201 125.841 75.8926 125.646 76.233C125.471 76.5344 125.224 76.7872 124.926 76.968C124.583 77.1453 124.203 77.2379 123.817 77.2379C123.432 77.2379 123.052 77.1453 122.709 76.968C122.41 76.7861 122.162 76.5316 121.988 76.228C121.795 75.8886 121.662 75.5185 121.595 75.134C121.514 74.693 121.474 74.2454 121.476 73.797C121.474 73.3475 121.512 72.8987 121.59 72.456C121.654 72.07 121.784 71.6979 121.974 71.356C122.146 71.0516 122.394 70.7971 122.694 70.617C123.037 70.4241 123.427 70.329 123.82 70.342ZM124.929 74.91C124.962 74.736 124.986 74.5604 125 74.384C125.016 74.198 125.024 74.0003 125.024 73.791C125.027 73.4159 124.993 73.0415 124.924 72.673C124.895 72.5351 124.856 72.3991 124.81 72.266C124.771 72.149 124.716 72.0374 124.649 71.934C124.574 71.7968 124.467 71.6798 124.337 71.593C124.168 71.5177 123.986 71.4789 123.801 71.4789C123.616 71.4789 123.434 71.5177 123.265 71.593C123.138 71.6717 123.035 71.7829 122.965 71.915C122.858 72.1201 122.778 72.3382 122.728 72.564C122.642 72.9671 122.604 73.3789 122.615 73.791C122.615 74.0003 122.623 74.198 122.638 74.384C122.653 74.5605 122.677 74.736 122.71 74.91C122.76 75.1684 122.849 75.4177 122.975 75.649C123.047 75.7824 123.149 75.8963 123.275 75.981C123.443 76.0626 123.628 76.1014 123.815 76.094C124.002 76.1028 124.187 76.0639 124.355 75.981C124.489 75.903 124.598 75.7877 124.668 75.649C124.798 75.4198 124.886 75.1697 124.929 74.91V74.91Z" fill="#444444"/>
<path d="M129.827 75.3079C129.72 75.4279 129.614 75.5416 129.509 75.6489C129.404 75.7562 129.301 75.8636 129.202 75.9709H131.391V77.1079H127.211V76.3079L127.429 76.1079L127.922 75.6329C128.067 75.4879 128.232 75.3219 128.415 75.1329C128.598 74.9439 128.788 74.7459 128.984 74.5329C129.278 74.2252 129.556 73.9024 129.817 73.5659C129.973 73.3659 130.117 73.1573 130.249 72.9409C130.315 72.8344 130.371 72.7215 130.415 72.6039C130.433 72.5379 130.443 72.5039 130.443 72.4959C130.444 72.3585 130.416 72.2224 130.362 72.0959C130.311 71.9731 130.235 71.8619 130.14 71.7689C130.043 71.6771 129.931 71.6036 129.808 71.5519C129.681 71.4986 129.545 71.4712 129.408 71.4712C129.271 71.4712 129.135 71.4986 129.008 71.5519C128.887 71.6044 128.776 71.6779 128.681 71.7689C128.585 71.8617 128.51 71.973 128.459 72.0959C128.405 72.2224 128.378 72.3585 128.378 72.4959H127.24C127.239 72.2112 127.295 71.9291 127.406 71.6669C127.515 71.405 127.674 71.1671 127.875 70.9669C128.072 70.7612 128.311 70.5997 128.575 70.4929C129.11 70.2783 129.708 70.2783 130.243 70.4929C130.507 70.5997 130.746 70.7612 130.943 70.9669C131.144 71.1668 131.304 71.4048 131.412 71.6669C131.523 71.9291 131.579 72.2112 131.578 72.4959C131.572 72.7121 131.522 72.9247 131.431 73.1209C131.305 73.3979 131.151 73.6616 130.972 73.9079C130.623 74.4005 130.241 74.8683 129.827 75.3079V75.3079Z" fill="#444444"/>
<path d="M134.888 70.342C135.253 70.3265 135.616 70.4125 135.936 70.5907C136.255 70.7688 136.519 71.032 136.698 71.351C136.891 71.6932 137.026 72.0648 137.098 72.451C137.186 72.8925 137.229 73.3418 137.226 73.792C137.228 74.2417 137.189 74.6906 137.108 75.133C137.043 75.5201 136.909 75.8925 136.714 76.233C136.54 76.5347 136.292 76.7874 135.994 76.968C135.651 77.1453 135.271 77.2379 134.885 77.2379C134.5 77.2379 134.12 77.1453 133.777 76.968C133.478 76.7861 133.231 76.5315 133.057 76.228C132.863 75.8889 132.73 75.5187 132.663 75.134C132.582 74.693 132.542 74.2454 132.545 73.797C132.543 73.3475 132.581 72.8988 132.658 72.456C132.722 72.07 132.852 71.6979 133.042 71.356C133.214 71.0514 133.463 70.7967 133.763 70.617C134.106 70.424 134.495 70.3289 134.888 70.342V70.342ZM136 74.91C136.033 74.736 136.057 74.5605 136.072 74.384C136.087 74.198 136.094 74.0003 136.095 73.791C136.098 73.4159 136.065 73.0415 135.995 72.673C135.966 72.535 135.928 72.399 135.881 72.266C135.842 72.149 135.787 72.0374 135.72 71.934C135.645 71.7966 135.538 71.6795 135.408 71.593C135.239 71.5178 135.057 71.4789 134.872 71.4789C134.688 71.4789 134.505 71.5178 134.337 71.593C134.21 71.6715 134.106 71.7827 134.037 71.915C133.93 72.1201 133.851 72.3383 133.801 72.564C133.714 72.9669 133.676 73.3789 133.687 73.791C133.687 74.0003 133.695 74.198 133.711 74.384C133.725 74.5605 133.749 74.7361 133.782 74.91C133.832 75.1684 133.921 75.4177 134.047 75.649C134.118 75.7824 134.221 75.8964 134.347 75.981C134.515 76.0626 134.701 76.1014 134.888 76.094C135.075 76.1028 135.26 76.0639 135.428 75.981C135.562 75.903 135.671 75.7877 135.741 75.649C135.87 75.4197 135.958 75.1696 136 74.91Z" fill="#444444"/>
<path d="M81.64 84.8139V98.5759L112.768 79.8289V66.0649L81.64 84.8139ZM90.621 90.7139C90.3318 91.1196 89.9609 91.4603 89.532 91.7139C89.1083 91.9728 88.6364 92.1429 88.145 92.2139C87.6712 92.2814 87.1888 92.2573 86.724 92.1429C86.2582 92.0296 85.8192 91.8257 85.432 91.5429C85.0306 91.2522 84.6915 90.8839 84.4349 90.4598C84.1783 90.0357 84.0093 89.5645 83.938 89.0739C83.869 88.5986 83.8924 88.1144 84.007 87.6479C84.1227 87.1741 84.3312 86.728 84.6205 86.3352C84.9097 85.9425 85.2739 85.611 85.692 85.3599C86.1158 85.099 86.5891 84.9287 87.082 84.8599C87.5581 84.7912 88.0431 84.8153 88.51 84.9309L88.21 86.1209C87.8927 86.0412 87.5628 86.0243 87.239 86.071C86.9129 86.1192 86.6001 86.2339 86.32 86.4079C86.0395 86.572 85.7971 86.7939 85.609 87.0589C85.2246 87.5956 85.0597 88.2588 85.148 88.9129C85.251 89.5635 85.6045 90.1478 86.133 90.5409C86.6673 90.9327 87.3348 91.0973 87.99 90.9989C88.3115 90.9495 88.6197 90.8356 88.896 90.6639C89.1783 90.4982 89.4245 90.2775 89.62 90.015C89.814 89.7509 89.954 89.4512 90.032 89.1329L91.218 89.4179C91.1027 89.8835 90.9001 90.3229 90.621 90.713V90.7139ZM98.385 85.0919C98.2704 85.5577 98.0667 85.9968 97.785 86.3849C97.3509 86.9839 96.7475 87.4393 96.0526 87.6927C95.3576 87.9461 94.6028 87.9858 93.885 87.8069C93.4198 87.6926 92.9814 87.4888 92.594 87.2069C92.1919 86.9176 91.8536 86.5486 91.6 86.1229C91.3411 85.6992 91.171 85.2274 91.1 84.7359C91.0343 84.2611 91.058 83.7781 91.17 83.312C91.2858 82.847 91.4895 82.4084 91.77 82.0199C92.0607 81.6174 92.4294 81.2773 92.854 81.0199C93.272 80.7678 93.7356 80.6005 94.2182 80.5276C94.7009 80.4547 95.1932 80.4775 95.667 80.5949C96.6223 80.8323 97.4449 81.4381 97.955 82.2799C98.2086 82.6968 98.3769 83.1598 98.4502 83.6422C98.5235 84.1245 98.5003 84.6166 98.382 85.0899L98.385 85.0919ZM105.663 81.7979L100.681 79.0979L103.208 83.282L102.163 83.9119L98.468 77.8019L99.602 77.1159L104.583 79.8159L102.056 75.6339L103.1 74.9999L106.793 81.1119L105.663 81.7979ZM110.292 79.0109L109.247 79.6449L105.553 73.5339L109.668 71.0479L110.296 72.0969L107.237 73.9469L108.128 75.433L110.409 74.0559L111.309 74.9449L108.768 76.4809L110.292 79.0109Z" fill="#444444"/>
<path d="M96.911 82.9139C96.7435 82.6358 96.5234 82.3929 96.263 82.1989C96.0002 82.0042 95.7009 81.864 95.383 81.7869C95.0631 81.7081 94.731 81.6921 94.405 81.7399C94.0829 81.7893 93.7736 81.9018 93.495 82.0709C93.215 82.2388 92.9715 82.4612 92.779 82.7249C92.3916 83.2601 92.228 83.9252 92.323 84.5789C92.3709 84.9021 92.4823 85.2125 92.6508 85.4922C92.8194 85.772 93.0417 86.0156 93.305 86.2089C93.5699 86.403 93.8707 86.5424 94.19 86.6189C94.5068 86.7007 94.837 86.7164 95.16 86.6649C95.4788 86.6134 95.7845 86.5003 96.06 86.3319C96.3404 86.1643 96.5856 85.9439 96.782 85.6829C96.9797 85.4202 97.1213 85.1196 97.198 84.7999C97.2779 84.4822 97.2935 84.1518 97.244 83.8279C97.1915 83.505 97.0785 83.1949 96.911 82.9139V82.9139Z" fill="#444444"/>
<path d="M131.217 20.9449H123.241V61.1879H131.217V20.9449Z" fill="#848484"/>
<path d="M122.667 16.392H114.69V27.336H122.667V16.392Z" fill="#848484"/>
<path d="M147.627 0.142944L122.67 16.3999V27.334L131.211 21.7669L131.224 61.1769L139.089 56.394L139.078 16.64L147.607 11.0769L147.627 0.142944Z" fill="#B6B6B6"/>
<path d="M139.624 0.142944H147.624L122.688 16.3999L114.688 16.394L139.624 0.142944Z" fill="#D0D0D0"/>
<path d="M112.682 16.4709L104.816 21.2529V67.5959L112.683 62.8109L112.682 16.4709Z" fill="#B6B6B6"/>
<path d="M104.034 16.4779L112.682 16.4709L104.802 21.2539L96.142 21.2489L104.034 16.4779Z" fill="#D0D0D0"/>
<path d="M96.142 21.2489L81.642 43.7579L67.142 21.2469H58.467V67.5999H66.414V34.7599L81.638 58.3929V58.3989L96.865 34.7639V67.5999H104.809V21.2489H96.142Z" fill="#444444"/>
<path d="M56.493 21.309H32.972V29.254H56.493V21.309Z" fill="#444444"/>
<path d="M32.99 40.5L50.534 40.513L42.275 48.458L32.99 48.445" fill="#444444"/>
<path d="M56.542 59.73H33.024V67.674H56.542V59.73Z" fill="#444444"/>
<path d="M7.951 40.4999V29.2489V21.2949L6.581 22.5949L0 29.1709V67.6519H7.946V48.4519H16.967L25.23 40.4999H7.951Z" fill="#444444"/>
<path d="M31.362 21.3039H7.991V29.2489H31.362V21.3039Z" fill="#B6B6B6"/>
<path d="M53.842 0.208008H26.407C25.7539 0.210117 25.1281 0.470491 24.6663 0.932312C24.2045 1.39413 23.9441 2.01989 23.942 2.673V9.582C23.9439 10.2352 24.2042 10.8611 24.666 11.323C25.1279 11.7848 25.7538 12.0452 26.407 12.047H53.842C54.4952 12.0452 55.1211 11.7848 55.583 11.323C56.0449 10.8611 56.3052 10.2352 56.307 9.582V2.673C56.3049 2.01989 56.0445 1.39413 55.5827 0.932312C55.1209 0.470491 54.4951 0.210117 53.842 0.208008ZM29.878 9.49301H26.653V2.35699H29.86V3.431H28.23V5.20001H29.472V6.29999H28.23V8.43201H29.878V9.49301ZM34.468 9.49301H33.4L31.937 5.793V9.49301H30.591V2.35699H31.7L33.162 5.793V2.35699H34.462L34.468 9.49301ZM40.406 9.49301H38.741L37.454 2.35699H38.8L39.567 7.202L40.281 2.35699H41.71L40.406 9.49301ZM44.006 9.49301H42.432V2.35699H44.009L44.006 9.49301ZM47.689 9.49301H46.027L44.74 2.35699H46.088L46.855 7.202L47.568 2.35699H49L47.689 9.49301ZM53.821 7.246C53.8648 7.87242 53.6879 8.49439 53.321 9.004C53.106 9.22095 52.8454 9.38734 52.5581 9.49112C52.2708 9.5949 51.9641 9.63346 51.66 9.604C51.3581 9.6334 51.0534 9.59477 50.7684 9.49094C50.4834 9.3871 50.2253 9.22071 50.013 9.004C49.6487 8.49338 49.474 7.87164 49.519 7.246V4.59399C49.4727 3.97133 49.6476 3.35232 50.013 2.84601C50.2271 2.63262 50.4859 2.46937 50.7707 2.36804C51.0555 2.26671 51.3592 2.22982 51.66 2.26001C51.9633 2.22983 52.2694 2.26708 52.5566 2.36908C52.8437 2.47108 53.1048 2.63531 53.321 2.85001C53.6877 3.3544 53.8647 3.97194 53.821 4.59399V7.246Z" fill="#848484"/>
<path d="M51.665 3.37003C51.5801 3.36 51.4942 3.37607 51.4186 3.41608C51.343 3.4561 51.2814 3.51816 51.242 3.59403C51.1634 3.78847 51.1273 3.99748 51.136 4.20704V7.64304C51.1289 7.85163 51.1629 8.05958 51.236 8.25504C51.2756 8.33289 51.3385 8.3964 51.416 8.43674C51.4934 8.47708 51.5815 8.49224 51.668 8.48005C51.7556 8.4914 51.8447 8.47598 51.9234 8.43583C52.0021 8.39567 52.0668 8.33265 52.109 8.25504C52.1855 8.06047 52.2196 7.85183 52.209 7.64304V4.20704C52.2205 3.99657 52.1864 3.7861 52.109 3.59003C52.0657 3.51301 52.0001 3.45084 51.9209 3.4116C51.8417 3.37236 51.7526 3.35787 51.665 3.37003V3.37003Z" fill="#848484"/>
<path d="M9.655 7.44495C10.3166 7.44495 10.853 6.90859 10.853 6.24695C10.853 5.58531 10.3166 5.04895 9.655 5.04895C8.99336 5.04895 8.457 5.58531 8.457 6.24695C8.457 6.90859 8.99336 7.44495 9.655 7.44495Z" fill="#848484"/>
<path d="M6.386 9.82996C6.25442 9.83047 6.12794 9.77911 6.034 9.68699C5.57824 9.24011 5.21499 8.70782 4.965 8.12052C4.71502 7.53322 4.5832 6.9024 4.57707 6.26414C4.57094 5.62587 4.69062 4.99266 4.92928 4.40067C5.16794 3.80868 5.5209 3.26951 5.96799 2.81397C6.06082 2.71889 6.18761 2.66459 6.32048 2.663C6.45335 2.66141 6.58141 2.71266 6.67649 2.80549C6.77157 2.89831 6.82589 3.0251 6.82748 3.15796C6.82907 3.29083 6.77782 3.4189 6.685 3.51398C6.33013 3.87514 6.04996 4.30272 5.86053 4.77228C5.6711 5.24184 5.57613 5.74416 5.58105 6.25046C5.58598 6.75677 5.69069 7.25715 5.88922 7.72294C6.08774 8.18873 6.37617 8.61078 6.73799 8.96497C6.81043 9.03438 6.86032 9.12398 6.88117 9.22211C6.90202 9.32024 6.89287 9.42237 6.8549 9.51523C6.81694 9.60809 6.75192 9.68738 6.6683 9.7428C6.58467 9.79822 6.48631 9.82719 6.386 9.82596V9.82996Z" fill="#848484"/>
<path d="M12.921 9.83C12.8208 9.83102 12.7226 9.80191 12.6391 9.74641C12.5556 9.69091 12.4908 9.6116 12.4529 9.51878C12.4151 9.42596 12.406 9.32394 12.4269 9.2259C12.4478 9.12787 12.4976 9.03835 12.57 8.969C12.9317 8.61468 13.22 8.19252 13.4183 7.72666C13.6167 7.2608 13.7212 6.76041 13.7259 6.2541C13.7307 5.74779 13.6355 5.2455 13.4459 4.77601C13.2563 4.30652 12.976 3.87904 12.621 3.51802C12.5282 3.4228 12.477 3.29459 12.4787 3.16163C12.4804 3.02867 12.5348 2.90183 12.63 2.809C12.7252 2.71617 12.8534 2.66498 12.9864 2.66667C13.1193 2.66835 13.2462 2.72279 13.339 2.818C13.7861 3.27355 14.1391 3.81271 14.3777 4.4047C14.6164 4.9967 14.7361 5.62994 14.7299 6.2682C14.7238 6.90646 14.592 7.53725 14.342 8.12455C14.092 8.71185 13.7288 9.24414 13.273 9.69102C13.1784 9.78168 13.052 9.83157 12.921 9.83Z" fill="#848484"/>
<path d="M3.91701 12.4C3.78543 12.4005 3.65896 12.3491 3.56501 12.257C2.76858 11.4766 2.13379 10.5469 1.69693 9.52107C1.26007 8.4952 1.02972 7.39329 1.01904 6.27833C1.00835 5.16337 1.21756 4.05722 1.63469 3.02317C2.05181 1.98912 2.66868 1.04746 3.45001 0.251993C3.49598 0.204849 3.55077 0.167212 3.61128 0.141245C3.67178 0.115278 3.73681 0.101462 3.80265 0.100626C3.86848 0.0997906 3.93384 0.11194 3.99499 0.136362C4.05613 0.160785 4.11187 0.197028 4.15901 0.242991C4.20616 0.288953 4.24379 0.34374 4.26975 0.404246C4.29572 0.464751 4.30951 0.529785 4.31035 0.595621C4.31118 0.661458 4.29905 0.726798 4.27462 0.787943C4.2502 0.849088 4.21397 0.904831 4.16801 0.951975C3.47889 1.65299 2.93477 2.48304 2.56678 3.39457C2.19879 4.30611 2.01416 5.28126 2.02345 6.26423C2.03273 7.2472 2.23576 8.21867 2.62091 9.12309C3.00606 10.0275 3.56577 10.8471 4.26801 11.535C4.34045 11.6044 4.39034 11.694 4.41119 11.7921C4.43204 11.8902 4.42288 11.9924 4.38492 12.0852C4.34695 12.1781 4.28194 12.2574 4.19831 12.3128C4.11469 12.3682 4.01633 12.3972 3.91601 12.396L3.91701 12.4Z" fill="#848484"/>
<path d="M15.39 12.4C15.2897 12.4012 15.1913 12.3722 15.1077 12.3168C15.0241 12.2614 14.9591 12.1821 14.9211 12.0892C14.8831 11.9964 14.874 11.8942 14.8948 11.7961C14.9157 11.698 14.9656 11.6084 15.038 11.539C15.7401 10.851 16.2997 10.0314 16.6848 9.12702C17.0699 8.22261 17.2729 7.25113 17.2822 6.2682C17.2914 5.28527 17.1069 4.31016 16.7389 3.39863C16.371 2.4871 15.827 1.65706 15.138 0.955973C15.092 0.908829 15.0558 0.853086 15.0314 0.791941C15.007 0.730796 14.9948 0.665456 14.9957 0.599619C14.9965 0.533783 15.0103 0.468749 15.0363 0.408244C15.0622 0.347738 15.0999 0.292951 15.147 0.246989C15.1941 0.201026 15.2499 0.164783 15.311 0.14036C15.3722 0.115938 15.4375 0.103819 15.5034 0.104655C15.5692 0.10549 15.6342 0.119276 15.6947 0.145243C15.7552 0.17121 15.81 0.208847 15.856 0.255991C16.6371 1.05159 17.2538 1.99334 17.6708 3.02741C18.0878 4.06149 18.2968 5.16759 18.2861 6.28251C18.2753 7.39743 18.0449 8.4993 17.608 9.52513C17.1711 10.5509 16.5364 11.4806 15.74 12.261C15.6459 12.3511 15.5203 12.401 15.39 12.4Z" fill="#848484"/>
</svg>
