<svg width="114" height="93" viewBox="0 0 114 93" fill="none" xmlns="http://www.w3.org/2000/svg">
<path d="M29.7411 20.866V24.555C29.7415 24.6406 29.725 24.7254 29.6924 24.8045C29.6598 24.8836 29.6118 24.9554 29.5513 25.0159C29.4907 25.0763 29.4188 25.1242 29.3397 25.1566C29.2605 25.1891 29.1757 25.2055 29.0901 25.205H15.5591C15.4712 25.2093 15.3833 25.1946 15.3016 25.162C15.2198 25.1294 15.146 25.0796 15.0851 25.016C14.9687 24.8911 14.9055 24.7257 14.9091 24.555V6.00601C14.9051 5.83522 14.9683 5.66969 15.0851 5.54501C15.1461 5.4815 15.2199 5.4317 15.3016 5.39894C15.3834 5.36618 15.4712 5.35121 15.5591 5.35501H19.6281C19.7137 5.35461 19.7985 5.37119 19.8776 5.40378C19.9567 5.43636 20.0285 5.48432 20.089 5.54486C20.1494 5.6054 20.1973 5.67734 20.2297 5.7565C20.2622 5.83566 20.2787 5.92046 20.2781 6.00601V19.564C20.2741 19.7348 20.3373 19.9003 20.4541 20.025C20.5149 20.0888 20.5887 20.1387 20.6705 20.1713C20.7523 20.2039 20.8401 20.2185 20.9281 20.214H29.0871C29.1727 20.2138 29.2576 20.2304 29.3368 20.2631C29.416 20.2958 29.4879 20.3438 29.5484 20.4044C29.6089 20.4651 29.6568 20.5371 29.6894 20.6163C29.722 20.6955 29.7385 20.7804 29.7381 20.866H29.7411Z" fill="black"/>
<path d="M39.0261 5.979C39.1056 5.80729 39.2321 5.66166 39.3911 5.55901C39.5541 5.4442 39.7487 5.38271 39.9481 5.383H43.7481C43.938 5.3862 44.1223 5.44764 44.2761 5.55901C44.435 5.66197 44.5619 5.80749 44.6421 5.979L52.5601 24.417C52.5959 24.5 52.6108 24.5905 52.6037 24.6806C52.5965 24.7707 52.5675 24.8577 52.5191 24.934C52.4572 25.0292 52.3698 25.105 52.2669 25.1529C52.164 25.2008 52.0498 25.2189 51.9371 25.205H47.2991C47.1004 25.2046 46.9067 25.1432 46.7441 25.029C46.582 24.9213 46.4474 24.7771 46.3511 24.608L45.6181 22.981C45.5219 22.8118 45.3869 22.6678 45.2241 22.561C45.0703 22.4489 44.8854 22.3874 44.6951 22.385H38.9741C38.7756 22.3846 38.5819 22.4461 38.4201 22.561C38.26 22.6632 38.1324 22.8089 38.0521 22.981L37.2941 24.608C37.2129 24.7795 37.0859 24.9252 36.9271 25.029C36.7731 25.1407 36.5883 25.2021 36.3981 25.205H31.7351C31.6376 25.2034 31.5412 25.1847 31.4501 25.15C31.356 25.1184 31.272 25.0621 31.2071 24.987C31.1399 24.911 31.0971 24.8166 31.0841 24.716C31.0705 24.5845 31.0993 24.4521 31.1661 24.338L39.0261 5.979ZM40.6261 17.779H43.0401C43.1151 17.7854 43.1905 17.7725 43.2591 17.7415C43.3277 17.7105 43.3873 17.6625 43.4321 17.602C43.4719 17.5386 43.4918 17.4648 43.4895 17.39C43.4872 17.3152 43.4627 17.2428 43.4191 17.182C43.2381 16.731 43.0191 16.201 42.7681 15.596C42.5171 14.991 42.2801 14.426 42.0631 13.896C41.9911 13.734 41.9091 13.652 41.8191 13.652C41.7291 13.652 41.6471 13.734 41.5751 13.896L40.2191 17.178C40.1772 17.243 40.1554 17.3188 40.1563 17.396C40.1573 17.4733 40.1809 17.5486 40.2243 17.6125C40.2676 17.6765 40.3289 17.7263 40.4003 17.7557C40.4717 17.7851 40.5502 17.7929 40.6261 17.778V17.779Z" fill="black"/>
<path d="M56.0811 18.4C56.992 18.9993 57.9641 19.4998 58.9811 19.893C59.8363 20.2332 60.7459 20.4161 61.6661 20.433C62.2901 20.4683 62.9133 20.3527 63.4831 20.096C63.6739 20.0043 63.8342 19.8594 63.9447 19.6788C64.0552 19.4983 64.1113 19.2897 64.1061 19.078C64.1096 18.9701 64.0868 18.863 64.0395 18.766C63.9923 18.6689 63.9222 18.5848 63.8351 18.521C63.6169 18.3677 63.3736 18.2537 63.1161 18.184C62.7747 18.0843 62.4259 18.0114 62.0731 17.966C61.6731 17.912 61.2731 17.84 60.8521 17.75C60.4521 17.678 59.9855 17.592 59.4521 17.492C58.8955 17.3871 58.347 17.2424 57.8111 17.059C57.2373 16.8629 56.6797 16.6225 56.1431 16.34C55.5934 16.052 55.0941 15.6764 54.6651 15.228C54.2216 14.7587 53.8681 14.212 53.6221 13.615C53.3455 12.9115 53.2119 12.1598 53.2291 11.404C53.1876 10.3263 53.4407 9.25767 53.9611 8.31302C54.4193 7.52982 55.0559 6.86582 55.8191 6.37501C56.5865 5.89035 57.4368 5.55135 58.3271 5.37501C59.2094 5.18885 60.1084 5.09303 61.0101 5.08902C62.3994 5.06805 63.7813 5.29319 65.0921 5.75401C66.3358 6.22198 67.5014 6.87573 68.5491 7.69301C68.6879 7.80862 68.7756 7.97425 68.7931 8.15402C68.8131 8.32835 68.7647 8.50363 68.6581 8.64302L66.5421 11.652C66.4377 11.7946 66.2828 11.8919 66.1091 11.924C66.0248 11.9432 65.9374 11.9434 65.853 11.9248C65.7686 11.9061 65.6894 11.8689 65.6211 11.816C64.8198 11.2936 63.9534 10.8787 63.0441 10.582C62.3331 10.351 61.5916 10.227 60.8441 10.214C60.6441 10.214 60.4141 10.219 60.1531 10.229C59.9011 10.2364 59.6507 10.273 59.4071 10.338C59.1897 10.3907 58.9894 10.4981 58.8251 10.65C58.7458 10.7276 58.6841 10.8213 58.6443 10.9249C58.6044 11.0284 58.5873 11.1393 58.5941 11.25C58.5941 11.5027 58.7834 11.7287 59.1621 11.928C59.5776 12.1415 60.013 12.3136 60.4621 12.442C60.9252 12.582 61.396 12.6952 61.8721 12.781C62.3241 12.863 62.6134 12.9134 62.7401 12.932C63.4634 13.0762 64.1779 13.2615 64.8801 13.487C65.6604 13.7325 66.3976 14.0983 67.0651 14.571C67.7593 15.0689 68.3412 15.707 68.7731 16.444C69.2624 17.325 69.5013 18.323 69.4641 19.33C69.4891 20.2965 69.2942 21.2559 68.8941 22.136C68.5318 22.9025 67.9873 23.5686 67.3081 24.076C66.5763 24.6073 65.7473 24.9895 64.8681 25.201C63.8344 25.4556 62.7727 25.5786 61.7081 25.567C60.8265 25.5722 59.9463 25.4948 59.0791 25.336C58.3019 25.1935 57.5395 24.9803 56.8011 24.699C56.1179 24.4387 55.4599 24.1167 54.8351 23.737C54.2526 23.3822 53.6953 22.9876 53.1671 22.556C53.0963 22.5041 53.0377 22.4372 52.9955 22.3601C52.9534 22.2831 52.9286 22.1977 52.9231 22.11C52.9031 21.932 52.9521 21.753 53.0601 21.61L55.1481 18.599C55.2527 18.4569 55.4076 18.36 55.5811 18.328C55.6651 18.3065 55.7525 18.3019 55.8383 18.3142C55.9241 18.3266 56.0066 18.3557 56.0811 18.4V18.4Z" fill="black"/>
<path d="M90.2061 26.087V14.863C90.2052 14.8107 90.2147 14.7588 90.2341 14.7102C90.2535 14.6617 90.2824 14.6175 90.3191 14.5802C90.3558 14.543 90.3995 14.5134 90.4478 14.4933C90.496 14.4732 90.5478 14.4629 90.6001 14.463H95.0811C96.6296 14.4015 98.1415 14.9428 99.2991 15.973C99.8872 16.516 100.347 17.1832 100.645 17.926C101.258 19.5707 101.258 21.3813 100.645 23.026C100.349 23.7726 99.8892 24.4432 99.2991 24.988C98.7524 25.4806 98.1134 25.8599 97.4191 26.104C96.6674 26.3637 95.8764 26.4915 95.0811 26.482H90.6001C90.5481 26.4831 90.4965 26.4733 90.4484 26.4533C90.4004 26.4334 90.357 26.4036 90.3211 26.366C90.2839 26.3298 90.2546 26.2864 90.2348 26.2384C90.215 26.1904 90.2053 26.1389 90.2061 26.087V26.087ZM93.8501 23.463H95.0811C95.4018 23.4604 95.7211 23.4218 96.0331 23.348C96.3582 23.273 96.6614 23.1238 96.9191 22.912C97.2037 22.6679 97.4259 22.3593 97.5671 22.012C97.9057 21.0283 97.9057 19.9597 97.5671 18.976C97.426 18.6265 97.2006 18.3174 96.9111 18.076C96.6519 17.8664 96.3487 17.7181 96.0241 17.642C95.7153 17.567 95.3989 17.5281 95.0811 17.526H93.8501C93.7982 17.5254 93.7466 17.5354 93.6987 17.5553C93.6507 17.5753 93.6073 17.6048 93.5711 17.642C93.5339 17.6782 93.5045 17.7216 93.4847 17.7696C93.4649 17.8176 93.4552 17.8691 93.4561 17.921V23.073C93.4552 23.1253 93.4647 23.1772 93.4841 23.2258C93.5035 23.2744 93.5324 23.3185 93.5691 23.3558C93.6058 23.3931 93.6495 23.4226 93.6978 23.4427C93.746 23.4629 93.7978 23.4732 93.8501 23.473V23.463Z" fill="black"/>
<path d="M105.798 17.881V18.572C105.797 18.624 105.807 18.6756 105.827 18.7236C105.847 18.7716 105.877 18.815 105.914 18.851C105.95 18.8883 105.993 18.9176 106.041 18.9373C106.089 18.9569 106.14 18.9663 106.192 18.965H110.641C110.693 18.9649 110.744 18.975 110.792 18.9948C110.84 19.0145 110.883 19.0435 110.92 19.0801C110.957 19.1168 110.986 19.1602 111.005 19.2081C111.025 19.256 111.035 19.3072 111.035 19.359V21.624C111.036 21.6763 111.026 21.7282 111.007 21.7767C110.987 21.8252 110.959 21.8693 110.922 21.9065C110.885 21.9437 110.841 21.9733 110.793 21.9935C110.745 22.0136 110.693 22.024 110.641 22.024H106.192C106.141 22.0228 106.089 22.0321 106.041 22.0516C105.994 22.071 105.95 22.1001 105.914 22.137C105.877 22.1734 105.847 22.2172 105.827 22.2655C105.807 22.3138 105.797 22.3657 105.798 22.418V23.041C105.797 23.0929 105.807 23.1443 105.827 23.1922C105.847 23.24 105.877 23.2832 105.914 23.319C105.95 23.3568 105.993 23.3865 106.041 23.4063C106.089 23.4261 106.14 23.4356 106.192 23.434H111.292C111.345 23.4332 111.397 23.443 111.446 23.4628C111.495 23.4826 111.539 23.5121 111.577 23.5494C111.614 23.5867 111.644 23.6311 111.663 23.68C111.683 23.7289 111.693 23.7813 111.692 23.834V26.097C111.693 26.1498 111.683 26.2022 111.663 26.2511C111.644 26.2999 111.614 26.3444 111.577 26.3817C111.539 26.419 111.495 26.4484 111.446 26.4682C111.397 26.488 111.345 26.4978 111.292 26.497H102.938C102.886 26.4981 102.835 26.4883 102.787 26.4683C102.739 26.4484 102.696 26.4186 102.66 26.381C102.623 26.3449 102.593 26.3013 102.573 26.2532C102.553 26.205 102.543 26.1532 102.544 26.101V14.863C102.543 14.8108 102.553 14.7589 102.572 14.7104C102.592 14.6619 102.621 14.6178 102.657 14.5806C102.694 14.5433 102.738 14.5138 102.786 14.4936C102.834 14.4734 102.886 14.463 102.938 14.463H111.292C111.344 14.4626 111.396 14.4725 111.444 14.4923C111.492 14.512 111.536 14.5412 111.572 14.578C111.609 14.6145 111.639 14.6581 111.658 14.7062C111.678 14.7544 111.688 14.806 111.687 14.858V17.089C111.687 17.1413 111.677 17.1931 111.657 17.2414C111.637 17.2896 111.607 17.3334 111.57 17.3701C111.533 17.4068 111.488 17.4357 111.44 17.4551C111.391 17.4745 111.339 17.484 111.287 17.483H106.187C106.083 17.483 105.983 17.5244 105.909 17.5981C105.835 17.6718 105.793 17.7717 105.793 17.876L105.798 17.881Z" fill="black"/>
<path d="M3.34604 45.278C4.06465 45.7498 4.83126 46.144 5.63303 46.454C6.30751 46.7229 7.02504 46.8675 7.75101 46.881C8.24254 46.9083 8.73344 46.8167 9.18204 46.614C9.33254 46.5424 9.45905 46.4288 9.54636 46.2868C9.63367 46.1448 9.67804 45.9806 9.67404 45.814C9.67689 45.7292 9.65887 45.645 9.62155 45.5688C9.58424 45.4926 9.52879 45.4268 9.46006 45.377C9.28727 45.2565 9.09564 45.1656 8.89304 45.108C8.6238 45.0308 8.34895 44.9747 8.07102 44.94C7.75602 44.897 7.43604 44.84 7.10904 44.768C6.78204 44.696 6.42801 44.644 6.00901 44.568C5.57034 44.4862 5.13823 44.3725 4.71604 44.228C4.26363 44.0739 3.82421 43.884 3.40201 43.66C2.96824 43.4339 2.57442 43.1383 2.23606 42.785C1.88619 42.4151 1.60751 41.9839 1.41403 41.513C1.19608 40.9587 1.09101 40.3665 1.10501 39.771C1.0717 38.9211 1.27084 38.0782 1.681 37.333C2.04251 36.7163 2.5436 36.193 3.14402 35.805C3.7495 35.4222 4.42039 35.1544 5.12302 35.015C5.81852 34.8682 6.52719 34.7928 7.23801 34.79C8.33285 34.7737 9.42199 34.9511 10.4551 35.314C11.4353 35.6822 12.3538 36.1974 13.179 36.842C13.2886 36.9335 13.3581 37.0641 13.373 37.206C13.3882 37.3432 13.3495 37.4809 13.265 37.59L11.5981 39.963C11.5156 40.0758 11.3927 40.1521 11.255 40.176C11.1887 40.1912 11.1199 40.1914 11.0534 40.1767C10.987 40.162 10.9247 40.1327 10.871 40.091C10.2391 39.6806 9.55678 39.3536 8.84104 39.118C8.28145 38.937 7.69808 38.8399 7.11002 38.83C6.95302 38.83 6.77106 38.83 6.56406 38.841C6.3655 38.8473 6.16825 38.8758 5.97605 38.926C5.80466 38.9685 5.64655 39.0531 5.51602 39.172C5.45455 39.2334 5.40672 39.3071 5.3757 39.3883C5.34469 39.4695 5.33118 39.5563 5.33603 39.643C5.33603 39.843 5.48601 40.021 5.78501 40.176C6.11299 40.3439 6.45623 40.4802 6.81003 40.583C7.17543 40.6921 7.54668 40.7806 7.92203 40.848C8.27703 40.914 8.50605 40.954 8.60605 40.967C9.17653 41.0825 9.74032 41.2287 10.295 41.405C10.9091 41.5999 11.4893 41.8887 12.015 42.261C12.5619 42.6523 13.0205 43.1541 13.3611 43.734C13.7473 44.429 13.936 45.2164 13.907 46.011C13.9263 46.7731 13.7728 47.5297 13.458 48.224C13.1719 48.8272 12.7428 49.3514 12.208 49.751C11.6311 50.1706 10.9769 50.4721 10.2831 50.638C9.46932 50.8395 8.63328 50.9369 7.79502 50.928C7.09919 50.932 6.4045 50.8711 5.72 50.746C5.10802 50.6329 4.50734 50.4656 3.92502 50.246C3.38652 50.041 2.86799 49.7869 2.37601 49.487C1.91652 49.2072 1.47683 48.8961 1.06003 48.556C1.00441 48.5151 0.958455 48.4624 0.925448 48.4018C0.892441 48.3411 0.873211 48.2739 0.869052 48.205C0.851143 48.0628 0.889539 47.9193 0.976046 47.805L2.62204 45.434C2.70402 45.3212 2.826 45.2439 2.96305 45.218C3.09365 45.1871 3.23114 45.2087 3.34604 45.278V45.278Z" fill="black"/>
<path d="M20.0001 50.643H16.7871C16.718 50.6467 16.649 50.6352 16.5849 50.6093C16.5208 50.5833 16.4632 50.5436 16.4161 50.493C16.3234 50.3948 16.2734 50.2639 16.277 50.129V35.529C16.2735 35.3944 16.3236 35.2638 16.4161 35.166C16.4634 35.1158 16.5211 35.0766 16.5852 35.051C16.6493 35.0254 16.7182 35.0142 16.7871 35.018H19.9991C20.0661 35.0164 20.1326 35.0287 20.1946 35.0542C20.2566 35.0797 20.3126 35.1178 20.3591 35.166C20.4073 35.2132 20.4453 35.2697 20.4707 35.3321C20.4962 35.3946 20.5086 35.4616 20.5071 35.529V50.129C20.5087 50.1966 20.4964 50.2638 20.4709 50.3264C20.4454 50.389 20.4074 50.4457 20.3591 50.493C20.3129 50.5416 20.2572 50.58 20.1954 50.6058C20.1336 50.6317 20.067 50.6443 20.0001 50.643V50.643Z" fill="black"/>
<path d="M25.147 45.278C25.8655 45.75 26.6321 46.1442 27.434 46.454C28.1078 46.7228 28.8247 46.8674 29.55 46.881C30.0421 46.9083 30.5336 46.8167 30.983 46.614C31.1332 46.5423 31.2595 46.4286 31.3465 46.2866C31.4335 46.1446 31.4774 45.9805 31.473 45.814C31.4758 45.7293 31.4578 45.6453 31.4207 45.5691C31.3836 45.4929 31.3284 45.427 31.26 45.377C31.0876 45.2565 30.8963 45.1656 30.694 45.108C30.4241 45.0307 30.1486 44.9746 29.87 44.94C29.557 44.897 29.237 44.84 28.909 44.768C28.581 44.696 28.227 44.644 27.809 44.568C27.3706 44.4863 26.9388 44.3726 26.517 44.228C26.0647 44.0737 25.6253 43.8838 25.203 43.66C24.7695 43.4339 24.376 43.1383 24.038 42.785C23.6874 42.4157 23.4086 41.9844 23.216 41.513C22.9969 40.959 22.8911 40.3666 22.905 39.771C22.8729 38.9212 23.072 38.0786 23.481 37.333C23.8435 36.7164 24.3452 36.1932 24.946 35.805C25.551 35.4227 26.2211 35.155 26.923 35.015C27.6191 34.8682 28.3285 34.7928 29.04 34.79C30.1345 34.7739 31.2232 34.9513 32.256 35.314C33.2368 35.6817 34.1557 36.197 34.981 36.842C35.0899 36.9337 35.1588 37.0643 35.173 37.206C35.1888 37.3429 35.1508 37.4806 35.067 37.59L33.399 39.963C33.3167 40.0755 33.1942 40.1518 33.057 40.176C32.9907 40.1913 32.9218 40.1915 32.8554 40.1768C32.789 40.1621 32.7266 40.1328 32.673 40.091C32.0403 39.6806 31.3574 39.3535 30.641 39.118C30.0818 38.9369 29.4987 38.8398 28.911 38.83C28.755 38.83 28.573 38.83 28.366 38.841C28.1674 38.8472 27.9702 38.8757 27.778 38.926C27.6066 38.9678 27.4487 39.0525 27.319 39.172C27.2566 39.2329 27.2081 39.3064 27.1767 39.3877C27.1453 39.469 27.1318 39.5561 27.137 39.643C27.137 39.843 27.288 40.021 27.587 40.176C27.9149 40.3441 28.2581 40.4804 28.612 40.583C28.977 40.6923 29.348 40.7807 29.723 40.848C30.079 40.9147 30.307 40.9543 30.407 40.967C30.9772 41.0821 31.5407 41.2283 32.095 41.405C32.7095 41.5995 33.2901 41.8883 33.816 42.261C34.3627 42.6528 34.8215 43.1545 35.163 43.734C35.5484 44.4293 35.7368 45.2166 35.708 46.011C35.7268 46.7731 35.5732 47.5295 35.259 48.224C34.973 48.8276 34.5435 49.3519 34.008 49.751C33.4315 50.1703 32.7781 50.4717 32.085 50.638C31.2703 50.8397 30.4332 50.9371 29.594 50.928C28.8992 50.9319 28.2055 50.871 27.522 50.746C26.9083 50.6331 26.3059 50.4658 25.722 50.246C25.1837 50.0404 24.6653 49.7864 24.173 49.487C23.714 49.2075 23.2749 48.8964 22.859 48.556C22.8031 48.5154 22.7569 48.4628 22.7239 48.4021C22.6908 48.3414 22.6718 48.274 22.668 48.205C22.648 48.0638 22.6839 47.9202 22.768 47.805L24.415 45.434C24.4971 45.3214 24.619 45.2442 24.756 45.218C24.8219 45.2017 24.8904 45.1986 24.9575 45.2089C25.0246 45.2192 25.089 45.2427 25.147 45.278V45.278Z" fill="black"/>
<path d="M47.717 38.929H44.725C44.5889 38.9293 44.4584 38.9836 44.3622 39.0799C44.266 39.1763 44.212 39.3069 44.212 39.443V50.129C44.2147 50.2638 44.1649 50.3944 44.073 50.493C44.0253 50.5436 43.9671 50.5833 43.9026 50.6092C43.838 50.6351 43.7685 50.6466 43.699 50.643H40.493C40.4254 50.6446 40.3582 50.6321 40.2957 50.6063C40.2333 50.5804 40.1768 50.5419 40.13 50.493C40.0816 50.4458 40.0434 50.3891 40.0177 50.3265C39.9921 50.2639 39.9796 50.1967 39.9811 50.129V39.443C39.984 39.3081 39.9333 39.1776 39.8401 39.08C39.7926 39.0292 39.7347 38.9894 39.6703 38.9633C39.6058 38.9372 39.5364 38.9255 39.467 38.929H36.432C36.3645 38.9298 36.2976 38.9169 36.2352 38.8912C36.1728 38.8654 36.1163 38.8273 36.069 38.779C36.0204 38.7321 35.982 38.6757 35.9561 38.6132C35.9303 38.5507 35.9177 38.4836 35.919 38.416V35.516C35.9185 35.4485 35.9314 35.3816 35.957 35.3191C35.9826 35.2566 36.0203 35.1998 36.0681 35.1521C36.1158 35.1044 36.1726 35.0666 36.2351 35.041C36.2976 35.0154 36.3645 35.0025 36.432 35.003H47.717C47.7863 34.9998 47.8555 35.0113 47.92 35.0368C47.9844 35.0623 48.0428 35.1013 48.091 35.151C48.1831 35.25 48.233 35.3809 48.23 35.516V38.416C48.233 38.5506 48.1831 38.6809 48.091 38.779C48.043 38.8293 47.9848 38.8687 47.9203 38.8945C47.8558 38.9204 47.7864 38.9322 47.717 38.929V38.929Z" fill="black"/>
<path d="M54.0871 39.443V40.343C54.0865 40.4104 54.0994 40.4773 54.125 40.5397C54.1505 40.6021 54.1882 40.6589 54.2358 40.7066C54.2834 40.7543 54.3401 40.7921 54.4024 40.8178C54.4648 40.8434 54.5316 40.8564 54.5991 40.856H60.3871C60.4546 40.8555 60.5215 40.8684 60.584 40.894C60.6465 40.9196 60.7033 40.9573 60.751 41.0051C60.7987 41.0528 60.8365 41.1096 60.8621 41.1721C60.8877 41.2346 60.9006 41.3015 60.9001 41.369V44.32C60.9008 44.3875 60.8879 44.4545 60.8624 44.517C60.8368 44.5795 60.799 44.6362 60.7512 44.6839C60.7035 44.7316 60.6467 44.7693 60.5841 44.7947C60.5216 44.8201 60.4546 44.8328 60.3871 44.832H54.595C54.5274 44.8311 54.4603 44.8439 54.3977 44.8697C54.3352 44.8955 54.2785 44.9337 54.2311 44.982C54.1828 45.0291 54.1447 45.0856 54.1192 45.1481C54.0938 45.2105 54.0814 45.2776 54.0831 45.345V46.158C54.0816 46.2256 54.0938 46.2928 54.119 46.3556C54.1442 46.4183 54.1819 46.4753 54.2298 46.5231C54.2776 46.5708 54.3347 46.6084 54.3975 46.6335C54.4603 46.6586 54.5274 46.6707 54.595 46.669H61.2431C61.3105 46.6689 61.3774 46.6821 61.4397 46.708C61.502 46.7339 61.5586 46.7719 61.6062 46.8198C61.6537 46.8677 61.6912 46.9246 61.7166 46.9871C61.742 47.0496 61.7548 47.1165 61.7541 47.184V50.132C61.7548 50.1995 61.742 50.2663 61.7166 50.3288C61.6912 50.3913 61.6536 50.4481 61.6061 50.4959C61.5586 50.5437 61.502 50.5816 61.4397 50.6074C61.3773 50.6331 61.3105 50.6463 61.2431 50.646H50.3681C50.3004 50.6465 50.2333 50.6336 50.1707 50.608C50.1081 50.5823 50.0513 50.5445 50.0034 50.4967C49.9556 50.4488 49.9177 50.3919 49.8921 50.3293C49.8665 50.2667 49.8535 50.1997 49.8541 50.132V35.511C49.8529 35.4433 49.8655 35.376 49.8911 35.3132C49.9167 35.2505 49.9548 35.1936 50.0031 35.146C50.0509 35.0981 50.1078 35.0604 50.1705 35.035C50.2333 35.0095 50.3004 34.997 50.3681 34.998H61.2471C61.3144 34.997 61.3813 35.0095 61.4437 35.035C61.5061 35.0604 61.5626 35.0982 61.6101 35.146C61.6584 35.1934 61.6965 35.2503 61.722 35.3131C61.7475 35.3759 61.7598 35.4433 61.7581 35.511V38.411C61.7598 38.4785 61.7475 38.5455 61.7221 38.608C61.6966 38.6705 61.6584 38.727 61.6101 38.774C61.5628 38.8222 61.5063 38.8604 61.4439 38.8862C61.3815 38.9119 61.3146 38.9248 61.2471 38.924H54.5991C54.5316 38.9237 54.4647 38.9369 54.4024 38.9626C54.34 38.9884 54.2834 39.0263 54.2357 39.0741C54.1881 39.1219 54.1505 39.1787 54.125 39.2412C54.0994 39.3036 54.0865 39.3705 54.0871 39.438V39.443Z" fill="black"/>
<path d="M81.422 35.531V50.131C81.4226 50.1983 81.41 50.265 81.3847 50.3273C81.3594 50.3897 81.322 50.4464 81.2747 50.4942C81.2274 50.542 81.171 50.5799 81.1089 50.6058C81.0468 50.6317 80.9803 50.645 80.913 50.645H77.702C77.6345 50.6466 77.5675 50.6341 77.5051 50.6083C77.4428 50.5825 77.3866 50.5439 77.34 50.495C77.2919 50.4476 77.2538 50.3908 77.2282 50.3283C77.2026 50.2657 77.1899 50.1986 77.191 50.131V43.251C77.191 43.107 77.127 43.028 76.999 43.014C76.9367 43.007 76.8736 43.0171 76.8166 43.0434C76.7597 43.0696 76.7111 43.111 76.676 43.163L73.076 48.955C73.0401 49.0123 72.9893 49.0586 72.9291 49.0891C72.8688 49.1196 72.8013 49.133 72.734 49.128C72.6636 49.1316 72.5934 49.1177 72.5296 49.0875C72.4659 49.0573 72.4108 49.0118 72.369 48.955L68.769 43.163C68.7401 43.1106 68.6959 43.0682 68.6423 43.0416C68.5886 43.015 68.5282 43.0054 68.469 43.014C68.34 43.028 68.276 43.107 68.276 43.251V50.131C68.2772 50.1985 68.2647 50.2656 68.2392 50.3282C68.2138 50.3907 68.1759 50.4475 68.128 50.495C68.0812 50.5436 68.0249 50.582 67.9626 50.6078C67.9003 50.6336 67.8334 50.6463 67.766 50.645H64.557C64.4897 50.6466 64.4228 50.634 64.3606 50.6082C64.2985 50.5823 64.2424 50.5438 64.196 50.495C64.1475 50.4478 64.1094 50.3911 64.0837 50.3285C64.0581 50.2659 64.0456 50.1987 64.047 50.131V35.531C64.0457 35.4635 64.0583 35.3965 64.0839 35.3341C64.1095 35.2717 64.1477 35.2151 64.196 35.168C64.2427 35.1198 64.299 35.0818 64.3611 35.0564C64.4232 35.0309 64.4899 35.0185 64.557 35.02H67.534C67.6912 35.0241 67.8448 35.0674 67.981 35.146C68.1181 35.2154 68.2351 35.3186 68.321 35.446L72.435 41.474C72.4672 41.5249 72.5114 41.5672 72.5636 41.5972C72.6159 41.6272 72.6747 41.6439 72.735 41.646C72.7924 41.645 72.8484 41.6285 72.8972 41.5982C72.946 41.5679 72.9857 41.525 73.012 41.474L77.128 35.446C77.2255 35.3213 77.3486 35.219 77.489 35.146C77.6245 35.0675 77.7775 35.0242 77.934 35.02H80.913C80.9802 35.0195 81.0467 35.0323 81.1089 35.0579C81.171 35.0834 81.2274 35.121 81.2748 35.1686C81.3222 35.2162 81.3597 35.2728 81.3849 35.335C81.4102 35.3972 81.4228 35.4639 81.422 35.531V35.531Z" fill="black"/>
<path d="M89.1601 35.49C89.223 35.3543 89.3228 35.2389 89.4481 35.157C89.5768 35.0671 89.7301 35.0193 89.8871 35.02H92.8801C93.0296 35.0215 93.175 35.0694 93.2961 35.157C93.4212 35.2393 93.5212 35.3546 93.5851 35.49L99.8251 50.024C99.8523 50.0883 99.8636 50.1582 99.8582 50.2278C99.8528 50.2974 99.8308 50.3647 99.7941 50.424C99.7455 50.4994 99.6767 50.5595 99.5955 50.5975C99.5143 50.6356 99.4241 50.6499 99.3351 50.639H95.6781C95.5216 50.6386 95.3691 50.5901 95.2411 50.5C95.1131 50.415 95.0066 50.3013 94.9301 50.168L94.3541 48.888C94.2783 48.7543 94.1721 48.6402 94.0441 48.555C93.9227 48.4669 93.777 48.4187 93.6271 48.417H89.1171C88.9603 48.4161 88.8071 48.4644 88.6791 48.555C88.5533 48.6363 88.4534 48.7518 88.3911 48.888L87.7911 50.168C87.7284 50.304 87.6281 50.4192 87.5021 50.5C87.3809 50.5878 87.2357 50.6363 87.0861 50.639H83.4101C83.3332 50.6373 83.2572 50.6227 83.1851 50.596C83.1111 50.5702 83.0449 50.5258 82.9931 50.467C82.9395 50.4066 82.9048 50.3319 82.8931 50.252C82.8813 50.1477 82.9037 50.0424 82.9571 49.952L89.1601 35.49ZM90.4211 44.79H92.3211C92.3804 44.7954 92.4402 44.7853 92.4945 44.7608C92.5488 44.7362 92.5958 44.6981 92.6311 44.65C92.6628 44.6006 92.6789 44.5427 92.6771 44.484C92.6753 44.4252 92.6557 44.3684 92.6211 44.321C92.4771 43.965 92.3071 43.547 92.1081 43.071C91.9091 42.595 91.7231 42.148 91.5521 41.733C91.4951 41.606 91.4301 41.542 91.3601 41.542C91.2901 41.542 91.2231 41.606 91.1671 41.733L90.0981 44.321C90.0661 44.3722 90.0496 44.4315 90.0509 44.4919C90.0521 44.5522 90.0709 44.6108 90.105 44.6606C90.1391 44.7104 90.187 44.7492 90.2428 44.7722C90.2986 44.7952 90.3598 44.8014 90.4191 44.79H90.4211Z" fill="black"/>
<path d="M102.602 45.278C103.321 45.7496 104.088 46.1438 104.89 46.454C105.564 46.7228 106.281 46.8674 107.006 46.881C107.498 46.9083 107.989 46.8167 108.438 46.614C108.589 46.5427 108.716 46.4291 108.803 46.2871C108.89 46.1451 108.934 45.9807 108.93 45.814C108.933 45.7291 108.915 45.6447 108.878 45.5684C108.84 45.4922 108.784 45.4264 108.715 45.377C108.543 45.2561 108.351 45.1651 108.149 45.108C107.88 45.0309 107.605 44.9748 107.327 44.94C107.013 44.897 106.692 44.84 106.365 44.768C106.038 44.696 105.684 44.644 105.265 44.568C104.826 44.4863 104.394 44.3726 103.972 44.228C103.52 44.0737 103.08 43.8838 102.658 43.66C102.225 43.4336 101.832 43.138 101.494 42.785C101.143 42.4155 100.864 41.9842 100.67 41.513C100.452 40.9588 100.346 40.3665 100.36 39.771C100.327 38.921 100.527 38.0781 100.937 37.333C101.299 36.716 101.801 36.1926 102.402 35.805C103.007 35.4226 103.677 35.1548 104.379 35.015C105.075 34.8682 105.783 34.7928 106.494 34.79C107.589 34.7737 108.678 34.9511 109.711 35.314C110.692 35.6819 111.611 36.1972 112.437 36.842C112.545 36.9343 112.614 37.0645 112.629 37.206C112.645 37.3432 112.606 37.4811 112.521 37.59L110.855 39.963C110.772 40.0751 110.65 40.1513 110.513 40.176C110.446 40.1913 110.377 40.1916 110.31 40.1769C110.244 40.1622 110.181 40.1329 110.127 40.091C109.495 39.6806 108.813 39.3535 108.097 39.118C107.537 38.937 106.954 38.8399 106.366 38.83C106.209 38.83 106.027 38.83 105.821 38.841C105.623 38.8472 105.426 38.8757 105.234 38.926C105.062 38.9678 104.904 39.0525 104.773 39.172C104.711 39.2334 104.663 39.307 104.632 39.3882C104.601 39.4694 104.587 39.5562 104.592 39.643C104.592 39.843 104.742 40.021 105.041 40.176C105.369 40.3439 105.713 40.4801 106.067 40.583C106.432 40.6922 106.803 40.7807 107.178 40.848C107.535 40.914 107.762 40.954 107.863 40.967C108.433 41.0825 108.996 41.2287 109.55 41.405C110.165 41.5991 110.745 41.8879 111.271 42.261C111.818 42.6522 112.277 43.154 112.618 43.734C113.004 44.4291 113.192 45.2165 113.163 46.011C113.182 46.773 113.029 47.5295 112.715 48.224C112.429 48.8273 111.999 49.3515 111.464 49.751C110.888 50.1703 110.234 50.4717 109.541 50.638C108.726 50.8397 107.889 50.9371 107.049 50.928C106.354 50.9318 105.66 50.8709 104.976 50.746C104.364 50.6328 103.763 50.4654 103.181 50.246C102.643 50.0408 102.124 49.7868 101.632 49.487C101.173 49.2079 100.734 48.8968 100.318 48.556C100.262 48.5153 100.216 48.4628 100.182 48.4021C100.149 48.3414 100.129 48.2741 100.125 48.205C100.107 48.0628 100.146 47.9193 100.232 47.805L101.879 45.434C101.961 45.321 102.083 45.2437 102.22 45.218C102.35 45.187 102.488 45.2085 102.602 45.278Z" fill="black"/>
<path d="M1.80603 0.710022H8.39209V4.08502H5.48706V25.785H8.39209V29.161H1.80603V0.710022Z" fill="#969696"/>
<path d="M82.4711 0.710022V29.166H75.8871V25.79H78.787V4.09001H75.8871V0.710022H82.4711Z" fill="#969696"/>
<path d="M113.02 59.749C106.32 58.3567 99.5232 57.4841 92.6891 57.139C85.6293 56.8077 78.5601 57.554 71.7251 59.352C70.5394 59.7635 69.377 60.2392 68.2431 60.777C67.1767 61.3434 66.0302 61.7437 64.8431 61.964C63.7628 61.9091 62.6964 61.6958 61.6781 61.331C60.382 61.063 59.0589 60.9489 57.7361 60.991H57.4871C56.356 60.9934 55.2279 61.1069 54.1191 61.33C53.1002 61.6941 52.0336 61.9074 50.9531 61.963C49.7665 61.7396 48.6203 61.3388 47.5531 60.774C46.4201 60.2361 45.2583 59.7611 44.0731 59.351C37.2382 57.5535 30.1697 56.806 23.1101 57.134C16.2755 57.4804 9.47799 58.3544 2.77809 59.748C2.72184 60.832 2.77542 61.9189 2.93806 62.992C3.02806 64.092 2.8521 65.54 3.2541 66.392C3.6561 67.244 5.35404 67.731 5.94404 68.372C7.12004 69.659 7.67308 72.022 8.31508 73.753C9.99408 78.271 11.3721 82.503 14.3291 85.618C18.1571 89.649 23.9121 91.981 31.4951 92.342C39.0031 92.698 45.1881 90.264 48.8951 85.935C52.6021 81.606 54.2511 75.567 54.0361 67.344C54.9521 67.215 56.6631 67.011 57.5911 66.986C58.987 67.0029 60.3797 67.1226 61.7581 67.344C61.5461 75.567 63.1991 81.618 66.9021 85.935C70.6051 90.252 76.8021 92.7 84.3021 92.345C91.8861 91.981 97.6401 89.653 101.468 85.619C104.426 82.503 105.804 78.272 107.48 73.753C108.125 72.024 108.68 69.661 109.853 68.374C110.443 67.731 112.142 67.247 112.545 66.397C112.948 65.547 112.771 64.09 112.859 62.997C113.023 61.9226 113.077 60.8343 113.02 59.749V59.749ZM49.7451 74.929C49.5873 77.0065 48.9945 79.0275 48.0051 80.861C47.2549 82.5521 46.0844 84.0231 44.6051 85.134C43.9418 85.6789 43.226 86.1562 42.4681 86.559C36.3791 90.779 24.9681 89.132 19.6091 85.53C18.9337 85.026 18.2984 84.4704 17.7091 83.868C14.2595 79.8865 12.4745 74.7301 12.7241 69.468C12.7918 67.4587 13.6444 65.5559 15.0991 64.168C18.1931 61.698 25.1991 61.257 30.7611 61.557C40.2491 62.067 50.4241 64.541 49.7451 74.929ZM98.3051 83.877C97.7155 84.4789 97.0803 85.0342 96.4051 85.538C91.0431 89.138 79.6331 90.786 73.5431 86.567C72.7868 86.1634 72.0717 85.6868 71.4081 85.144C69.9291 84.0332 68.7587 82.5626 68.0081 80.872C67.0198 79.0373 66.4271 77.0159 66.2681 74.938C65.5891 64.552 75.7681 62.075 85.2551 61.568C90.8191 61.268 97.8231 61.713 100.918 64.18C102.371 65.5687 103.224 67.471 103.292 69.48C103.542 74.7416 101.756 79.8973 98.3051 83.877V83.877Z" fill="#3E3E3E"/>
</svg>
