<svg width="114" height="93" viewBox="0 0 114 93" fill="none" xmlns="http://www.w3.org/2000/svg">
<path d="M29.74 20.866V24.555C29.7406 24.6406 29.7243 24.7254 29.6919 24.8046C29.6595 24.8837 29.6116 24.9556 29.5511 25.0161C29.4906 25.0766 29.4187 25.1245 29.3395 25.1569C29.2604 25.1893 29.1756 25.2057 29.09 25.205H15.559C15.471 25.2093 15.3832 25.1946 15.3015 25.162C15.2197 25.1294 15.1459 25.0796 15.085 25.016C14.9685 24.8911 14.9054 24.7257 14.909 24.555V6.00601C14.9051 5.83524 14.9683 5.66975 15.085 5.54501C15.146 5.4815 15.2198 5.4317 15.3015 5.39894C15.3833 5.36618 15.471 5.35121 15.559 5.35501H19.628C19.7135 5.35448 19.7983 5.37097 19.8774 5.40352C19.9565 5.43607 20.0284 5.48403 20.0888 5.54462C20.1492 5.6052 20.1969 5.6772 20.2292 5.75641C20.2615 5.83562 20.2778 5.92047 20.277 6.00601V19.564C20.2734 19.7349 20.3369 19.9004 20.454 20.025C20.5148 20.0888 20.5885 20.1387 20.6703 20.1713C20.7521 20.2039 20.84 20.2185 20.928 20.214H29.087C29.1726 20.2136 29.2575 20.2302 29.3367 20.2629C29.4158 20.2955 29.4877 20.3436 29.5482 20.4042C29.6087 20.4649 29.6565 20.5369 29.6889 20.6162C29.7213 20.6955 29.7376 20.7804 29.737 20.866H29.74Z" fill="black"/>
<path d="M39.026 5.979C39.1058 5.80753 39.2323 5.66199 39.391 5.55901C39.5537 5.44434 39.7479 5.38285 39.947 5.383H43.747C43.9372 5.38599 44.1219 5.44745 44.276 5.55901C44.4349 5.66197 44.5617 5.80749 44.642 5.979L52.56 24.417C52.5955 24.5001 52.6103 24.5905 52.6032 24.6806C52.596 24.7706 52.5671 24.8576 52.519 24.934C52.4571 25.0292 52.3698 25.1051 52.2669 25.1531C52.164 25.201 52.0496 25.219 51.937 25.205H47.299C47.1 25.2045 46.906 25.1431 46.743 25.029C46.5814 24.921 46.4472 24.7769 46.351 24.608L45.618 22.981C45.5218 22.8118 45.3867 22.6678 45.224 22.561C45.0705 22.4491 44.8859 22.3875 44.696 22.385H38.974C38.7755 22.3846 38.5818 22.4461 38.42 22.561C38.2599 22.6632 38.1323 22.8089 38.052 22.981L37.294 24.608C37.2131 24.7797 37.086 24.9255 36.927 25.029C36.7728 25.1405 36.5882 25.2019 36.398 25.205H31.735C31.6375 25.2034 31.5411 25.1847 31.45 25.15C31.3559 25.1182 31.272 25.0619 31.2069 24.987C31.1406 24.9105 31.0978 24.8163 31.084 24.716C31.0704 24.5845 31.0992 24.4521 31.166 24.338L39.026 5.979ZM40.6259 17.779H43.041C43.116 17.7854 43.1914 17.7725 43.26 17.7415C43.3287 17.7105 43.3882 17.6625 43.433 17.602C43.4728 17.5386 43.4928 17.4647 43.4903 17.3899C43.4878 17.315 43.463 17.2426 43.419 17.182C43.239 16.731 43.019 16.201 42.769 15.596C42.519 14.991 42.281 14.426 42.064 13.896C41.991 13.734 41.91 13.652 41.82 13.652C41.73 13.652 41.648 13.734 41.575 13.896L40.2199 17.178C40.1782 17.2429 40.1565 17.3186 40.1574 17.3957C40.1583 17.4729 40.1818 17.548 40.225 17.6119C40.2682 17.6758 40.3293 17.7256 40.4006 17.7551C40.4719 17.7847 40.5502 17.7926 40.6259 17.778V17.779Z" fill="black"/>
<path d="M56.081 18.4C56.9918 18.9993 57.964 19.4998 58.981 19.893C59.8362 20.2332 60.7458 20.4161 61.666 20.433C62.2899 20.4681 62.9131 20.3525 63.483 20.096C63.6738 20.0043 63.8341 19.8594 63.9446 19.6788C64.0551 19.4983 64.1111 19.2897 64.106 19.078C64.1095 18.9701 64.0866 18.863 64.0394 18.766C63.9922 18.6689 63.9221 18.5848 63.835 18.521C63.6168 18.3677 63.3735 18.2537 63.116 18.184C62.7746 18.0843 62.4258 18.0114 62.073 17.966C61.673 17.912 61.273 17.84 60.852 17.75C60.452 17.678 59.9854 17.592 59.452 17.492C58.8954 17.3871 58.3469 17.2424 57.811 17.059C57.2375 16.863 56.6801 16.6226 56.144 16.34C55.5937 16.0524 55.0941 15.6768 54.665 15.228C54.2212 14.759 53.8676 14.2122 53.622 13.615C53.3453 12.9115 53.2117 12.1598 53.229 11.404C53.1875 10.3263 53.4406 9.25767 53.961 8.31302C54.4192 7.52982 55.0558 6.86582 55.819 6.37501C56.5864 5.89035 57.4367 5.55135 58.327 5.37501C59.2093 5.18885 60.1083 5.09303 61.01 5.08902C62.3992 5.06805 63.7812 5.29319 65.092 5.75401C66.3355 6.2222 67.5011 6.87594 68.549 7.69301C68.6874 7.80896 68.7749 7.97441 68.793 8.15402C68.813 8.32835 68.7646 8.50363 68.658 8.64302L66.542 11.652C66.4376 11.7946 66.2827 11.8919 66.109 11.924C66.0247 11.9432 65.9373 11.9434 65.8529 11.9248C65.7685 11.9061 65.6893 11.8689 65.621 11.816C64.8198 11.2934 63.9534 10.8785 63.044 10.582C62.333 10.351 61.5915 10.2269 60.844 10.214C60.644 10.214 60.4137 10.219 60.153 10.229C59.901 10.2364 59.6506 10.2729 59.407 10.338C59.1895 10.3905 58.9891 10.4979 58.825 10.65C58.7459 10.7277 58.6842 10.8215 58.6444 10.925C58.6046 11.0285 58.5874 11.1393 58.594 11.25C58.594 11.5027 58.7833 11.7287 59.162 11.928C59.5774 12.1415 60.0129 12.3136 60.462 12.442C60.925 12.5821 61.3958 12.6953 61.872 12.781C62.324 12.863 62.6133 12.9134 62.74 12.932C63.4636 13.0764 64.1784 13.2617 64.881 13.487C65.6609 13.7325 66.3978 14.0983 67.065 14.571C67.7592 15.0689 68.3411 15.707 68.773 16.444C69.2618 17.3251 69.5007 18.323 69.464 19.33C69.489 20.2965 69.2941 21.2559 68.894 22.136C68.531 22.9021 67.9866 23.568 67.308 24.076C66.5762 24.6073 65.7472 24.9895 64.868 25.201C63.8343 25.4556 62.7725 25.5786 61.708 25.567C60.8264 25.5723 59.9462 25.4949 59.079 25.336C58.3018 25.1935 57.5394 24.9803 56.801 24.699C56.1178 24.4387 55.4598 24.1167 54.835 23.737C54.2525 23.3822 53.6952 22.9876 53.167 22.556C53.0961 22.5041 53.0376 22.4372 52.9954 22.3601C52.9533 22.2831 52.9285 22.1977 52.923 22.11C52.9027 21.9321 52.9514 21.7531 53.059 21.61L55.148 18.599C55.2526 18.4569 55.4074 18.36 55.581 18.328C55.665 18.3065 55.7524 18.3019 55.8382 18.3142C55.924 18.3266 56.0065 18.3557 56.081 18.4V18.4Z" fill="black"/>
<path d="M90.206 26.087V14.863C90.2051 14.8108 90.2146 14.7588 90.2339 14.7103C90.2533 14.6617 90.2823 14.6175 90.319 14.5802C90.3557 14.543 90.3994 14.5134 90.4476 14.4933C90.4959 14.4732 90.5477 14.4629 90.6 14.463H95.08C96.6287 14.4016 98.141 14.9428 99.299 15.973C99.8871 16.5161 100.347 17.1832 100.645 17.926C101.258 19.5707 101.258 21.3813 100.645 23.026C100.349 23.7726 99.8891 24.4432 99.299 24.988C98.7522 25.4806 98.1133 25.8599 97.419 26.104C96.6669 26.3638 95.8756 26.4917 95.08 26.482H90.6C90.548 26.4832 90.4963 26.4734 90.4482 26.4535C90.4002 26.4335 90.3569 26.4037 90.321 26.366C90.2838 26.3298 90.2545 26.2864 90.2347 26.2384C90.2149 26.1904 90.2052 26.1389 90.206 26.087V26.087ZM93.85 23.463H95.08C95.401 23.4604 95.7206 23.4218 96.033 23.348C96.3581 23.2731 96.6613 23.1238 96.919 22.912C97.2039 22.6682 97.4261 22.3595 97.567 22.012C97.9056 21.0283 97.9056 19.9597 97.567 18.976C97.4262 18.6264 97.2008 18.3171 96.911 18.076C96.6518 17.8665 96.3485 17.7181 96.024 17.642C95.7149 17.567 95.3981 17.5281 95.08 17.526H93.85C93.798 17.5254 93.7465 17.5354 93.6985 17.5554C93.6506 17.5753 93.6072 17.6048 93.571 17.642C93.5337 17.6782 93.5043 17.7216 93.4846 17.7696C93.4648 17.8176 93.455 17.8691 93.456 17.921V23.073C93.4551 23.1253 93.4646 23.1773 93.4839 23.2258C93.5033 23.2744 93.5323 23.3186 93.569 23.3558C93.6057 23.3931 93.6494 23.4226 93.6976 23.4428C93.7459 23.4629 93.7977 23.4732 93.85 23.473V23.463Z" fill="black"/>
<path d="M105.798 17.881V18.572C105.797 18.624 105.807 18.6756 105.827 18.7236C105.847 18.7716 105.877 18.815 105.914 18.851C105.95 18.8883 105.993 18.9176 106.041 18.9373C106.089 18.9569 106.14 18.9663 106.192 18.965H110.641C110.693 18.9649 110.744 18.975 110.792 18.9948C110.84 19.0145 110.883 19.0435 110.92 19.0801C110.957 19.1168 110.986 19.1602 111.005 19.2081C111.025 19.256 111.035 19.3072 111.035 19.359V21.624C111.036 21.6763 111.026 21.7282 111.007 21.7767C110.987 21.8252 110.958 21.8693 110.922 21.9065C110.885 21.9437 110.841 21.9733 110.793 21.9935C110.745 22.0136 110.693 22.024 110.641 22.024H106.192C106.14 22.0228 106.089 22.0321 106.041 22.0516C105.993 22.071 105.95 22.1001 105.914 22.137C105.876 22.1734 105.847 22.2172 105.827 22.2655C105.807 22.3138 105.797 22.3657 105.798 22.418V23.041C105.797 23.0929 105.807 23.1443 105.827 23.1922C105.847 23.24 105.877 23.2832 105.914 23.319C105.95 23.3568 105.993 23.3865 106.041 23.4063C106.089 23.4261 106.14 23.4356 106.192 23.434H111.292C111.345 23.4332 111.397 23.443 111.446 23.4628C111.495 23.4826 111.539 23.5121 111.577 23.5494C111.614 23.5867 111.643 23.6311 111.663 23.68C111.683 23.7289 111.693 23.7813 111.692 23.834V26.097C111.693 26.1498 111.683 26.2022 111.663 26.2511C111.643 26.2999 111.614 26.3444 111.577 26.3817C111.539 26.419 111.495 26.4484 111.446 26.4682C111.397 26.488 111.345 26.4978 111.292 26.497H102.938C102.886 26.4981 102.835 26.4883 102.787 26.4683C102.739 26.4484 102.696 26.4186 102.66 26.381C102.622 26.3449 102.593 26.3013 102.573 26.2532C102.553 26.205 102.543 26.1532 102.544 26.101V14.863C102.543 14.8108 102.553 14.7589 102.572 14.7104C102.592 14.6619 102.621 14.6178 102.657 14.5806C102.694 14.5433 102.738 14.5138 102.786 14.4936C102.834 14.4734 102.886 14.463 102.938 14.463H111.292C111.344 14.4626 111.396 14.4725 111.444 14.4923C111.492 14.512 111.535 14.5412 111.572 14.578C111.609 14.6145 111.639 14.6581 111.658 14.7062C111.678 14.7544 111.688 14.806 111.687 14.858V17.089C111.687 17.1413 111.677 17.1931 111.657 17.2414C111.637 17.2896 111.607 17.3334 111.57 17.3701C111.533 17.4068 111.488 17.4357 111.44 17.4551C111.391 17.4745 111.339 17.484 111.287 17.483H106.187C106.083 17.483 105.983 17.5244 105.909 17.5981C105.835 17.6718 105.793 17.7717 105.793 17.876L105.798 17.881Z" fill="black"/>
<path d="M3.34694 45.278C4.06497 45.7502 4.83132 46.1444 5.63295 46.454C6.30711 46.7228 7.02432 46.8674 7.74996 46.881C8.24181 46.9083 8.733 46.8167 9.18196 46.614C9.33254 46.5425 9.45914 46.4289 9.54647 46.2869C9.63379 46.1449 9.67809 45.9806 9.67397 45.814C9.67688 45.7291 9.65877 45.6448 9.62126 45.5686C9.58376 45.4923 9.52799 45.4265 9.45894 45.377C9.28667 45.2563 9.09536 45.1653 8.89296 45.108C8.6237 45.0309 8.34889 44.9748 8.07097 44.94C7.75597 44.897 7.43597 44.84 7.10897 44.768C6.78197 44.696 6.42796 44.644 6.00896 44.568C5.57024 44.4864 5.13808 44.3728 4.71596 44.228C4.26363 44.0737 3.82426 43.8838 3.40197 43.66C2.96818 43.4339 2.5743 43.1383 2.23595 42.785C1.88576 42.4154 1.60707 41.9841 1.41396 41.513C1.19603 40.9587 1.09099 40.3665 1.10497 39.771C1.07165 38.9211 1.27079 38.0782 1.68096 37.333C2.04254 36.716 2.544 36.1926 3.14495 35.805C3.7498 35.4224 4.42002 35.1546 5.12197 35.015C5.81782 34.8683 6.52682 34.7929 7.23796 34.79C8.3328 34.7737 9.42188 34.9511 10.4549 35.314C11.4352 35.6822 12.3537 36.1974 13.1789 36.842C13.2885 36.9335 13.358 37.0641 13.3729 37.206C13.3881 37.3432 13.3494 37.4809 13.265 37.59L11.5979 39.963C11.5155 40.0758 11.3926 40.1521 11.255 40.176C11.1887 40.1912 11.1198 40.1914 11.0534 40.1767C10.987 40.162 10.9247 40.1327 10.871 40.091C10.2391 39.6804 9.55679 39.3534 8.84096 39.118C8.28137 38.937 7.69801 38.8399 7.10994 38.83C6.95194 38.83 6.77095 38.83 6.56395 38.841C6.36571 38.8472 6.16879 38.8757 5.97695 38.926C5.80518 38.9683 5.6467 39.0529 5.51595 39.172C5.45434 39.2334 5.40639 39.307 5.3752 39.3882C5.34401 39.4694 5.33029 39.5562 5.33495 39.643C5.33495 39.843 5.48596 40.021 5.78496 40.176C6.11294 40.3439 6.45615 40.4802 6.80996 40.583C7.17535 40.6921 7.54661 40.7806 7.92195 40.848C8.27795 40.914 8.50495 40.954 8.60595 40.967C9.1761 41.0825 9.73961 41.2287 10.294 41.405C10.9084 41.5997 11.489 41.8885 12.015 42.261C12.5619 42.6523 13.0204 43.1541 13.3609 43.734C13.7472 44.429 13.936 45.2164 13.907 46.011C13.9263 46.7731 13.7727 47.5297 13.458 48.224C13.1714 48.8269 12.7424 49.351 12.208 49.751C11.6309 50.1704 10.9767 50.4719 10.2829 50.638C9.46888 50.8395 8.63256 50.937 7.79396 50.928C7.09848 50.9319 6.40413 50.871 5.71996 50.746C5.10795 50.633 4.50722 50.4657 3.92495 50.246C3.38644 50.041 2.86794 49.7869 2.37596 49.487C1.91648 49.2077 1.47707 48.8966 1.06096 48.556C1.00512 48.5151 0.958898 48.4625 0.925556 48.4019C0.892213 48.3413 0.872567 48.2741 0.867969 48.205C0.850879 48.0627 0.889591 47.9193 0.975971 47.805L2.62197 45.434C2.7038 45.321 2.82585 45.2437 2.96297 45.218C3.0939 45.1872 3.23165 45.2087 3.34694 45.278Z" fill="black"/>
<path d="M20 50.643H16.787C16.718 50.6464 16.6491 50.6347 16.585 50.6088C16.521 50.5829 16.4633 50.5434 16.416 50.493C16.3237 50.3946 16.2738 50.2639 16.277 50.129V35.529C16.2739 35.3945 16.3238 35.2641 16.416 35.166C16.4635 35.1161 16.5213 35.077 16.5853 35.0515C16.6494 35.0259 16.7181 35.0145 16.787 35.018H20C20.067 35.0164 20.1336 35.0287 20.1955 35.0542C20.2575 35.0797 20.3135 35.1178 20.36 35.166C20.4083 35.2131 20.4464 35.2696 20.4721 35.3321C20.4977 35.3945 20.5103 35.4615 20.509 35.529V50.129C20.5104 50.1966 20.4979 50.2638 20.4723 50.3265C20.4467 50.3891 20.4084 50.4458 20.36 50.493C20.3137 50.5417 20.2579 50.5802 20.1959 50.606C20.1339 50.6319 20.0671 50.6445 20 50.643V50.643Z" fill="black"/>
<path d="M25.1469 45.278C25.8654 45.75 26.6321 46.1442 27.434 46.454C28.1078 46.7228 28.8246 46.8675 29.55 46.881C30.0421 46.9083 30.5336 46.8168 30.9829 46.614C31.1332 46.5423 31.2595 46.4286 31.3465 46.2866C31.4334 46.1446 31.4774 45.9805 31.473 45.814C31.476 45.7293 31.4582 45.6452 31.4211 45.5689C31.3839 45.4927 31.3286 45.4268 31.26 45.377C31.0876 45.2565 30.8963 45.1656 30.6939 45.108C30.424 45.0308 30.1486 44.9746 29.87 44.94C29.557 44.897 29.236 44.84 28.908 44.768C28.58 44.696 28.228 44.644 27.808 44.568C27.3696 44.4863 26.9378 44.3727 26.516 44.228C26.0636 44.0739 25.6242 43.884 25.202 43.66C24.7684 43.4341 24.3748 43.1385 24.037 42.785C23.6861 42.4157 23.407 41.9844 23.214 41.513C22.9957 40.9588 22.8903 40.3665 22.904 39.771C22.8715 38.9211 23.071 38.0783 23.481 37.333C23.8426 36.7161 24.344 36.1927 24.945 35.805C25.5497 35.4229 26.2195 35.1552 26.921 35.015C27.6172 34.8684 28.3265 34.793 29.038 34.79C30.1328 34.7737 31.2219 34.9511 32.255 35.314C33.2358 35.6818 34.1546 36.197 34.98 36.842C35.0341 36.8872 35.0789 36.9426 35.1117 37.005C35.1444 37.0675 35.1646 37.1358 35.171 37.206C35.1892 37.3422 35.1532 37.48 35.071 37.59L33.403 39.963C33.3206 40.0753 33.1981 40.1516 33.0609 40.176C32.9945 40.1912 32.9255 40.1915 32.8589 40.1768C32.7923 40.1621 32.7299 40.1328 32.676 40.091C32.0441 39.6806 31.3617 39.3536 30.646 39.118C30.0861 38.9369 29.5024 38.8399 28.914 38.83C28.759 38.83 28.576 38.83 28.37 38.841C28.1714 38.8471 27.9741 38.8756 27.782 38.926C27.6106 38.9679 27.4527 39.0525 27.323 39.172C27.2606 39.2329 27.2121 39.3064 27.1807 39.3877C27.1493 39.469 27.1357 39.5561 27.141 39.643C27.141 39.843 27.291 40.021 27.59 40.176C27.9183 40.3439 28.2619 40.4802 28.616 40.583C28.981 40.6924 29.3519 40.7809 29.727 40.848C30.083 40.9147 30.3106 40.9544 30.4099 40.967C30.9805 41.082 31.5444 41.2282 32.099 41.405C32.7133 41.6 33.2939 41.8887 33.82 42.261C34.3667 42.6529 34.8255 43.1546 35.167 43.734C35.5524 44.4293 35.7408 45.2166 35.7119 46.011C35.7307 46.7731 35.5773 47.5296 35.263 48.224C34.977 48.8276 34.5475 49.3519 34.012 49.751C33.4357 50.1705 32.7821 50.4719 32.089 50.638C31.2742 50.8396 30.4372 50.9371 29.598 50.928C28.9032 50.9319 28.2095 50.871 27.526 50.746C26.9123 50.6332 26.3099 50.4659 25.726 50.246C25.1877 50.0406 24.6692 49.7866 24.177 49.487C23.7181 49.2072 23.2791 48.8962 22.863 48.556C22.8071 48.5154 22.7609 48.4628 22.7278 48.4021C22.6948 48.3414 22.6757 48.2741 22.672 48.205C22.6532 48.0629 22.6913 47.9192 22.778 47.805L24.4229 45.434C24.5055 45.3214 24.6278 45.2442 24.765 45.218C24.8953 45.1877 25.0322 45.2092 25.1469 45.278V45.278Z" fill="black"/>
<path d="M47.7169 38.929H44.7249C44.6573 38.9277 44.5901 38.9404 44.5276 38.9664C44.4651 38.9924 44.4087 39.0311 44.3619 39.08C44.3133 39.127 44.2748 39.1834 44.2488 39.2459C44.2228 39.3083 44.2099 39.3754 44.2109 39.443V50.129C44.2136 50.2638 44.1638 50.3944 44.072 50.493C44.0245 50.5437 43.9665 50.5834 43.902 50.6093C43.8376 50.6352 43.7683 50.6467 43.6989 50.643H40.492C40.4246 50.6432 40.3578 50.63 40.2955 50.6041C40.2333 50.5783 40.1768 50.5404 40.1293 50.4926C40.0818 50.4448 40.0441 50.3881 40.0187 50.3257C39.9932 50.2633 39.9804 50.1964 39.981 50.129V39.443C39.9838 39.3083 39.9335 39.178 39.841 39.08C39.7933 39.0293 39.7351 38.9895 39.6705 38.9634C39.606 38.9374 39.5365 38.9256 39.4669 38.929H36.432C36.2958 38.929 36.1652 38.875 36.0689 38.7788C35.9725 38.6827 35.9182 38.5522 35.918 38.416V35.516C35.9176 35.4485 35.9306 35.3815 35.9563 35.319C35.982 35.2565 36.0198 35.1998 36.0676 35.152C36.1155 35.1043 36.1723 35.0666 36.2349 35.041C36.2974 35.0154 36.3644 35.0025 36.432 35.003H47.7169C47.7862 34.9998 47.8554 35.0113 47.9199 35.0368C47.9844 35.0623 48.0427 35.1013 48.091 35.151C48.183 35.25 48.2329 35.3809 48.2299 35.516V38.416C48.2329 38.5506 48.183 38.6809 48.091 38.779C48.0429 38.8293 47.9847 38.8687 47.9202 38.8945C47.8557 38.9204 47.7864 38.9322 47.7169 38.929V38.929Z" fill="black"/>
<path d="M54.0869 39.443V40.343C54.0865 40.4105 54.0996 40.4774 54.1252 40.5398C54.1508 40.6022 54.1886 40.6589 54.2363 40.7066C54.2841 40.7544 54.3407 40.7921 54.4032 40.8178C54.4656 40.8434 54.5325 40.8564 54.5999 40.856H60.387C60.4545 40.8555 60.5214 40.8684 60.5839 40.894C60.6464 40.9196 60.7031 40.9573 60.7509 41.0051C60.7986 41.0528 60.8364 41.1096 60.862 41.1721C60.8876 41.2345 60.9005 41.3015 60.9 41.369V44.32C60.9007 44.3875 60.8878 44.4545 60.8623 44.517C60.8367 44.5794 60.7989 44.6362 60.7511 44.6839C60.7033 44.7316 60.6465 44.7692 60.584 44.7947C60.5215 44.8201 60.4545 44.8328 60.387 44.832H54.5949C54.5273 44.8311 54.4602 44.8439 54.3976 44.8697C54.335 44.8954 54.2783 44.9337 54.231 44.982C54.1825 45.029 54.1442 45.0855 54.1185 45.1479C54.0929 45.2104 54.0804 45.2775 54.0819 45.345V46.158C54.0811 46.2255 54.0939 46.2925 54.1194 46.355C54.1449 46.4175 54.1827 46.4742 54.2305 46.5219C54.2784 46.5695 54.3353 46.6071 54.3978 46.6323C54.4604 46.6576 54.5274 46.6701 54.5949 46.669H61.242C61.3095 46.6687 61.3765 46.6819 61.4389 46.7077C61.5014 46.7335 61.558 46.7715 61.6057 46.8194C61.6533 46.8673 61.6909 46.9242 61.7164 46.9868C61.7418 47.0494 61.7546 47.1164 61.754 47.184V50.132C61.7546 50.1995 61.7419 50.2665 61.7164 50.329C61.6909 50.3916 61.6533 50.4484 61.6056 50.4962C61.558 50.5441 61.5012 50.5819 61.4388 50.6077C61.3764 50.6334 61.3095 50.6464 61.242 50.646H50.367C50.2994 50.6464 50.2324 50.6334 50.1699 50.6077C50.1075 50.582 50.0507 50.5441 50.0029 50.4963C49.9552 50.4485 49.9175 50.3916 49.8919 50.3291C49.8663 50.2666 49.8534 50.1996 49.854 50.132V35.511C49.8528 35.4432 49.8653 35.3759 49.8909 35.3132C49.9166 35.2505 49.9547 35.1936 50.0029 35.146C50.0505 35.098 50.1073 35.0602 50.1698 35.0347C50.2324 35.0093 50.2994 34.9968 50.367 34.998H61.2459C61.3135 34.9968 61.3806 35.0093 61.4431 35.0347C61.5057 35.0602 61.5624 35.098 61.6099 35.146C61.6583 35.1934 61.6964 35.2503 61.7219 35.3131C61.7473 35.3759 61.7596 35.4433 61.758 35.511V38.411C61.7597 38.4784 61.7474 38.5455 61.7219 38.608C61.6965 38.6705 61.6583 38.727 61.6099 38.774C61.5626 38.8223 61.5059 38.8606 61.4433 38.8863C61.3807 38.9121 61.3136 38.9249 61.2459 38.924H54.599C54.5315 38.9239 54.4646 38.9371 54.4022 38.9629C54.3399 38.9887 54.2832 39.0265 54.2356 39.0743C54.1879 39.1221 54.1501 39.1788 54.1245 39.2412C54.0988 39.3036 54.0857 39.3705 54.086 39.438L54.0869 39.443Z" fill="black"/>
<path d="M81.422 35.531V50.131C81.4226 50.1983 81.41 50.265 81.3847 50.3273C81.3594 50.3897 81.322 50.4464 81.2747 50.4942C81.2274 50.542 81.171 50.5799 81.1089 50.6058C81.0468 50.6317 80.9803 50.645 80.913 50.645H77.702C77.6346 50.6466 77.5675 50.634 77.5052 50.6082C77.4428 50.5824 77.3866 50.5438 77.34 50.495C77.2919 50.4476 77.2538 50.3908 77.2282 50.3283C77.2026 50.2657 77.1899 50.1986 77.191 50.131V43.251C77.191 43.107 77.127 43.028 76.999 43.014C76.9367 43.007 76.8736 43.0171 76.8166 43.0434C76.7597 43.0696 76.7111 43.111 76.676 43.163L73.076 48.955C73.0404 49.0123 72.9899 49.0588 72.9297 49.0893C72.8696 49.1198 72.8022 49.1332 72.735 49.128C72.6644 49.1315 72.5942 49.1176 72.5303 49.0874C72.4665 49.0572 72.4111 49.0118 72.369 48.955L68.769 43.163C68.7394 43.1112 68.6951 43.0693 68.6417 43.0427C68.5883 43.0162 68.5281 43.0062 68.469 43.014C68.34 43.028 68.276 43.107 68.276 43.251V50.131C68.2774 50.1987 68.2649 50.2659 68.2392 50.3285C68.2136 50.3911 68.1754 50.4478 68.127 50.495C68.0804 50.5436 68.0243 50.5819 67.9621 50.6077C67.9 50.6336 67.8332 50.6463 67.766 50.645H64.557C64.4897 50.6466 64.4228 50.634 64.3606 50.6082C64.2985 50.5823 64.2424 50.5438 64.196 50.495C64.1475 50.4478 64.1094 50.3911 64.0837 50.3285C64.0581 50.2659 64.0456 50.1987 64.047 50.131V35.531C64.0457 35.4636 64.0583 35.3965 64.0839 35.3341C64.1095 35.2717 64.1477 35.2151 64.196 35.168C64.2427 35.1198 64.2989 35.0818 64.361 35.0563C64.4231 35.0308 64.4899 35.0185 64.557 35.02H67.533C67.6905 35.024 67.8445 35.0673 67.981 35.146C68.1181 35.2154 68.2351 35.3186 68.321 35.446L72.435 41.474C72.4672 41.525 72.5114 41.5672 72.5636 41.5972C72.6159 41.6272 72.6747 41.644 72.735 41.646C72.7925 41.6449 72.8486 41.6283 72.8975 41.5981C72.9464 41.5678 72.9863 41.525 73.013 41.474L77.128 35.446C77.2253 35.3212 77.3485 35.2189 77.489 35.146C77.6245 35.0676 77.7775 35.0243 77.934 35.02H80.913C80.9802 35.0195 81.0467 35.0324 81.1089 35.0579C81.171 35.0834 81.2274 35.121 81.2748 35.1686C81.3222 35.2162 81.3597 35.2728 81.3849 35.335C81.4102 35.3972 81.4228 35.4639 81.422 35.531V35.531Z" fill="black"/>
<path d="M89.1599 35.49C89.2234 35.3546 89.3231 35.2393 89.4479 35.157C89.5766 35.0671 89.73 35.0193 89.887 35.02H92.88C93.0295 35.0214 93.1749 35.0693 93.296 35.157C93.4211 35.2393 93.5211 35.3546 93.585 35.49L99.825 50.024C99.8521 50.0883 99.8634 50.1582 99.858 50.2278C99.8527 50.2974 99.8307 50.3647 99.794 50.424C99.7454 50.4994 99.6765 50.5595 99.5953 50.5975C99.5142 50.6356 99.424 50.6499 99.335 50.639H95.6779C95.5215 50.6386 95.3689 50.5901 95.241 50.5C95.1129 50.415 95.0064 50.3013 94.9299 50.168L94.354 48.888C94.2781 48.7543 94.172 48.6402 94.044 48.555C93.9226 48.4669 93.7769 48.4187 93.627 48.417H89.117C88.9601 48.4161 88.8069 48.4644 88.679 48.555C88.5529 48.636 88.4529 48.7516 88.3909 48.888L87.791 50.168C87.7283 50.304 87.628 50.4192 87.502 50.5C87.3808 50.5878 87.2356 50.6363 87.0859 50.639H83.4089C83.3324 50.6372 83.2567 50.6226 83.1849 50.596C83.1111 50.57 83.045 50.5256 82.9929 50.467C82.939 50.4069 82.9042 50.332 82.893 50.252C82.8806 50.1477 82.9031 50.0422 82.9569 49.952L89.1599 35.49ZM90.421 44.79H92.3209C92.3803 44.7954 92.44 44.7853 92.4943 44.7608C92.5486 44.7362 92.5957 44.6981 92.6309 44.65C92.6627 44.6006 92.6787 44.5427 92.677 44.484C92.6752 44.4252 92.6556 44.3684 92.6209 44.321C92.4779 43.965 92.3069 43.547 92.1079 43.071C91.9089 42.595 91.723 42.148 91.552 41.733C91.495 41.606 91.4299 41.542 91.3599 41.542C91.2899 41.542 91.2239 41.606 91.1669 41.733L90.0989 44.321C90.067 44.3721 90.0507 44.4313 90.0519 44.4916C90.0531 44.5518 90.0718 44.6103 90.1057 44.6601C90.1397 44.7098 90.1874 44.7486 90.243 44.7717C90.2986 44.7947 90.3598 44.8011 90.419 44.79H90.421Z" fill="black"/>
<path d="M102.603 45.278C103.322 45.7496 104.088 46.1438 104.89 46.454C105.564 46.7228 106.281 46.8674 107.006 46.881C107.498 46.9083 107.989 46.8167 108.438 46.614C108.589 46.5427 108.715 46.4291 108.803 46.2871C108.89 46.1451 108.934 45.9807 108.93 45.814C108.933 45.7291 108.915 45.6447 108.878 45.5684C108.84 45.4922 108.784 45.4264 108.715 45.377C108.543 45.2561 108.351 45.1651 108.149 45.108C107.88 45.0309 107.605 44.9748 107.327 44.94C107.013 44.897 106.692 44.84 106.365 44.768C106.038 44.696 105.684 44.644 105.265 44.568C104.827 44.4864 104.395 44.3727 103.973 44.228C103.52 44.0739 103.081 43.884 102.658 43.66C102.225 43.4336 101.832 43.138 101.494 42.785C101.143 42.4153 100.863 41.9841 100.669 41.513C100.451 40.9586 100.346 40.3664 100.36 39.771C100.327 38.921 100.526 38.0781 100.937 37.333C101.299 36.716 101.801 36.1926 102.402 35.805C103.007 35.4226 103.677 35.1548 104.379 35.015C105.074 34.8682 105.783 34.7928 106.494 34.79C107.589 34.7737 108.678 34.9511 109.711 35.314C110.692 35.6819 111.611 36.1972 112.437 36.842C112.545 36.9343 112.614 37.0645 112.629 37.206C112.645 37.3432 112.606 37.4811 112.521 37.59L110.855 39.963C110.772 40.0751 110.65 40.1513 110.513 40.176C110.446 40.1913 110.377 40.1916 110.31 40.1769C110.244 40.1622 110.181 40.1329 110.127 40.091C109.495 39.6806 108.813 39.3535 108.097 39.118C107.537 38.937 106.954 38.8399 106.366 38.83C106.209 38.83 106.027 38.83 105.821 38.841C105.623 38.8472 105.426 38.8757 105.234 38.926C105.062 38.9676 104.904 39.0523 104.774 39.172C104.712 39.2332 104.664 39.3068 104.632 39.388C104.601 39.4692 104.587 39.5561 104.592 39.643C104.592 39.843 104.742 40.021 105.041 40.176C105.369 40.3439 105.713 40.4801 106.067 40.583C106.432 40.6922 106.803 40.7807 107.178 40.848C107.535 40.914 107.762 40.954 107.863 40.967C108.433 41.0825 108.996 41.2287 109.55 41.405C110.165 41.5991 110.745 41.8879 111.271 42.261C111.818 42.6522 112.277 43.154 112.618 43.734C113.004 44.4291 113.192 45.2165 113.163 46.011C113.182 46.773 113.029 47.5295 112.715 48.224C112.429 48.8273 111.999 49.3515 111.464 49.751C110.887 50.1703 110.234 50.4717 109.541 50.638C108.726 50.8397 107.889 50.9371 107.049 50.928C106.354 50.9318 105.66 50.8709 104.976 50.746C104.364 50.6329 103.763 50.4656 103.181 50.246C102.643 50.0406 102.124 49.7866 101.632 49.487C101.173 49.2079 100.734 48.8968 100.318 48.556C100.262 48.5153 100.216 48.4628 100.182 48.4021C100.149 48.3414 100.129 48.2741 100.125 48.205C100.108 48.0629 100.146 47.9195 100.232 47.805L101.879 45.434C101.961 45.321 102.083 45.2437 102.22 45.218C102.351 45.1871 102.488 45.2087 102.603 45.278V45.278Z" fill="black"/>
<path d="M1.80597 0.710022H8.38696V4.08502H5.48697V25.785H8.38696V29.161H1.80096L1.80597 0.710022Z" fill="black"/>
<path d="M82.4709 0.710022V29.166H75.887V25.79H78.7869V4.09001H75.887V0.710022H82.4709Z" fill="black"/>
<path d="M113.02 59.749C106.32 58.3567 99.5231 57.4841 92.689 57.139C85.6292 56.8078 78.56 57.554 71.7249 59.352C70.5393 59.7635 69.3769 60.2392 68.2429 60.777C67.1766 61.3434 66.0301 61.7437 64.843 61.964C63.7627 61.9092 62.6962 61.6959 61.6779 61.331C60.3819 61.063 59.0588 60.9489 57.736 60.991H57.487C56.3559 60.9934 55.2278 61.1069 54.119 61.33C53.1001 61.6941 52.0335 61.9074 50.953 61.963C49.7663 61.7398 48.6201 61.339 47.5529 60.774C46.42 60.2361 45.2582 59.7611 44.073 59.351C37.2381 57.5535 30.1696 56.806 23.1099 57.134C16.2754 57.4804 9.47784 58.3544 2.77794 59.748C2.72119 60.832 2.7748 61.9189 2.93795 62.992C3.02795 64.092 2.85196 65.54 3.25396 66.392C3.65596 67.244 5.35396 67.731 5.94396 68.372C7.11896 69.659 7.67296 72.022 8.31496 73.753C9.99396 78.271 11.371 82.503 14.328 85.618C18.157 89.649 23.912 91.981 31.495 92.342C39.002 92.698 45.188 90.264 48.895 85.935C52.602 81.606 54.2489 75.567 54.0349 67.344C54.9509 67.215 56.662 67.011 57.59 66.986C58.9859 67.0029 60.3786 67.1226 61.757 67.344C61.545 75.567 63.198 81.618 66.901 85.935C70.604 90.252 76.801 92.7 84.301 92.345C91.885 91.981 97.6389 89.653 101.467 85.619C104.425 82.503 105.803 78.272 107.479 73.753C108.124 72.024 108.679 69.661 109.852 68.374C110.442 67.731 112.141 67.247 112.544 66.397C112.947 65.547 112.77 64.09 112.858 62.997C113.022 61.9227 113.076 60.8344 113.02 59.749ZM49.745 74.929C49.5869 77.0065 48.9937 79.0276 48.004 80.861C47.2542 82.5524 46.0836 84.0235 44.604 85.134C43.9409 85.6791 43.225 86.1565 42.4669 86.559C36.3779 90.779 24.967 89.132 19.608 85.53C18.9326 85.026 18.2974 84.4704 17.708 83.868C14.2591 79.8862 12.4748 74.7299 12.725 69.468C12.7919 67.4587 13.6443 65.5557 15.099 64.168C18.193 61.698 25.1989 61.257 30.7609 61.557C40.2479 62.067 50.424 64.541 49.745 74.929ZM98.3059 83.877C97.7162 84.4786 97.081 85.0339 96.406 85.538C91.043 89.138 79.634 90.786 73.544 86.567C72.7875 86.163 72.0722 85.6865 71.408 85.144C69.9288 84.0334 68.7583 82.5628 68.008 80.872C67.0185 79.0378 66.4254 77.0161 66.267 74.938C65.588 64.552 75.767 62.075 85.253 61.568C90.818 61.268 97.822 61.713 100.917 64.18C102.37 65.5685 103.222 67.4711 103.29 69.48C103.541 74.7413 101.756 79.8971 98.3059 83.877Z" fill="black"/>
</svg>
